<?xml version="1.0"?>
    
<!--********* Copyright (c) 2024 Pareto Softare, LLC DBA Simplemaps.com ***************************************
************* Free for Commercial Use, full terms at  https://simplemaps.com/resources/svg-license ************
************* Attribution is appreciated! https://simplemaps.com *******************************************-->

<svg baseprofile="tiny" fill="#6f9c76" height="1000" stroke="#ffffff" stroke-linecap="round" stroke-linejoin="round" stroke-width=".5" version="1.2" viewbox="0 0 1000 1000" width="1000" xmlns="http://www.w3.org/2000/svg">
 <g id="features">
  <path d="M175.2 144.3l2.6 3 1.4 0.8 1.8 0.3 1.9 0 1.8-0.3 3.6-1.5 1.6-1 0.8-0.3 4.4 0.5 1.9-0.7 3.5-2.5 1.7-0.8 1.2-0.1 0.7-0.9 0.5-1 1-0.5 6 1.5 0.9 0.6 0.9 0.8 1.1 1.6 0.1 0.2 0.7 0.3 0.5-0.2 0.4-0.2 0.6 0 2.8 1 1.7 0 1 0.3 0.3 0 0.8-0.4 0.1-0.3 0-0.4 0.2-0.9 0-0.1 1.2-0.1 0.2-1.6 0.6-1.2 0.9-0.7 4.1-0.9 0.6-0.2 0.4-0.3 0.7-1 0.1-0.2 0.6-1.2 0.1-0.2 0.3-2.4 0-1 0.1-0.9 0.4-0.9 0.6-0.5 1.2-0.1 0.7-0.2 2.5-2.2 1.3-2.8-0.2-3.1-1.7-3.3-1.4-1.2-0.2-0.4 0.3-0.7 0.6-0.8 1.1-1.2 1.3-0.6 2.5-0.5 1.2-0.9 2.9-3.8 1.7-0.8 0.7-0.6 0.5-0.7 0.4-0.7 0-0.9-0.4-0.3-0.2-0.4 0.4-1 1.3-1.4 1.6-0.8 2.5-0.6 0.8-0.1 1.6 0.3 0.8 1.1 0.3 2 0 2.5-0.2 2.5-0.9 4.4-0.2 2.2 0.2 2 0.6 1.4 1.1 0.9 1.6 0.6 1.6 0.8 1.6 1.7 3.7 5.5 0.6 0.3 1.1 0.4 2.8 1.6 1 0.1 0.4-0.3 0.9-0.8 0.4-0.2 0.3 0.2 0.2 0 0.4 0.8 0.5 0.3 0.9 0.1 1.8 0 0.9 0.3 1.5 2-0.9 2-1.7 2-1 2.4-0.2 0.4-0.1 0.2 1 0.1 0.9 0.3 3.4 1.8 0.3 0.3 0.4 0.6 0.6 1.3 1 1.8 0.5 1.1 0.3 1.1 0.1 1.5-0.2 1-0.4 1-0.2 1.3 2.4-0.7 1.9 0.9 1.7 0.3 1.9-2.3 1.5-2.8 0.2-1.5-0.7-1.4-0.5-0.3-1.3-0.3-0.6-0.3-0.5-0.8-0.5-1.5-0.6-0.7-0.1-0.2-0.1-0.2 0.1-0.2 0.1-0.2 1.9-1.8-1-3 0.2-0.9 1.5-1.2 1.3-0.4 0.6-0.3 0.4-0.8 0.2-1.1-0.1-1.9 0.2-1.1 1.1-1.6 4.3-2.9 0.4-0.8 0.3-1 0.3-0.9 0.7-0.4 0.7-0.4 0.6-0.6 0.6-0.9 0.9-3 1.7-3.6 0.3-1.9 0-1.1-0.8-3 0-1.2 0.1-1.1-0.1-0.8-0.8-0.6-0.5-1.1 0.4-2.1 1-2 1.2-1.1 2.8-0.3 1.2 0.3 0 1 1.5 1.5 0.5 0.2 0.6-0.3 0.3-0.5 0.2-0.6 0.4-0.6 0.9-0.7 0.5-0.1 0.2 0.6 0.3 8.1-0.1 1.3 0.2 0.5 0.4 0.4 1.3 0.7 0.5 0.5 1.2 3 0.7 1.1 1.3 0.8 1.3 0.5 6.7 0.1 1.1-0.5 0.9-1.2 0.1-0.7-0.1-0.9 0.1-1 0.6-0.7 0.7 0 1.4 0.9 0.7 0.1 1.3-0.4 3.9-2 2.5-0.4 1.2 0.1 1.2 0.3 1.4 0.9 0.4 1.4 0 1.7 0.4 1.9 0.9 1.1 2.3 2.1 0.6 1.4 0 1.9 2 0.1 2.5-1 1.6-1 0.8-1.6-0.8-1.5-2.4-2.5-0.5-0.9-0.3-0.8 0.1-0.7 0.3-1.2 0.4-0.8 1.2-1.1 0.5-0.6 0.4-1.8-0.4-1-1-0.4-2.7-0.5-1.7-0.7-0.9-1.1 1-1.8-0.5-0.3-0.3-0.5-0.1-0.6-0.1-0.8 0.3-0.9 0-1.9 0.1-0.6 0.5-0.8 1.2-1.2 0.5-0.7 0.7-2.8 0.3-0.6 0.6-0.3 5.5-1.6 1.5 0 1 0.7 0.1 1-0.3 1.7 0.2 1 2.4 0.8 0.5 0.4 0.3 0.4 0.4 0.4 0.6 0.3 0.8 0.2 2-0.2 4.2 1.1 1.1-0.2 0.4-0.8 0.4-0.6 0.5-2.1 0-2.2-0.4-1.7-1.3-1-2.4-0.3-1.1-1.2-0.5-1.6 0.3-0.8 0.6-0.6 0.6-1.1 0.1-1.2 0-0.9 0.2-0.8 1-0.7 0.7-1-0.2-1.2-0.4-1.3-0.1-1.2 1.3-1.6 0.3-0.5 0.3-0.8 0.3-2.8 1.9 1.6 2.4 0.3 6-1.7 1-0.1 0.9 0.2 4.5 2.7 0.6 0.9-0.3 0.6-1.3 1-0.3 0.5 0.3 0.7 0.7 0 1.2-0.4 0.7 0.3 1.7 0.9 0.6 0.1 1.1-0.4 0.6 0 0.5 0.3 1 0.9 0.6 0.2 0.6 0 1.9-0.7 1-0.1 2.1 0.2 1 0.3 0.8-0.1 0.8-0.9 1.4-2.2 0.2-0.3 0.6-0.2 0.3-0.3 0.1-0.5-0.1-0.8 0.1-0.4 1.1-2.6 0.6-3 0.5-1.1 3.8-3.8 1-0.6 4.1-1.3 4.1-0.7 2.1 0.4 1.8 0.9 1.8 0.1 2-1.9 0.5-0.7 0.5-0.4 0.6-0.1 1 0.2 0.4 0.3 0.3 0.3 0.3 0.4 0.5 0.3 0.6 0.1 0.5-0.1 0.6-0.3 1.7-0.5 1.4-0.1 3 0.6 0.1 0 0.4 0 0.5 0 1.1 0.1 1.9 1.4 1.1 0.4 0.7-0.1 1.1-1 0.7-0.4 2.6-0.4 2.1-1.6 2.5-1.4 2.5-0.9 4.2-0.2 6-3.1 1-0.2 2.7-0.5 1.4 0.4 0 1.1 0 1.2-1.3 1.7-3.5 2-0.6 1.5 0.4 0.8 0.2 1 0.4 2 0.4 1 0.4 0.8 0 0.8-0.9 0.8 0.6 0.3 1.4 0.2 0.6 0.4 0.7 0.6 0.3 0.6 0.4 0.4 0.8 0.3 2.5 0.1 0.9 0.6 0.5 1.9 0 1-0.1 0.7-0.2 0.6-0.2 0.9 0 1.2 0.1 0.5 0.4 0.4 0.5 0.4 1.3 0.4 1.2 0.2 0.9 0.6 0.6 1.9 1.1 2.8 2 1.8 2.4 0.9 1.4 0.3 1.8 0.3 1.8 1.2 1 0.5 0.8 0.1 3.4-0.5 2.9 0.3 0.1 0.1 0.5 0.2 1.1 0.8 0.5 0.2 0.5 0 1-0.3 0.4-0.1 0.6 0.2 1.4 0.5 3.4 2.1 13.7 1 4.8 1.1 3.7 2.3 1.3 0.5 2.3 0.2 6-1.3 2.6 0.4 3.5-0.2 0.4 0.1 0.9 1 0.4 0.3 2.5 0.1 7.1 2.3 0.9 0.1 0.9-0.2 0 0.7-0.1 0.6-0.2 0.5-0.3 0.5-0.1 2.1-0.2 0.4-0.5 1-1.1 0.6-1.4-0.1-2 0.3-1.4 1.3-1.3 1.8-1.4 1.5-2.7 1.5-1.4 1-0.8 0.3-0.7 0.1-0.7 0.8-0.8 1.8-0.8 1.4-0.2 0.5-1.6 0.9 0.5 0.9 0.3 1 0.4 2.1 0.8 1.1 0.2 1.2 0.5 0.7 1.6-0.2-0.9-1.5 0.9 0.3 1.8 0.1 0.8 0.5 1.6 0.3 1.1 0.8 1.8 1.7 1.5 0.3 1.7-0.2 0.8 0.1 0.6 0.1 0.2 0.8 0.2 0.8-1.6 3.1-5.5 4.2-1.1 0.8-1.3 1.8 0.5 0.5 0.1 0.6-0.2 0.5-0.4 0.6-0.3 0.2-0.9 0.9 0.8 0.9 0.2 0.2 0.1 0 0 0.1 0.1 0.1 0 0.1 1.6 1.8 1.7-0.1 1.9-0.9 1.7-0.4 0.3-0.1 1 1.6-0.4 1.8-0.4 1.6-0.5 1.2-1.8 4-0.2 2.9 0.5 1 0.4 0.8 1.6 0.9 2.1 0.2 0.9 0.3 2.4 1.8 0.5 0.5 4.1 1.8 4.6 7.9 0.7 0.7 0.9 0.5 0.5 0 0 0.1 0.1 0.2-0.5 1.1-1.1 1.4-1.2 1.4-2.7 0.3-2.4-1.2-2.9 0.2 0.5-0.6 0.6-1 1.6-0.1 1.8 0.2 1.2-0.3-0.7-0.2-0.6-0.6-0.5-0.9-2.2-1.2 1-0.5-0.2-1.4-0.8-1.6-0.8-1.1-4.6-4.9-1.1-0.8-3.2-1.5-1.4-0.2-1 0.9-0.6 1.8 0.3 1.7 1.6 0.2-2.2 1.1-0.3 0.3-0.3 0.5-1.6 0.4-0.7 0.3-1 1.1-1.4 1-1.5 0.5-1.5-0.6 0.8-0.2 1.1-0.5 0.9-0.6 0.4-0.7-0.5-1.5-2.4-0.5-0.7-1.2-1.1 0.4-5.6-1.3-0.6-0.3-1.4-1.4-0.4-0.3-0.6 0.1-2.1 0.8-0.6 1.2-0.5 0.2-0.6-0.3-0.5-1.1-0.7-0.3-0.5 0.4-0.2 0.8 0.3 0.8 0.6 0.3 0 0.6-1.3 0.1-1.2 0.7-0.6 1.2 0.3 1.4 1 0.7 1.2-0.2 2.2-1.1-0.7 1.3-2.1 1.7-0.4 1.4-0.6 0.8-1.4 0.5-4.7 0.1-2.2 0.6-9.6 6.2-9.9 4.8-5.8 2.2-1 0.8-0.4 0.3-2.2 0.6-1.6 1-0.8 0.2 0.5-1.3 0.6-1.1 0.4-0.9-0.3-0.7 0.6 0 0.4-0.1 0.2-0.4 0-0.7 0.4 0 0.3 0.7 0.2 0.3 0.3 0 0.4-0.4-0.8-1.1 0.7 0 0.6 0 0.6-0.2 0.1 0.2 0.1-0.2 0.2 0.3 0.1 0.3 0.1 0.1-0.2 0-0.6 0 0 0.6 1.3-0.2 0.3-1 0-1.2 0.6-0.5 1-0.1 0.8-0.4 0.7-0.7 0.5-1.1-0.7 0.3-1.5 1.1-0.4 0-1.1-1.2-0.5-0.7-0.2-1.2-1.3 0.7-1.6 1.4-0.9 1.5 0.5 1 0 0.5-0.9 0-1-0.9-0.5 0.4-0.4 0-0.4-1.8-0.7 1.4 0.3 0.8 2 0.8 0 0.5-0.7 0.4-1.1 0.1-0.7-0.2 0.1-0.8-1.9-0.1-2.4 1.4-2.2 2.1-1.1 2.3 0 0.5 0.3 0-0.5 0.8-0.2 0.7 0.1 0.8 0.6 0.6-0.5 0.8-0.1 0.6 0 0.6-0.2 0.8-0.4 0.3-0.6 0-0.2 0.3 0.5 1.1-0.7 1.2-0.3 0.9-0.4 0.6-1.3 0.2-0.7-0.3-0.7-0.5-0.5 0.2-0.3 1.8 0.6 0.7 0.6 1.8 0.6 0.3 0.7-0.4 0.4-1 0.2-1.1-0.3-0.9 1.2 0.4 0.2 0.9 0 1.2 0.2 1.5-0.6 0.3-0.2 0.4 0.3 0.5 0.5 0.5-0.2 1.2 0.6 1 1 0.6 1.1 0-0.2-0.3-0.1 0-0.2-0.2 0.9-0.6 1.3-1.4 0.7-0.3-0.6 1.3 0.4 1.2 0.6 1.2 0.4 1.2 0 2.8 0.4 3.1-0.6-0.2-0.6-0.4 0-0.5 0-0.8 0-0.4-0.6 1.9 0 1.4 0.5 0.9 1.3-0.2-0.2-0.3-0.1-0.2-0.1-0.6 1.1 1 0.8 1.2 0.6 1.3 0.7 1 0 0.6-0.4 0.1-0.3 0.1-0.2 0.2-0.3 0.2 0.8 1.2 0.8-1.3 0.2-1-0.3-1-0.7-1.3 0.8 0.8 1.1 0.5 0.7 0.6-0.2 0.9 1 1 0.4 0.4 0.6 0.4 1.2 1.5 1.3 1.3 0.7-0.6-0.2 0-0.4 0.1-0.1-0.1 0-0.6 0.9 0 0.9 0.3 0.6 0.6 0.4 0.9-0.1 0.7-0.6 0.9 0.3 0.6-0.5 0.8-0.2 0.4-0.2 0.5-0.3 0-0.5 0.1-0.2 0.9-0.1 2.7-0.4 1.3-0.7 1.4-1.8 2-0.1-0.3-0.2-0.8-0.4-1-0.5-0.7 0.9-1.9 0.2-1-0.2-0.9-0.7-0.3-0.7 0.4-0.5 0.7-0.2 0.5-0.7 1.4 0 0.8 1.5 0.6-0.1 0.6-0.4 0.6-0.7 0.3 0 0.5 0.4 0.1 0.8 0.4 0.4 0-0.4 1.5-1.1 0.8-1.3 0.1-1.1-1-0.6-0.9-1.5-1.5-1.1-0.8-0.6 0-1.5 1.3 0 0.5 0.8 0-1.6 5.8-0.4 3.2 0.4 3.6 0.7 2.7 0.6 1.3 0.5 0.5 0.1 0.9-0.3 5.9 0.2 3.6 1.8 8.2 0.2 2.2 0.2 0.6 0.2 0.5 0.8 1.1 0.2 0.4 0.1 1.7 0.4 1.7 1.1 3 1.2 2.3 1.6 2.3 2.4 2.3 1.2 2.2 1.9 2.1 2.2 1.7 1.5 0.6 3.4 4.6 1.7 1.7 1.8 1.5 1.1 0.6 2.6 0.9 0.1 0 2.8 0.4 1.1 0.7 2.3 1.9 3.9 1.6 0.6 0.9 0.5 0.6 18 15.8 6.8 4.2 1.2 0.5 0.5 0.7 2.8 1 1.6 0.9 0.5-0.3 0.5-0.6 0.3-0.3 0.2-0.1 0.1-0.2 0.2-0.1 0.3-0.1 0.4 0.1 0.1 0.4 0.2 0.4 0.1 0.1 1.2 0.6 0.8 1.4 0.7 1.3 0.6 0.6 1.1 0.3 1 0.7 0.5 1.1-0.4 1.3 8.4 21.6 0.9 1.6 0.3 0.6 0.3 2.9 0.3 0.6 0.7 1.2 1.9 4.1 0.8 2.8 1 6.8 2.3 8.5 2.3 8.2 2.1 5.5 1.2 2.5 3.7 5.9 0.3 1.2 0.4 0.8 8.5 10.3 3.7 3.3 4.2 2.8 1.9 1.6 2.4 4.1 7.7 7.6 2.1 1.3 3.4 1.4 2.3 0.5 1 0.8 0.4 1.2 0.3 3.2 0.4 1.6 0.7 1.1 1 0.5 0.3 0.1 1 0.2 1.2 0.7 2.1 1.7 2 1 4.8 0.9 2.4 0.8 0.8 0.7 1.6 2.1 0.7 0.5 1 0.3 2.4 1.8 1.1 0.6 1.2 0.3 1.3 0.2 6.8 0 7 1.6 2.7 0.1 9.7-1.7 9.5 0.5 14.8-1.8 5 1.3 0 0.1 1.7 0.5 1.2 2.2 1.1-0.1-0.2 1.3 0.4 1.5 0.5 2.9 0.1 1 0 1.4-0.5 0.9-1.1 1.3-1.2 1.1-1.1 0.5-1.2 0.4-1 0.9-1.5 1.9-2.1 1.7-6 3.2-1.5 2-0.5 2.9 0.3 3.2 0.9 2.6 1.3 1.8 1.6 1.6 3.5 2.5 3.8 1.2 0.8 0.7 0.9 0.8 10.9 5.1 9.4 5.1 3.5 1 1 0.8 1 0.9 2.3 1.6 13.9 4.8 1.2 1 0.4 0 0-0.6 0.4 0 1.2 1.3 10.1 3.3 8.5 4.7 4.3 3.2 2 2 2.2 3.3 0.8 0.4 1 0.3 2.1 1.7 3.6 3.9 1 0.5 1.2 0.3 2.1 1.4 5 1.3 0.7 0.4 6 2.5 5.6 4.2 4.6 0.8 2 1-0.1 1.8 0.7 0 1.5-0.5 0.9 0.2 0.2 0.5 0 0.7 0.3 0.8 1.4 1.3 0.2 0.5-0.3 3.5 4.8 4 5.4 3.1 1.1 0.2 0.4 0.3 1.2 2.1 0.7 0.7 1.9 1.7 1.6 2.5 0.8 1.2 1.1 0.5 0.5 0.5 3.9 5.4 3.7 8.9 0.2 0.5 0.3 0.3 0.4 0.2-0.3 0.9 0.2 0.5 0.2 0.5-0.1 0.8-0.4 0.7-1 0.8-0.5 2.3-0.7 0.9-2.2 1.6-1.3 3.3-0.2 0.8-0.2 1.6-0.6 1.7-0.1 0.7 0.4 2 0 0.9-0.8 4 0.2 0.7-0.3 0.2-0.6 1.1-0.3 0.2-1.3-0.1-0.5-0.1-0.5-0.3-2.8-2.3-1-0.3-2.4 0-0.7-0.1-1.5-1-1.4-0.7-1.9-1.7-2.1-1.5-0.8-0.3-0.5-0.4-3.8-5.7-0.7-0.7 0-0.5 0.9-0.1 0.6-0.5 0.1-0.9-0.4-1.1-0.6-0.7-1.6-0.5-0.6-0.4 2-1.3 0.5-1.7-0.8-1.8-1.7-2-1.6-1.3-0.9-1-0.4-1.1 0-1.5-0.1-1.3-0.3-1.1-0.7-0.6 0.7 0 0-0.5-2.9-2.3-0.9-0.4-19.7-1-1-0.3-3.2-1.8-0.5-0.1-1.3 0.2-0.6-0.1-0.4-0.3-1-1.1-0.4-0.2-1-0.3-3.2-1.9-3.3-1.2-1.6-0.8-0.7-1.1 1.3-0.6 1.2-1 0.2-1.3-1.1-1.3 1.1-0.4 2.9 0.5 1.2-0.6 0.4-1.3-1.2-0.1-2.4 0.8 0.1-0.2 0.3-0.3-1.3-0.6-1.1 0.5-1 0.8-1.2 0.4-0.5-0.3-0.3-0.6-0.3-0.7-0.3-0.6-0.6-0.2-1.4 0-0.5-0.2-4.4-0.3-4.3 2-3.7 3.7-2.9 4.2-4.7 6.8-1.3 2.5-1.4 4.5-0.4 0.8-0.8 0.5-2.2 3.7-2.3 2.1-0.9 0.8-1.2 1.8-0.4 2.9 0.1 1 0.8 2.8 1.1 2.4-0.6 0.9-0.9 0.8-1 1.8-2.7 2.6-2 3.7-1 2.5-0.1 2.3 0.7 2.1 1.6 2 0 0.5-0.8 1.9 1.8 2.2 2.6 1.8 2 0.9 7.3 0.4 2 0.6 0.9 0.7 1 0.9 0.9 1.1 0.4 1.2 0.5 0.6 3.5 1.8 2.8 2.3 1 0.3 1.4 0.2 1 0.5 0.7 0.8 0.7 1.1 1.3 1.5 1.8 1.4 2.1 1 2 0.2-2.1 5.2-0.4 4.2-0.1 1 0.2 1 0.4 0.9 1 1.7 0.3 0.9-0.4 2.4-1 4.4 0.1 2.2 1.4 2.8 0.2 0.6 0.4 0.4 2 0.7 0.8 0.2-1.1 0.8-0.6 0.5-0.3 0.5 0 3 0 0.4-1.9 1.8-0.3 0.3-0.4 0.3-0.5 0.7-0.9 1.5-0.5-1.5-1.5-0.3-1.6 0.5-1.2 0.8-1.5-1.8-0.9-0.6-1.4-0.2-1.3 0.1-5.7 1.6-6.5 2.9-2.3 1.8-0.5 0.6-0.5 0.5-3.5 1.8-1.5 1.4-0.7 1-0.6 2.1-0.7 1.2-0.7 1.3-0.3 1.8 0.7 0.5 0.2 0.2-0.1 1.4 0.6 5.7 1.1 5.1 0 1.9-0.4 5.5-0.5 1-2.3 2.1-0.8 1.2-0.7 0.2-1.7 1.5-1.9 0.7-5.6 2.9-2 1.8-8 10-1 2.4-1.6 7.9-0.8 2.3-0.6 1-0.7 0.8-0.7 0.7-0.8 0.5-2.8 0.6-0.9 0.5-3.4-1.1-10.6 0.6-1.6-0.4-1.6-0.8-1.4-0.9-1-1-1.2-1.6-0.6-1.5 0.1-1.4 1.2-1.1-1.5-2.4-0.5-1.3 0.2-1.2 0.8-1.3 0.4-1.3-0.1-1.4-0.5-1.8-0.3-2.6 1.1-1.5 1.9-0.9 6-1.9 0.6-0.6 0.1-0.3 0.9-0.8 0.2-0.4 0.8-3.3 4.4-9.3 0.7-3.2-0.1-2.5-0.9-2.1-1.7-1.9-0.4-0.3-0.8-0.4-0.4-0.3-0.5-0.8-0.1-0.4 0.1-0.4 0.1-0.8 0.4-0.8 1.1-0.6 2.5-0.9 3.7-2.5 2-0.9 2.7-0.2 4.2 0.5 0.9-0.2 1-0.5 1.6-1.3 1.2-2.2 0.9-2.8 0.4-3.2-0.1-3.2-0.3-1.5-0.6-1.1-0.9-0.7-1.2-0.3-0.9-0.6-0.9-1.4-3.3-7.7-2.4-17.8-0.4-2.6-2.3-7.1-2.2-3-1.5-2.7-1.6-1.7-1.7-1.2-0.5-0.9-0.5-1.9-0.5-2-0.8-2.9-1.3-2-0.5-1.3-1-7.7 0 0.5-0.3-1.5-0.3-0.8-0.5-0.3 0-0.4 0.7-3-0.5-1.7-1.9-2.9-0.4-1.1-0.4-1.6-0.9-1.3-2-2.1-1.6-2.7-1.2-1-0.4-0.6 0-1-0.8 0.4-4.4-0.4-1.3 0.8-1 1.6-2.1 1.3-1.8 2.3-1.1 0.4-2.9-0.3-1.1-0.4-1.7-2.3-0.6-0.2-0.6 0.3-0.6 0.2-0.6 0.1-0.7-0.1 0-0.5 1.1-0.9-0.9-2-1.8-2-1.4-0.9-1.2-0.5-3.6-3.9-0.9-0.4-1 0.1-1.7 0.5-1.1-0.2-0.7-0.5-0.8-1.5-1.1-1.1-1.6-0.7-0.6-0.4-0.5-0.6-1.1 0.3-1-0.8-0.6-0.3-0.3-1.3 1.5-2 0.4-1.7-0.4-1.3 0-0.7 0.6-0.4 0.7-0.1 0.6-0.4 0.5-0.5 1.3-0.5 0.3-0.8-0.1-2.2-1.3-2.7-5.1-10.9-1.6-2.6-1.5-2-1.6-1.6-1.6-1.3-1.7-0.5-1.9 0.8-1.8 1.3-0.7 0.2-3-0.2-0.8 0.3-2.4 2.2-1.6 0.3-1.7-0.5-1.7-1-0.9 0.6-2.9 0.7-1.2 1.1-2.7 1.4-0.8 1-0.7-1.1-0.1-1.6 0.6-1.4 1.2-0.7 1.2-0.1 0.5-0.2 0.6-0.6 0.4-0.9 2.3-2.3 1.9-0.7 0.2-1.3-0.3-1.4-0.8-1.1-1.1-0.9-1.2 0.4-1-0.5-0.6-0.4-0.7-0.8-0.9-0.6-1.1-1.3-2.1-2.4-1.1-0.8-1.1-0.1-1.6 0.1-1.4 0.5-0.7 0.9-0.5 1.5-1.3 0-0.9-1.2-1.8-0.2-1.4-0.8-0.9-0.4-0.8 0.2-0.4 0.7 0.1 1 0.2 1 0.1 1-0.4-0.2-1.6-0.2-0.4-0.6 0.6-3.1-0.4-2.9-1.4-3.7-3.3-5.8-2-1.4-0.8-0.7-0.2-0.7-0.1-1.7-0.1-0.8-1.5-3.1-1.9-3.3-3.6-4.6-4.1-3.6-0.7-0.3-1.8 0.4-0.9 0-0.4-0.7-3.6 0.5-1.8 1.2 0.7 2.3-1.9 0.2-0.6-0.2-0.5-0.5-0.3-0.8-0.3-0.3-0.5 0.6-0.4 0-1.1-1.4-9.2-4.3-2.2-0.1-4.8 0.9-1 0.5-2.1 1.4-2.2 0.7-1.4 1.9-1.3 0.4-1.4-0.5-0.4-1-0.2-1.3-0.6-1.3-0.7-1-1.1-2.2-0.8-1.2-3.3-3.9-1.7-1.5-1.9-1.1-1.2-0.4-4.6-0.2-0.8-0.2-4.2-2.7-1.4-0.6-0.7 0.6-0.4 0.8-0.9-0.9-4.4-6.6-5.7-6.8-6.1-5.6-1-0.7-1.5-0.5-0.9-0.8-0.5-0.2-1.8-0.3-0.4-0.2-0.9-1.1-0.5-1.4-0.2-1.5-0.1-1.6-0.3-1.6-0.6-1.5-1.5-2.6-1.3-1.9-5.7-4.4-0.7-0.4-0.5-0.6-0.2-1-0.4-0.6-1.6-0.3-0.6-0.2-0.8-1-0.9-0.8-1.1-0.8-1-0.5-4.6 0.2-0.7 0.1-0.3-1-0.7-1.5-1-1.4-0.8-0.7-0.4-1.1-1.3-1.7-0.3-0.7-0.1-1.2-0.4-1.3-3.2-6.6-1.4-2.2-7-5.5-2.9-0.8-4-2.2-1.5-0.5 0-0.6-0.5-0.3-0.6-0.2-0.7-0.1-0.6 0.1 0.4 0.5-1.7 0-4.3-1.6-0.8-0.1-1.1 0-0.9 0.3-0.4 0.6-0.2 1.2-0.9 1.3-0.1 1-0.6-0.2-0.5 0-0.5 0.1-0.1 0.1-0.4-0.4-0.8-1-1.6-0.5-0.8-1-0.4-1.2 0-0.9 0.7-1 0.8-0.3 1.7 0.6 1.3-0.1 0.9-1.3 0.6-1.9 0-2-0.1-1.2-1.3-2.1-0.4-1.4-0.6 0.1-0.7 0.3-0.5 0.1-0.7-1.1-0.5-1.5-0.6-1.3-1-0.5-0.1-1.5-1.5-1.2-2.8-1.7-0.3-0.9-0.3-1.3-0.3-1.1-0.5-0.5-0.5-0.3-1.7-1.9-3.1-1.6-9.4-3.3 1.5-1.1 0.5-1.3 0.1-1.5 0-1.9 0.1-0.5 0.4-0.4 0.2-0.5-0.3-1.1-0.6-0.8-0.7-0.5-4.1-1.9-2.9-0.8-2.8-0.1-2.6 0.9 0.2 0.8 0.2 0.3-1.6 0.8-1.2-1.3-1.2-3.9 1.4-1.3 0.9-1.4 1.3-4.5-0.2-1 0-1.7 0.2-1.7 0.4-1-0.5-1.4-0.2-1.7-0.1-3.3-0.3-1.7-0.6-1.6-4.7-9.8-3.8-5.2-0.8-1-1.9-0.9-0.5-1.3-1.4-6.1-1.8-19.6-0.7-3-2.4-6-1.8-2.8-2.5-1.9-1.8-3.1-0.9-0.8-1.1-0.3-2.2-1.5-1.2-0.3-0.9-0.5-0.6-0.2-0.3 0.4-0.2 0.4-0.5 0.4-0.5 0.1-0.6-0.4-0.9-0.9-2-1.6-0.9-1.1-0.7 0.4-1.9-1.6-1 0.1 0.4 0.6-0.3 0.1-0.3 0.3-0.2 0.1 0.3 0.7 0.3 0.5 0.5 0.3 0.5 0.2 0 0.5-0.3 0.2-0.2 0.3-0.3 0.7 0.7 0.4-0.2 0.5-0.6-0.1-0.3-1.1-0.4-0.7-2.8-1.3-3-2.7-0.7-0.4-1.6-1.5-0.6-0.4-1.7-0.1-0.7-0.2-0.6-0.3-2-2.4-0.4-0.1-0.4-1-1-0.7-2.6-1.3-0.7-0.5-0.6-0.7-0.3-1.1-0.7 0.3-1.1 0.2-1-0.2-0.4-0.6-0.4-0.8-2.8-1.2-0.4-1.8-6.2-3.5-1.9-1.4-0.5 0.8-0.5 0.9-0.2 1 0.1 1.3-2.7-1.1-1.1-0.8 0.1-1-1.1-1.9-1.6-0.9-5.9-1.1-2.9-1-1.7-1-0.5 0.3-2.7-0.1-1.4-0.3-0.4-0.3-0.7-0.9-3.7-0.3-1.5 0.2-0.7 0.4-1.7 1.4-0.7 0.7-0.4 0.3-0.4 0-0.5 0-0.4 0-3.6 2.6-1 0.2-0.7 0.3-1.5 1.4-4.3 2.9-1.3 1.7 0.3 1.6-0.6 0.9-0.2 0.5 0 0.6-0.2 0.2-0.9 0.6-0.3 0.3-0.3 1 0.1 0.8 0 0.9-0.8 0.9-1.5 0.7-3.3 1.1-1.7 1-0.8 0.8-0.8 0.8-1.4 2.1-0.2 0.6 0.1 1.3-0.1 0.6-0.3 1.3-0.5 0.9-2.7 3.2-1 1.9 0.9 1.7 0 0.5-1.4 0.3-1.7 2-1.5 0.6-0.5 0.4-0.3 0.5-0.2 0.4-0.3 0.6-0.7 0.4-1.4 0.4-4.2 2.8-10.2 2.5-2.9 1.9-2.4 0.6-7.3 0-1.6 0.6-0.8 0-0.4-0.4-0.6-0.3-0.6 0-1.2-3.9-0.3-2 0.9-1.7 2.6-2.8 1.2-1.9 3-2.6 1.3-1.5 0.5-0.9 0.4-1.8 0.4-1 0.7-0.7 0.8-0.7 0.7-0.9 0.1-1.4-0.3-0.5-0.6-1.5-1.3-1.3-0.8-1.5 0.8-2.7-1.8-0.3-2.4 1.6-1.7 0.1-10.2 3-2.3-0.1-0.6-0.1-0.5-0.5-0.4-0.7-0.4-0.6-0.7-0.3-1.6-0.3-1.1-0.5-6.2-3.8-2.4-0.9-3.4-1.8-0.7-0.2-0.8 0-0.7 0.3-0.7 0.1-0.8-0.3-0.6-0.7-0.2-0.7-0.2-0.7-0.4-0.9-0.5-0.6-1.2-0.8-0.5-0.6-0.4-0.6-0.6-1.7-0.5-0.8-1.3-1.5-0.2-0.4-0.3-0.7 0.1-0.4 0.1-0.5 0.5-2.6 0.4-0.7 2-1.1-1.6-1.3-1.7-1.9-1.4-2.3-0.1-2.5 0.6-1.1 3-2.3 2-3.5 0.8-0.7-0.7-1.7 0.5-1.7 1-1.3 1.4-0.8 1.1 0 2.1 0.7 1-0.1-0.3-1-1.8-3.4-0.2-0.7-0.3-2.1-0.7-1.7 0-0.1 0.3-1.4 0.1 0 0-0.4 0.1-0.2 0-0.3-0.1-0.5-0.3-0.4-1-1.1-3-1.3-1 0-2.9 0.5-1.1-0.2-4-2.4-1.9-1.7-1.1-1.7 0.1-4.6-0.3-2.4-1.6-1.2-2-0.1-0.6-0.6-0.7-1.2-0.2-0.8 0.1-0.6-0.1-0.6-1-0.8-1-1.6 0.7-0.9 0.9-0.8 0.1-0.1 2.1-1.2 0.5-0.1 1.1 0 0.4 0 0.5-0.3 1.1-0.9 0.4-0.2 2.1 0.4 2.1 1.1 2.1 0.8 2-0.9 0.1-0.6-0.4-0.3-0.2-0.5 0.3-0.7 0.4-0.2 1.4 0 0.5-0.2 0.9-0.7 1-1.8 0.8-0.8 2.1-0.9 2-0.6 0.5 0.2 0.7 0.9 0.3 0.1 0.4-0.4 1.2-2 1.5-1.4 0-1.3-0.6-1.6-0.3-2.5 0.3-0.5 1.9-2.2 1.2-2.2 0.6-1.3 0-1-0.4-0.4-2.5-1.1-0.8-0.6-0.5-0.9-0.4-1.1-0.4-0.6-0.2-0.3-2.5-1.9-2.7-1.5-0.5-1.2-0.3-3.5-0.2-0.6-0.7-1-0.1-0.7 0.2-0.7 0.7-1.4 0.1-0.5-0.4-1.3-0.7-0.5-1.9-0.5-0.8-0.6-1.3-1.3-0.8-0.3-1.5-0.3-1.6-1.2-1.2-1.8-0.6-3.4-0.2-1.6 0-1.4 0.4-1.4 0.7-1.3 0.9-0.5 1.6-0.5 0.5 0.2 0.4 0.2 0.3 0.6 0.4-0.1 0.1-0.4 0-0.6 0.1-0.4 0.4-0.1 1.4 0 1.3-0.3 1.3-0.7 1.2-1 0.8-1.4 0.4-1.1 0.4-1 0.6-0.8 0.9-0.4z m317.1 168.4l1.9-0.3 1-1.7 0-0.3 0-0.2 0.1-0.2 0.1-0.2 0.1-0.1 0.4-0.8 0.1-1.4-0.2-1.4-0.4-0.8-1.7 0.3-1.8 1-0.6 0.6-0.9 0.9-0.6 2 0.8 1.7 1.7 0.9z m1.4 159.3l0.1 0 0-0.1-0.1 0 0 0.1z m-26.6 384.7l2.3 2.2 0.8 1.1 0.1 1.7-1.4 1.9-2-0.2-2-1.5-1.4-1.7-0.3-0.5-0.4-1.2-0.2-1.2 0.7-0.6 0.3-0.1 0.4-0.3 0.3-0.1 0.4 0.2 0.5 0.7 0.3 0.1 0.5 0.2 0.4 0.2 0.3-0.1 0.4-0.8z m16.1-81.5l0.8 0.1 0.6-0.2 0.5-0.3 0.5-0.1 0.4 0.5 0.9 0.5 1.1 0.5 0.8 0.1-0.7 0.8-0.9 0.1-0.9-0.4-0.7-0.5-0.9 0.4-0.7-0.1-0.5-0.6-0.3-0.8z m190.9-27l1.8 0.2 3.3 1.4 2.1 0.4-0.2 0.6-0.3 0.4-0.5 0.1-0.6-0.1-2.4 1.6-0.8 1-0.4 1-0.2 1 1 0-2.9 4.7-1.5 3.9-6.4 8.1-5.2 8.3-1.2 2.4-1 1.5-1.4 1.2-1.7 2.6-0.4 1 0.1 0.8 0.6 1.4 0.1 0.8-0.2 0.8-0.8 0.8-0.2 0.7-0.2 1.6-0.7 2.1-0.3 1.6-0.9 2.7-2.8 3.4-1.1 2-0.3 1.3-0.1 1.3 0.1 7.3 0.3 1.3 0.4 1 0.4 0.6 4.1 2.3 2.2 0.4 1.1 0.8 0.9 1.2 0.5 1.8-0.9-0.9-0.6 0.3-0.4 0.8-0.5 0.8 0.1-1.3-0.3-0.5-0.6 0-0.8 0.3 0.4 0.9-0.9 1.5 0.6 2.3 1.3 1.6 1-0.8 0.8 0.5 0 0.5-1.1 0.2 0.2 1.1 0.9 1.2 1 0.6 1.4 0.1 0.9 0.5 0.3 1.1-0.3 1.8-0.9-0.5-0.4 0.6 0.1 0.9 0.5 0.5 1.2-0.2 0.5 0.3 0.5 0.9 0.2 1.2-0.4 0.2-0.7-0.2-0.3-0.4-0.3 0.1-2.1 1.1 0.4 0.5-0.5 0.3-0.1 0.2 0.2 0.5 0 0.5-1.4 0.1-1 0.6-0.9 0.6-0.9 0.2-1.3 0.7-0.9 1.4-3 7.7 0 0.8-0.8 0.7 0.3 1.4 1.1 2.4 1 4.4 0 0.9-1.2 1.1-1.2 0.4-1.2-0.4-1.1-0.9-0.8-1.1-0.5-0.5-0.7-0.4-0.8-0.2-0.5 0-0.3 0.5-0.6 0.5-1.5-0.7-2.3-1.6-2.1-0.8-2.1 0.3-3.9 2-0.2-0.6-0.2-0.2-0.7 0.3-1-0.9-3.5-0.5-0.8-1.3-0.7-0.8-3.4-1.3-1.1-0.7-1 0.2-4.6-1.1-0.6-0.8-4.8-10.3-1.5-2.1-5.3-5.2-4.1-2.7-4.8-2.3-2.2-0.4-6.6 0.6-0.6 0.1-1.1 0.7-0.6 0.2-2.5-0.3-3.7-2.9-2.2-0.9-2.5-0.5-2.1-0.9-1.9-1.4-5-4.9-1.7-1.3-2.1-0.6-2.6-0.5-2.1-0.7-1.9-1.2-2.9-2.3-2.5-1.5-1-1.1-0.6-0.3-0.7-0.3-0.7-0.3-1.4-2.8-0.4-0.3-1.3-0.8-0.6-0.9-0.5-0.4-0.7-0.2-0.3-0.2-0.6-1.1-0.3-0.2-7.2-1-0.8 0.4-0.7 0.1-0.5-0.3-0.4-0.7-0.4-1.5-0.2-0.6-1.5-1.6-1.9-0.8-4.7-0.6-4.7 0.1-4.9 0.9-2.3-0.2-1.3-1.3-2.5-4.1-1-1-0.8-0.4-2.3-0.1-1.1-0.5-1-1.3-0.8-1.5-0.6-1.2-0.2-1.1-0.1-1-0.2-0.9-0.5-0.9-0.7-0.8-0.5-1.1 0-0.9 1-0.5 0.1 0.3 0.9-0.5 0.2-0.3-0.1-0.2 0.4-2.1 0.2 0 0.3-1.4 0-0.6-0.1-0.4-0.5-0.8-0.2-0.7 0-0.5 0-0.1 0.1-0.1 1.4-2.8 0.4-2 0.3-1.2 0.1-1.1-0.6-0.8 1.8-0.7 1.5-1.7 1.6-1.3 1.8 0.7 1.8-1.3 0.8-0.9 0.3-1.2 0.3-0.6 0.8 0 0.9 0.3 0.8 0.1 1.2-1.1-0.1-1.9-0.2-1.8 0.7-1.3 0.3 0.9 0.7-0.1 0.7 0.1 0.3 1.3 1.4 3.4 1.6 2.9 0.7 0.6 1.6 0.9 0.7 0.5 0.1 0.7 1.8 1.1 2.5-0.4 4.9-2.2 2-1.6 0.5-0.5 0.1-0.4-0.1-0.4-0.1-0.9-0.1-0.7-0.6-0.7-0.1-0.7 2-1.8-0.3-0.7 0.4-0.6 0.6-0.5 0.7-0.2 0.6 0.1 2 0.8 1.3 0.3 1.7 0 1.3-0.6 0.5-1.7 0.9 0.3 0.7-0.2 0.7-0.3 1.1-0.3 0.8-0.4 0.5-0.1 0.3 0.2 0.1 0.5 0 0.5 0.2 0.3 2.2 1.5 0.3 0.6 0.1 2.4 0.2 0.7 0.9 2.1 7.1-0.6 1.6 1.2-0.1 1.3 0.1 0.7 0.4 0.9 0.6 0.5 1.7 0.7 2.1 1.8 1.7 1.1 2.7 0.5 0.9 0.4-0.3 0.2 0 0.1-0.1 0.3 1.2 0 3.8 0.5 1.3-0.3 2.6-1.4 2.4-0.6 0.8-0.6 0.7-0.7 0.8-0.5 4.1-0.7 0.8-0.8 2.4 1.4 1.2 0.5 1.4 0.1 0.8 0 1.8-0.5 7.2 1 3.4-0.2 3.1-0.9 2.8-1.4 1.9 0.9 2.8-0.6 7.2-2.7 1.9-1.3 1.7-1.7 2.2-2.7 0.6-0.3 2 0.2 1.2-0.1 4.4-1.2 0.8-0.5 0.6-0.2 0.6-0.1 1.6 0.1 0.6 0.3 1 1.4 0.4 0.3 0.7 0 1.5 0.5 1.9-0.1 0.6 0.1 0.2 0.3 0.6 0.9 0.3 0.4 1.2 0.2 1-0.4 1-0.6 3.2-1.1 1.5-2 2.2-4.3-0.2-0.6 0-0.2 0-0.2 0.2-0.6-0.2-0.2 0.4 0 0.2 0.8-0.4 1.8 0.3 0.9 0.7 0.6 1 0.2 1 0 1.7-0.3 4.6-1.6 1.4-0.9 0.6-0.6 2.3-1.1 2.4-2.3 0.9-0.3z m-33-9.8l0 1.1 1 0.5 0.6 0.7 0.5 0.8 0.3 1.1-0.5 0.5-0.7 0.5-1.3-1.3-0.9-1.1-0.2-1.2 0.8-1.6 0.4 0z m-3.4-3.1l-0.5-0.5 0.1-1.3 0.5-1.3 0.9-0.5 1.9 0 0.5 0.5-0.4 1.1 0.4 0.3 0.5 0.5 0.3 0.2 0 0.5-1.6 0 0.3 0.9 0.2 0.3 0.3 0.3 0 0.6-1 0.2-0.8-0.6-0.8-0.8-0.8-0.4z m-2.6-5.6l-0.1 0.8-2.2-1-1.8-1.5 1.3-0.9 2.1-0.1 0.9 0.3 0.6 0.9-0.3 0.3-0.2 0.4-0.3 0.8z m-375.8-39.5l0.1 0.5 0.3 0.2 0.4-0.1 0.4-0.3 0.1-0.2 0.3 0.2-1.1 1-0.3 0.5 0.2 0.6-0.5 1.1-0.5 2.5-0.5 2.1-0.3 0.3-0.6 0.2-0.7-0.1-0.2-0.4-0.1-0.5-0.2-0.6-2.2-3.6-0.9-2.5 0.3-1.6 0-0.6-0.5 0 0-0.5 0.9-1.5 1.5 1 1.8-0.2 1.6 0.3 0.7 2.2z m-8.8-9l0 2.4 0.3 3.1-0.3 1.2-0.9 0.4-1.3-0.1-0.8-0.5 0.1-0.8 0-0.5-1.4-1.5-0.5-1 0.3-1.2 0.9-0.6 2.7-0.5 0.9-0.4z m330.7-115.4l-0.6-0.3-0.9 0.1-0.9 0.3-0.8 0.5-0.5-0.5-1.3-0.6-0.6-0.6 0.4-1.5 0.3-0.7 0.5-0.4-0.1-0.3-0.3-0.7 1.2 0 3.7 1.3 1.2 0.8-0.2 0.5-0.1 0.4 0.3 0.6-0.5 0.3-0.8 0.8z m-332.5-27.6l-1.4 1 0 2.2-0.3 1.7-2.2-0.1 0.5-0.7 0.2-0.8 0.1-0.7 0-0.8 0.4-0.6 0.7-0.8 1.1-1 0.9-0.4 0.1-0.9-0.1-1.1 0.1-0.8 0.4-0.1 1.1 0.2 0.2-0.3 0.1-0.4 0.3-0.4 0.8-0.6 0 0.6 0.1 0.5 0.2 0.5 0.6 0.6 0.2 0.9-0.2 1-0.6 0.7-3.3 0.6z m89 38.8l1.6 1.6 0.4 0.5 0 0.7-0.7 1.4-0.2 0.7-0.2 1.7-0.5 1.2-1.3 2.2-0.9 2.8-0.8 1-1.2 0.4-0.9 0.5-0.7 1-1 2.2-0.8 0.9-1.4 1.3-0.7 1-0.5 1.5-0.1 1.2 0.3 3.2 0.1 0.7 1.4 4 0.6 1 0.9 0.4 0.4 0.4 1.4 1.9 1.2 1-0.1 1.1-2.1 5.8-0.4 2.5 0.6 2 0.3-0.2 0.4-0.3 0.4 0.1 0.1 0.4-0.2 0.8-0.4 0.1-0.4 0-0.2 0.2-0.5 1-0.3 1 0 0.9 0.4 0.8-0.4 0 0 0.5 0.2 0.1 0.3 0.3 0.3 0.1 0 0.5-0.8 0.9-0.5 1.6-0.3 1.9-0.1 1.9 0.1 1 0.3 1.9 0.1 1-0.2 0.8-0.5 1.3-0.1 1.1-0.2 0.4-0.2 0.6-0.3 0.8-0.1 1 0.4 3.4-0.2 2.1-1.4 5 0.9 1.3-0.3 2.4-1.5 4.1-0.7 3.3-0.1 1.1 0.2 1.1 0.5 0.7 1.3 1.1 0 0.4-1.6 0.6-1.5 1.8-0.8 2.1 0.3 1.8-0.4 0.7 0.2 0.4 0.4 0.4 0.2 0.6-0.1 0.5-0.6 1.6-0.1 0.7-0.5 0.7-1.1 0.5-0.9 0.7-0.3 1.5-0.4-0.3-0.3-0.2 0.1-0.4 0.2-0.6-0.9-0.7-0.9-0.1-0.9 0.2-0.9 0.6-0.4 0-0.3-0.7-0.5-0.4-1.2-0.5-1.5-1.8-0.4-0.3-0.5-0.3-1.4-1.5-0.5-0.3-0.6-0.1-0.8-0.4-0.7-0.5-0.5-0.5-0.4 0.5-0.8-0.5-1.1-0.3-2.1-0.2-1.1 0.5-1 1-0.7 1.1-0.2 0.5-1.7-0.6-1.3-1.3-2.4-2.8-0.6 0.4-0.4-0.3-0.5-0.7-0.5-0.4-0.9-0.2-0.6 0-0.1 0.3 0.8 0.3 0 0.6-0.3 0.6 0.4 0.4 0.5 0.2 0.1 0.4 0.1 0 0.6 0.1 1.5-0.3 0.3 0.4 0 0.6-0.1 0.3-2.3 2.6-0.8 1-0.4 1.5-0.2 1.6 0.2 1.5 0.3 1.4 0.5 1.2 0.3 0.5 0.4 0.4 0 0.5-0.9 1.6-0.6 2.6 0.4 0-0.6 0.5-0.2-0.1-0.4-0.4-0.5 1-6 6.1-0.4 0.1-0.6 0.1-0.3 0.2-0.6 1.1-0.5 0.3-0.7-0.2-0.8-0.6-1.3-1.3 0 1.5-0.9-1.4-1.4-1.2-1.6-0.8-1.3-0.1-1.3 0.5-1.5 1.1-1 1.5 0.2 1.5-0.9 0.5-0.3-0.5 0.4-1.4-0.5-0.4-1.1-0.1-0.9-0.2 0-0.5 0.9-1.3 0-1.9-0.7-1.3-1.3 0.4-0.5-4-0.7-3.3-0.5 0-0.4 0.4-1.4-0.7-1-0.2 0.3-0.3 0.5-1.2-0.8-0.6-1.2 0.8-0.1-0.3-0.2-0.4-0.3-1.3-0.5-0.9-0.6-0.4-0.7 0.5-0.3-0.8 0.1-1.9-0.2-0.9-0.4-0.6-0.6-0.3-0.4 0.1 0.2 0.8-0.3-0.3-0.3-0.4-0.2-0.5 0-0.7-0.2-0.8-0.3-0.2-0.4-0.1-0.4-0.2-0.4-1.1-0.1-0.6 0.3-0.6 3-3.4 0.3-1.4-1-1.7 0.1-1.2-2-1.5-0.5-1.5 0.2-0.7 1.1-1.2 0.3-0.6 0.2-1.1-0.1-0.7-0.8-2-0.2-0.3 0-0.3 0.5-0.9 1.6-2 0.8-1.3 0.9-2.5 0.7-1.4-0.4-0.6 0.5-1-0.2-1.5-0.7-3.2-0.2-3.4-0.2-0.8 0-0.5 0.2-0.8-0.1-1.9 0.1-0.5 0.8 0.2 0.5 0.4 1.9 3 1 1 1.2 0.5 1.6-0.4-3-0.9-0.6-0.6 0.2-1.3 0.7-1.3 1-1.2 0.5-0.9-0.4 0-0.2 0.5-0.2 0.4-0.4 0.4-0.4 0.2 0.7-0.7 0.7-1.3 0.4-1.4 0.2-1 0.2-2.5-0.1-0.8-0.5-1.1-1.3-1.6-1.7-1-1.8-0.1-1.6 1.1 0.4 0.5 0.2-0.4 0.2-0.1 0.4 0 0.4 0-0.7 0.5-0.4 0.7-0.5 1.9-0.4-0.5 0.5-0.9-0.4-0.6-0.7-0.6-0.9-0.8-0.2 0-0.1-0.2-0.2-0.5-0.1-0.6 0.2-0.5 0.2-0.5 0.1-0.5-0.5-2.8 0.1-0.9 0.7-1.7 0-0.9-0.7-1.1-0.9 0.5-0.1-0.3 0.4-0.6 1-0.6 0.2 0 1.7-0.1 1.1-0.4 0.4-0.1 0.5-0.4 0.6-0.9 0.5-1.2 0.2-1.1-0.3-1.1-1-2-0.3-1.4-0.2-4.1 1-3.5 0-2.3-0.8-1.8-1.3-1.3-1.5-1-0.4 0.5-1.3-1-0.2-1.6 0.7-4-0.3-1.4-0.6-2-0.8-1.8-0.9-0.8-1.1-0.7-0.5-1.5-0.2-1.9-0.5-1.8-1.2-1.3-1.4 0.1-3 1.8-1.2-0.6 0.6-1.5 0.6-1.1-1.3-0.4-1 0.8-0.6 1.6-0.3 1.7-0.5-1-0.3-1.2-0.4-2 0-0.5 1-0.6 0.9-0.7 0.7-1.1 0.2-1.9 0.2 0 0.2-0.4 0.1-0.4-0.3-0.2-0.8-0.1-0.3-0.2-0.3-0.3-0.9-1.4-0.4-0.5-0.7-0.2 4.4-10.6 0.4-1.2 0-1.5-0.4-1.1-1-0.5-0.8-0.6 0.2-1.3 0.7-1.4 0.5-0.9 0.4 0 0.2 0.9 0.4 0.1 0.6 0 0.4 0.6 0 0.6-0.3 0.9-0.1 1 0.2 0.9 2.6 3.5 1.9 1.1 6.6 1 3.3 0.9 1.3 0.2 1.2-0.2 4.5-2 1.2-1.1 0.9-1.2 0.4-1.1 4-1.9 1.5 0 1 0.1 0.8 0.4 3.4-2.6 1-1.1 2.1-3.6 0.7-0.6-0.1-0.3 0-0.1-0.3-0.2 1.9-0.7 0.6-0.3 0.4-0.5 0.6-1.4 0.3-0.3 0.8-0.4 1-1 0.9-1.1 0.8-1.9 1.1-0.6 4.1-0.5 0.8-0.3 1.6-1.6 0.4 0.6 0.9-1.3 0.4-1.2-0.1-3.2 0.5-1.4 1.1-0.6 1.4-0.4 1-0.5 0.1 0.7 0.4 0.4 0.5 0.1 0.6-0.2 0.6 1 0 2.7 0.6 0.6-0.2-0.4-0.1-0.4 0.1-0.6 0.2-0.7 0.4 0 0.3 1-0.1 0.2-0.2 0.4 0 0.5 0.9-0.1 0.3-0.2 0.4-0.2 0.3 0.4 0.9 0.6 0.2-1.8 0.9 0.3 2.2 2.1 0-0.6 0.5 0.3 0.4 0.2 0.5 0.1 0.6 0 0 0.5-0.3 0.2-0.2 0.3-0.1 0.2-0.2 0.4 0.6 0.3 0.4 0.5 0.4 0.7 0.6 0.6-0.4 0.6 0 0.8 0.4 1.8 0.6-1.6 0.4-0.6 0.6-0.5-0.2-0.3-0.1-0.3-0.2-0.3-0.3-0.2 0.7-0.4 0.7 0 0.8 0.3 0.8 0.1 0.3-0.2 0.3-0.4 0.3-0.1 0.5 0.7-0.4 0.6 0.5 0.4 0.4 0.4 0.3 0.1 0.4-0.4 0.4 0 0.1 0.4 0.1 0 0.2 0.2-0.1 0.9-0.1 0.8-0.4 0.7-0.6 0.8-0.1-0.4-0.2-0.3-0.1-0.4-1 4.7-0.6 1.2 1.2 0-0.4-1.1 1.1-0.5 0.6 0.2 0.2 0.7-0.3 1.2 0.3 0 0.1-0.1-0.1-0.2 0.1-0.2 0.4 0.4 0.1 0.1 0.3 0 0.9-0.9 1.6 0.1 1.7 0.6 1.1 0.7-0.7 0.9-0.9-0.1-1-0.5-0.9-0.3-0.9 0.6-0.3 1.2-0.3 1.4-0.7 1 0.3 1.1-0.8 0.3-2.7-0.3 0 0.4 0.1 0.1-0.5 0.1 0.4 0.9 0.5 0 0.5-0.3 0.6-0.1 0.6 0.3 1.1 0.7 0.3 0.1 1.2-0.3 0.8-0.6 0.9-0.4 1.2 0.2-0.3 0.7-0.4 0.5-0.4 0.4-0.6 0 0 0.5 2.1 1.1 0.4 0.3 0.1 0.9 0.3 0.5 0.5-0.1 0.7-0.5 0.4 0.7 0.5 0.5 0.7 0.2 0.8 0.2-2 0.7-0.6 0.5 0.6 0.9 0 0.5-0.9-0.2-0.8 0.4-0.2 0.7 0.6 0.7 0.1-0.8 0.3 0.9 1.7 2.3 0.4 1.1 0.2 1.4 1.8 3.6 0.2 1 0.3 4.8 0.2 0.8 0.3 0.6 0.3 0.3 0.9 0.1 0.2 0.5 0 0.7 0.4 0.8z m64.7-143.3l1 0.9 0.8 1.8 0.2 1 0.6 0.8-1 0.9-0.8-0.5-2.2-2.3-0.6-1 0.8-0.6 0-1 0.4-0.4 0.8 0.4z m-26.5-36.5l-0.5 0.5-0.3 0.9 0 0.9 0.4 0.9-0.4 1.4-0.6 0.9-0.8 0.6-1 0.4 1.1 0.5 1 1.3 0.3 1.5-0.9 1.1-0.2-0.8-0.5 0-0.6 0-0.7-0.3-0.2-0.5-0.6-1.4-0.2-0.3-0.8-0.5-0.7-0.7-0.8 0-0.7 1.7-0.5-1.3-2.3 1.2-1.2-1-0.3 1.2-0.3 0.5-0.3 0-4.8-0.1-1.3-0.5-1.1-1.1-0.3-2.1 0.6-1.4 1.2-0.9 1.5-0.4 1.3-0.1 0.6 0.1 1.3 0.8 0.7 0.2 1.1 0.1 1.3-0.1 0-0.4-0.1 0-0.3-0.2 0.8-0.5 0-0.6 0-0.1 1 0.1 2.2 0-0.3 1.2 0.7 0.4 0.8 0 0.4-0.2 0.2-0.7 0.5-0.4 0.5-0.4 0.4-0.4 0.6-2 0.5-0.9 0.7-0.4 0.6 0.2 0.5 0.5 0.5 0.8 0.3 0.8z m-35.4-17.7l0.1 0.2 0.1 0.2 0.2 0.2 0.4 1.1-0.7 1.6-1.1 1.3-1.3 0.1-1-1.7 1.3-3.1 1.1-0.6 0.9 0.7z m147.3-191.6l1.2-1.6 1-0.7 1 0.2 1.4 1.3-0.7-0.4-0.8-0.2-1.7 0-3.2 6.2-0.1-0.5 0.5-1.5 1.4-2.8z m29.8 739l0.4 0 0.4 0.4 0.2 0.8-0.3 0.2-0.9 0-0.3-0.2-0.3-0.5 0-0.4 0.4-0.2 0.4-0.1z m87.2-196.1l-0.2-0.9 0.8-0.3 0.2 0.9-0.8 0.3z m13.4-3.2l0.2 0.8 0.4 0.4 0 0.3-0.7 0.1-1.3-0.4-0.5-1 0-0.9 0.2-0.1 1 0.3 0.7 0.5z m-82.5-10.5l1 0 0.6 0.4 0.1 0.3-1.2 1.1-0.7 0.2-0.7-0.3 0-0.6 0.3-0.6 0.6-0.5z m120.8-7l0.4 0.2 0.2 0.3-0.1 0.6-0.3 0.5-0.1 0.4-0.3 0.5-0.4 0.3-0.7-0.2-1.1-1 0-0.3 0.4-0.4 0.5-0.3 0.3-0.3 0.2-0.3 0.4-0.1 0.6 0.1z m-106.1-151.6l0.3-0.4 0.4 0-0.3 0.8-0.7 0.4 0.3-0.8z m-46.8 394.6l0 0.1 0.1 0.5-0.1 0.6-0.6 0.2-0.5-0.1-0.3-0.2-0.2 0-2.3-1-1.1-0.3-0.6-0.3 0.5-0.4 1.2 0 0.7 0.2 2.7 0.3 0.5 0.1 0.1 0.1-0.1 0.2z m-32.2-180l0.3 0.6 0.1 0.7-0.8 0-1.1-0.7-0.6-1-0.4-0.8 0.4-0.5 1-0.1 0.6 0.5 0.5 1.3z m-152.4-248.8l0.3 0.6 0 0.3 0 0.6-0.5 2.1 0.2 0.4 0 0.4-0.2 0.6-0.4-0.1-0.4-0.6-0.5-0.4-0.4 0.2-0.3-0.2 0.7-1.5-0.3-0.5 0.2-0.7 0.4-1.1 0.4-0.6 0.4 0.1 0.4 0.4z m-2.5 0.8l0.2 0.4 0 0.3-2.3 0.5-1.1-0.3-0.2-0.6 0-0.7 0.2-0.3 0.5-0.2 0.4-0.3 0.2-0.5 0.1-0.7 0.3-0.1 0.3-0.1 0.4-0.3 0.4 0.1 0.4 0.6 0.1 0.6 0 0.6 0 0.7 0.1 0.3z m50.8-88.1l0.5-0.5 0.6 0.9-0.2 1.3-1.1-0.3 0.2-1.4z m-12.1-19.9l0.3 0.4 0.1 0.2 0 0.3-0.2 0.6-0.5 0.3-0.8 0-0.8-0.2-0.5-0.5 0.1-0.6 0.6-0.2 0.6-0.7 0.4-1.1 0.3 0 0.2 0.8 0.2 0.7z m131.3-233.6l1 0 1 0.7-0.1 1-0.6 0.3-0.9 0.6-0.9-0.2-0.3-1.1 0.8-1.3z" id="IT" name="Italy">
  </path>
 </g>
 <g id="points">
  <circle class="36.06904243930791|7.1984631952682845" cx="185.5" cy="912.6" id="0">
  </circle>
  <circle class="40.70743086626166|13.155812027880252" cx="534.9" cy="565.3" id="1">
  </circle>
  <circle class="46.50541639995385|17.921691093969827" cx="814.5" cy="95.1" id="2">
  </circle>
 </g>
 <g id="label_points">
  <circle class="Italy" cx="413" cy="243.8" id="IT">
  </circle>
 </g>
</svg>