<?xml version="1.0"?>
    
<!--********* Copyright (c) 2024 Pareto Softare, LLC DBA Simplemaps.com ***************************************
************* Free for Commercial Use, full terms at  https://simplemaps.com/resources/svg-license ************
************* Attribution is appreciated! https://simplemaps.com *******************************************-->

<svg baseprofile="tiny" fill="#6f9c76" height="1000" stroke="#ffffff" stroke-linecap="round" stroke-linejoin="round" stroke-width=".5" version="1.2" viewbox="0 0 1000 1000" width="1000" xmlns="http://www.w3.org/2000/svg">
 <g id="features">
  <path d="M363.9 175.2l2 0.5-0.1 9.3 3.4 1.2 1-1.6 1.9-8.1 2.1 0.2 0.2-2.2 1.9 0.2 1.3-3.7 8.1 0.9-0.6 2.1-3.7-0.6-0.2 2 2.4 0.7-2.4 4.2 1.9 2.5-0.4 4.5 5.5 1.6 3.7 2.9-2.6 4 10.4 5 0.8-0.8 1.6 0.1 1.9 1.5 1 3.5-0.4 1.6-1.4 1.2-2 5.3 2.8 1.8 0.7 0.8 2.1 0.7-1.4 3.9-0.1 0.6 0 0.6 0.1 0.6 0.2 1.9 2.1 1.4-0.7 2.3 0.7 1.6 8.7-2 1 0.6-0.8 2 0.9 0.7-0.6 1-0.2 0.6-1 0.9-0.3 0.7-0.3 0.7 0.2 0.7 0.3 0.4 0.7 0.2 0.5 0.3 0.8 1.1 0.1 0.6-0.2 0.4-0.2 0.5 0 0.5 2.4 2.1 0.8-0.9 0.3-0.4 0.1-0.3 0.1-0.4 0.3-0.3 1.2-1.1 0.2-0.7 0-0.3 0.1-0.3-0.1-0.8-0.1-0.2 0.2-0.9 0.5-0.6 0.2-0.7 0.2-0.2 0.3-0.1 0.3-0.1 0.2-0.2 0.1-0.2 0.2-0.5 0.1-0.3 0-0.6-0.5-0.4 0.1-1.2 0.6-0.7-0.1-0.2-0.1-0.1-0.3-0.2-0.1-0.1-0.1-0.1-0.2-0.7 0-0.3 0-0.3 0.3-0.6 0.2-0.1 0.2-0.2 1.5-0.3 0.5-0.8 1 0-0.3 0.9-0.1 1 0.2 0.4 0.8 0.2 4.7 0 0.5 0 0.4 0.1 0.3 0.2 0.4 0.4-5.5 6.7-0.5 0.1 3.2 6.3 0.2 0 0.3 0 0.4-0.2 0.7-0.6 0.2-0.1 0.3 0 0.3-0.1 0 0.5 0 0.6-0.1 0.5-0.9 2.5-0.3 0.6-0.6 1-0.8 0.7-0.7 0.5-0.1 0.4 0.1 0.4 0.2 0.4 0.3 0.3 0 0.4-0.1 0.7-0.6 2.4-0.3 0.7-0.5 0.8-0.6 1.8-0.1 2.2 0.2 0.9 0.4 0.6 0.3 0.2 0.1 0.2 0 0.3-3.4 7.3-3.1 6.9-7.1 15-2 4.3-0.3 0.5 0.2 0.4 0.3 1.2 0.2 0.6 1.4 1.7 0.5 0.5 0.4 0.2 1 0.1 0.1 0.1 0.2 0.6 0.1 0.2 0.7-0.1 0.3 0.1 0.2 0.1 1.4 1.7 0.9 0.5 1.2 0.3 0.3 0.2 0.2 0.6 0.1 0.7 0.1 0.6 0.3 0.3 0.3 0.3 0.5 0.2 0.5 0.1 0.5 0.1 0.4 0.1 0.9 0.2 0.7 1.1 2.9 6.2 0.3 0.2 0.1 0.1 0.2 0.1 0.3 0 0.3 0.1 0.5 0.8 0.1 0.3 0 0.1 0.4 0.2 0.1 0.2 0.1 0.1 1.3 0.6 0.1 0.2 0.1 0.8 0 0.4 0.2 0.2 2.6 2.4 1.6 1.9 1 0.8 1.2 0.7 0.4 0.4 0.2 0.7 0.3 0.5 0.7 0.1 1.4-0.1 1.1 0.7 1 0.9 1.1 0.8 0.4 4.9 0.6 0.7 0.6 0.9-0.2 0.8-0.7 0.9-0.1 0.6 0.3 0.9 0.2 1.4-0.2 0.8-0.8 1.3 0.2 1.2-0.4 0.7-0.4 0.7-0.2 0.8-0.6 1.1-1.1 1.2-0.2 1.7-0.9 0.6-4-0.9-4.5 2.2-2.4 0.5-0.5 0.2-1.6 1.2-1.2 0.6-0.7 0.8-1.2 0.3-1.3 0.7-2 0.3-4.1 0.2 0 0.7-0.4 1.8-0.6 0.8-0.4 1.9-0.4 5.3-4.9 0.5-2.7 1.1-1.8 0-0.8 0.3-0.2 1.1-2.4-0.6-1.3-1.9-0.8-0.1-1 0.4-0.8 1.3-1 0.6-1.1 0.6-1.4-1.1 0-0.7-0.3-0.7-0.7-0.6-2.5-1.5-2.1-0.2-1.1 0.1-1.2 0.5-0.8 0.2-3.7-0.1-1.3 1.4-1.9 1-2 2.9-0.7 1.3-0.6 0.7-3.3 3-0.9-1.5-0.1-0.4-0.3-1.2-1.1-0.6-1.4-0.5-2.1-0.1-1.3-0.6-2.1-0.1-1.8-1-2.7-1-1.3-1.9-1.3-1.5-1.2-0.9-5.5-2.9-0.8 1.2-3.6 8.7-1.1 0.3-0.3 0.7-0.2 0.4-0.1 0.6 0 0.6 0 1.1-0.3 1.4 0 0.1 0.1 0.2 0.2 0.4 0.5 1.4-0.7 1.3-0.7 0.1-1.7 2.1-0.8 1.3-1.7 1.2-1.8 0.5-1.9-0.4-1-0.4-1.2-0.3-1.1 0.4-1.3-0.3-0.9 0.2-1.5 0.7-0.9 1.7-1.6 1-1.4 1.1-1.2 0.2-2.3 0.8-0.9 1.3-0.6 0.6-0.5 0.4-1.3 0.6-0.6 1.9-1.6 3.3-2.3 1-1.3 0.4-1.7 0.2-2.2 0.8-1.3 1.4-0.3 1.4-0.2 1.9-0.6 1.8-2.4 2-2.9 0.1-1.1-0.5-0.7-0.1-1.7 0.8-2 0.4-1.3-1.2-0.6-0.3-0.7-1.1-0.7-0.8-0.9-1.2-0.7-0.5-0.7-0.4-0.7-0.6-0.7-0.9-0.4-1.9-1.4-3.1-0.9-2.6-0.5-2.3 0.1-1.6 0.8-0.6 0.9-1 2.2-2.9 0-1.4-0.4-0.8-0.4-0.8-0.5-0.4-0.9 0.1-1.8 1.9-0.9 0.5-0.9 1.3-2.7 2.2-1.7 0.5-2 0-0.7 0.6-1.4 0.6-0.8 1.1-0.9 0.4-0.6 0.1-0.7-0.3-0.6 0.5-0.3 1.2-0.6 1.4-0.2 1.1 0.4 1 0.1 0.2 0.1 0.1 0.1 0.2-0.1 0.3-1.7 0.8-1.8-1.9 0.4-3.3 0-0.8-1.2-2.2-0.3-0.6-0.1-0.9-0.3-1.8 0.6-1.1 1.3-1.3 0.1-0.3-0.2-1.9-0.3-0.8 0-0.2 0.1-0.5 0-0.3-0.1-0.3 0-0.4 0.1-0.7-0.1-0.2-0.1-0.1-0.4 0-0.2 0-0.2-0.1-0.1-0.1-0.1-0.2-0.3-0.5-0.1-0.1-0.2-0.2-0.1-0.1-0.2 0-0.1-0.1-0.2 0-0.1 0.1-0.2 0-0.1 0.1-0.2 0.1-0.2 0-0.1-0.1-0.3-0.3-0.2-0.1-0.2 0-0.3 0-0.2-0.1-0.2-0.3-0.5-1.1-0.3-0.4-0.3-0.2-0.9-0.4-0.1-0.3 0-0.5 0.5-1.8-0.2-0.1-0.4 0.2-1 0.8-0.5 0.3-0.3 0-0.1-0.1-0.2-0.1-0.1 0-0.2 0-0.2 0-0.3 0.2-0.1 0.1-0.2 0-0.2-0.1-0.1-0.1-0.2-0.2-0.3-0.2-0.5-0.3-0.4-0.1-1.5-0.1 0.5-2.3 0.6-1.2 0.2-1.6-0.6-3 0.2-0.8 0-1.4 0.2-0.7-0.2-0.8-0.3-0.6-0.2-0.8-0.8-0.7-0.2-0.8 0-1.4-0.6-3.3 0.2-1.1 0-0.5-0.3-0.5-0.8-1-0.6-1.7-1-6.5 0.7-2.4-0.7-2 1-1.4 0-4.1-2.9-1-1.3-1.4-0.8-1.3-1-1.4-1.3-1-1.8-1-2.1-1.6-1.6 0.1-0.9 0.8-0.4 1-1.6-0.9-0.5 1.1-0.9 1.5-0.8 2.7-1.2 2.3-1.4 2.1-1.4 0.8-1.3 0.6-1.1-0.5-0.8-0.4-0.5-0.5-0.5-0.2-0.5-0.1-0.5 0.1-0.7 0.5-0.8 0.9-0.7 2.4-1.8 1.7-0.4 2.5-1.5 1.9-0.2 3.7-1.6-0.5-0.5-0.8-0.1-0.1-0.3-0.8-0.1-0.3-0.4-0.6-0.6-1.5-0.4-0.6-2-2.9-1.7-3.4-0.1-0.5-0.3-1.2-0.3-1.2-1.8-2.4-0.8-1.5 0.1-1.3-0.7-0.9-1.7-3.1-0.2-0.8-0.6-0.6-1.9-3.4-0.1-0.3-0.1-0.9-0.2-1.1-0.2-0.3 0-0.9-1.6-2.7-0.4-1.2-0.1-1.3-0.7-2.8-1.9-4.3-0.2-1.2 0-0.2-0.2-0.2-0.1-0.2-0.1-0.4 0-0.3-0.8-2.8 0.2 0-0.1-0.5 0-0.9-0.1-0.5-0.7-1.9 0-0.4-0.4-0.3-0.2-0.8-0.1-1.3-0.9-2.4-0.2-0.4-1.1-3.4-0.1-0.2-0.6-0.6-0.1-0.3-0.1-0.2-0.6-0.6-0.6-2.1-0.1-0.3-0.4-0.3-0.1-0.3 0-0.8-0.1-0.3-0.2-0.5-0.3-0.8-0.1-0.8 0.1-0.6-0.4-0.8-1.9-1.6-0.3-0.5-0.4-1.3-0.3-0.4-1.3-1.9-2-1.7-0.3-0.8-0.3-1.2-0.2-1.2 0.1-0.7-0.1-0.2-0.3-0.6 0-0.2-0.1-0.2-0.3-0.1-0.3 0-0.1-0.1-0.7-1.4-0.5-0.4-0.7-0.8-0.1-0.2 0.3-0.2 0.2-0.5 0.1-0.5-0.1-0.4 0.6-0.2 0.8-0.6 0.8-0.4 1.1-0.3 0.6-0.6 0.7-0.7 1-1 0.3-0.1 0.2 0.2 0.2 0.3 0 0.5 0.2 0.3 0.5 0 0.6-0.5 0.1-0.2 0.4-0.5 0-0.1 0.3-0.5 0.1-0.5 0-0.1 0-0.7 0.1-0.4 0.1-0.3 0.4-0.3 0.3-0.3-0.1-0.4-0.1-0.2-0.4-0.6-0.2-0.3 0-0.1-0.2-0.5-0.1-0.6 0.1-0.7 0.3-0.1 0.2-0.1 0.3 0.1 0.3 0.2 0.3 0.1 0.3-0.2 0-0.4-0.2-0.4 0-0.1-0.2-0.2-0.1-0.3 0.1-0.3 0.1 0 0.1-0.1 0.6 0 0.5-0.1 0-0.2 0-0.1-0.5-0.6-0.1-0.2 0-0.2 0.2-0.1 0-0.1 0.1 0.1 0.1 0.1 0.1 0 0.5 0 0.1 0.1 0.1 0 0.3-0.3 0-0.1 0-0.4 0.1-1 0.1-1.2 0.1-0.1 0.3-0.3 0.2-0.3 0.2-0.1 0.2 0 0.3 0.4 0.3 0.1 0.4-0.2 0.4-0.4 0.3-0.1 0.8 0.2 0.2-0.2 0.2-0.1 0.6-0.5 0.3-0.1 0.6-0.2 0.3 0 0.4 0.2 0.4 0.5 0.3 0.6 0 0.1 0.1 0.1 0.3 0.5 0.6 0.2 0.7 0.3 0.3 0.5 0 0.8-0.1 0.8 0 0.1 0.2 1.4 0.6 0.8 0.9 0.2 1.9-0.4 0.8-0.1 0.3 0.2 0.1 0.4 0.1 0.3 0 0.1 0.1 0.3 0.3 0.4 0 0.2 0.1 0.2 0 0.3 0.1 0.4 0.1 0.2 0.1 0.2 0.5 0.6 0.1 0.4 0 0.1 0.1 0.6-0.1 0.9-0.2 0.8-0.5 0.4-0.5 0.1-0.2 0.1-0.2 0.2-0.1 0-0.4 0.5-0.1 0.5 0.2 0.6 0.8 1 0.2 0.8 0.2 0.6 0.1 0 0.6 0.2 0.4 0.2 0.3 0.7-0.1 1.3-0.4 1.5 0 1 0.3 0 0.8 0.1 0.6-0.1 0.2 0 0.3-0.1 0.3-0.1 0.7-0.1 0.5 0 0.6-0.2 0.6-0.2 0.5-0.1 0.4 0.3 0.1 0.2 0.1 0.5-0.1 0.8 0.2 0.7 0.2 0.1 0.4 0.2 1 0.3 0.2 0 0.2-0.1 0.2-0.1 0.6-0.4 0.4-0.1 0.7-0.1 0.2 0 0.6 0.1 0.7 0.2 3.7 0.8 1 0.4 1 0.7 0.9 0.7 1 0.8 0.8 0.5 0.3 0.1 0.7 0.2 1 0.4 0.8 0.3 0.1 0 0.4 0 1.1-0.4 1.2-0.2 0.7-0.1 0.7-0.1 0.7 0.1 0.2 0.1 0.6 0.2 0.3 0.1 0.3 0 0.2 0.1 0.1 0 0.2 0 0.2 0 0.4-0.2 0.2-0.1 0.4-0.1 0.6-0.1 0.1-0.1 0.3-0.2 0.1 0 0.2 0.1 0.3 0.3 0.2 0.1 0.6-0.2 0.4-0.2 0.7-0.4 5.7-0.8 0.8 0.1 0.2 0 0.8 0.1 0.1 0 4.3 0.7 0.1 0.1 0.4 0.3 0.7 1.2 0.2 0.3 0.1 0.1 0.2 0.1 0.3 0 0.5 0.1 0.3 0 0.3 0.1 0.1 0.2 0.5 0.6 1.2-0.1 1.2-0.4 1.7-0.9 0.2-0.2 0.4-0.5 0.2-0.2 0.9-0.1 0.4-0.2 0-0.3 0-0.1-1.1-1.9-0.2-0.7 0-0.1 0-0.1 0.1-0.6 0.5-0.9 0.4-0.5 0.3-0.3 0.5 0 0.6 0.5 0.1 0 0.1 0 0.1 0.1 0.1 0 0.4-0.2 2.4-0.6 0.6-0.3 0.5-0.4 0.4-0.5 0.6-2 0.2-0.6 0-0.1 0.2-0.3 0.3-0.1 0.2-0.1 0.2-0.7 0.2-0.2 0.2-0.4 0.2-0.2 0.2-0.3 0.2-0.1 0.1-0.1 0.3-0.1 0.1 0 1.5-0.1 1.4-0.1 0.5-0.3 0.3-0.2 0.2-0.2 0.7-0.3 1.5-0.1 0.8-0.2 1.4-1.2 0.7-0.5 0.4 0 0.9 0.1 0.3 0 1-0.3 0-1 0-1.3 0-1.9 0-1.9 0-1.9 0-1.8 0-1.9 0-1.9 0-1.9 0-1.9 0-1.9 0-1.8 0-1.9 0-1.9 0-1.9 0-1.9 0-1.8 0-1.9 0-1.9 0-1.9 0-1.8 0-1.9 0-1.9 0-1.9 0-1.8 0-1.9 0-1.9 0-1.8 0-1.9 0-1.9 0-1.8 0-1.9 0-1.8 0-1.9 0-1.9 0-1.8 0-1.9 0-1.8 0-1.9 0-1.8 0-1.9 0-1.9 0-1.8 0-1.9 0-1.8 0-1.9 0-1.8 0-1.9 0-1.8 0-1.8 0-1.5 0-0.2 0-0.2 0-1.8 0-1.9 0-1.8 0-1.9 0-1.8 0-1.8 0-1.9 0-1.8 0-1.9 0-1.8 0-1.8 0-1.9 0-1.8 0-1.8 0-1.9-0.1-0.4 0.2 0.5 0.2 0.3 0.2 0.1 0.3 0.3 0.6 0.9 1.5 1.2 0.8 0.9 0.3 0.2 0.3 0.1 0.6 0 0.3 0.1 0.4 0.3 0.5 0.3 1.4 0.8 3.8 3.2 0.3 0.4 0.2 0.4 0.2 0.5 0.6 1.1 0.7 1.2 0.1 0.1 0.1 0.4 0.2 0.3 0 0.5-0.3 0.6 0.3 0.4 0.5 0.3 0.2 0.1 0.1 0.1 0.3 0.1 0.1 0.8 0 0.2 0.2 0.2 0.3 0.2 0.1 0 0.1 0.1 0.2 0.2 0.1 0.3-0.1 0.2-0.2 0.2 0.1 0.2 0.1 0.3 0.1 0.1 0.2 0.3 0.1 0.3 0.2 1 0.2 0.3 0.5 0.4 0.9 0.4 0.1 0.3 0.1 0.6 0.5 0-0.1 0.2-0.1 0.4 0 0.4 0.3 0.1 0.3-0.1 0.2-0.2 0.3 0 0.1 0.1 0.3 0.3-0.2 0.1-0.5 0.3-0.2 0.1-0.2 0.5 0 1 1.3 1.1 0.2 0.9-0.2 0.3-0.6 0.4-0.2 0.3 0.1 0.3 0.3 0.1 0.4 0.1 0.2 0.2 0 0.4-0.2 0.7 0 0.3 0.2 0.4 0.8 0.3 0.3 0.3 0.3 0.6 0.6 2.2-0.3 0.6 0 0.3 0.4-0.1 0.3-0.2 0.1 0 0.1 0.1 0.3 0.3 0 0.1 0.8 2 0.2 2.9 0 2.3 0.1 0.6 0.5 1 0.2 0.5 0.4 0.5-0.1 0.5-1.3 1.9-0.6 1.2-0.6 1.2-1.8 2.2-0.8 1.7-0.4 0.5-0.9 0.6-0.2 0.4-0.3 1.8-0.1 1 0.1 0.8 0.1 0.2 0 0.2 0.2 0.3 0.3 0.4 0.2 0.5 0 0.1 0 0.1-0.1 0.1 0 0.5-0.6 2.2 0 1 0.1 1.2 0.3 1.1 0 0.1 0.1 0.1 0.4 0.9 0.1 0.1 0 0.1 0.2 0.2 0.3 0.2 0.2 0.1 0.2 0.4 0.1 0.2 0.3 0.8 0.1 0.4 0.1-0.1 0.4-0.3 0.2-0.2 0.7-0.3 1.2-0.6 0.1-0.1 0.3-0.2 0.8-0.5 0.2-0.2 0.1 0 0.7-0.4 0.5-0.1 1.1-0.1 1.3 0.5 1.2 0.8 0.4 0.1 0.8 0.2 2.6 0.6 0.1 0 0.9-0.1 1.1-0.3 1.3-0.3 0.2-0.1 0.4 0 0.9 0.1 0.4 0 0.7-0.2 1.1-0.3 0.7-0.2 0.3 0 0.7 0 0.3 0 0.7 0.1 1.5 0.6 1.1 0.1 0.5 0 0.3 0 0.6 0 0.9 0.2 0.9 0.3 0.6 0 0.1 0 0.5-0.2 0.1-0.1 1.7-1.1 0.5-0.5 0.3-0.6 0.2-0.6-0.1-0.7-0.2-1.5 0-0.5 0.3-0.3 0.3-0.1 0.3-0.2 0.2 0 0.1 0 0.9-0.2 0.3 0 2.6 0 1.1-0.3 0.7-0.2 0.9-0.5 0.9-0.6 0.3-0.3 1.2-1.2 0.5-0.8 0.2-0.3 0.4-0.6 0-0.1 0.4-0.9 0-0.2 0.6-1.5 0.4-1 0.1-0.1 0.9-1 0.3-0.3 0.3-0.6 0.3-0.2 1.4-0.3 0.4-0.1 0.5-0.3 0.2-0.1 0.7-0.7 0.4-0.4 0.5-0.4 0.2-0.4 0.8-1.1 0-0.1 0.6-0.5 0.5 0 0.5-0.1 0.1 0 1.2 0.3 0.5-0.3 0.6-0.8 0.4-1 0.1-0.2 0.1-0.2 0.2-0.2 0.6-0.4 0.3-0.3 0.1 0 0.4 0.1z" id="ZANC" name="Northern Cape">
  </path>
  <path d="M588.2 343l-0.1-0.1-0.4-0.3-0.1-0.1-0.1-0.1 0-0.2-0.1-0.5 0-0.2-0.1-0.2 0-0.1-0.2-0.1-0.4-0.1-0.1-0.1-0.1-0.2-0.1-0.2 0-0.7-0.1-0.3-0.1-0.3-0.1-0.4 0-0.3 0-0.2 0-0.2 0-0.3-0.1-0.3-0.4-0.4-0.7-0.6-0.3 0-0.2-0.3 0-0.2 0-0.2-0.1-0.2 0-0.1-0.1-0.2-0.1-0.1-0.2-0.1-0.7 0-0.2-0.1-0.2-0.1-0.2-0.3-0.2-0.1-0.1 0-0.1 0.1-0.2 0-0.2 0-0.2-0.1-0.1-0.2-0.1-0.2-0.1-0.2-0.1-0.2-0.3-0.2-0.1-0.2-0.1-0.2 0-0.2 0-0.2-0.1-0.1-0.3 0.1-0.1 0-0.2 0.1-0.3 0-0.3-0.1-0.5-0.3-0.7-0.6-1.1-0.6-0.4-0.4-0.1-0.2-0.1-0.2-0.2-0.1-0.6 0-0.2 0.1-0.2 0.1-0.1 0.1-0.1 0-0.4-0.2-0.4-0.2-0.7-0.3-0.5-0.1-0.3-0.2-0.3-0.1-0.2 0-1 0.2-0.2 0-0.2 0-0.3-0.1-0.7-0.6-1-0.3-2.1-1.5-0.1-0.1-0.2 0-0.2 0-0.2 0.1-0.1 0.1-0.6 0.4-0.1 0-0.2 0.1-0.2 0-1.3 0-0.2 0-0.1 0.1-0.3 0.3-0.1 0.1-0.1 0.1-0.2 0.1-0.2 0-0.2-0.1-0.7-0.3-1-0.6-1.2-0.4-1 0.7-1.4-0.9-0.7-1 1.4-0.9-0.6-0.8 0.2-0.7 0.7 0 0.6-1.7 0.2-0.9 0.6-0.6 0.4-0.4 1.3-0.4-0.1-0.6 0.6-0.2 0-0.8 0-1.1-1.1-1.6-0.7 0.2 0.3 0.9-0.5-0.2-1.6-0.4-0.5-0.6-0.8-0.8-0.3-1-0.3-0.7-0.3-0.7 0.5-0.8-0.1-1.1 0.1-0.1 0.1-0.2 0-0.3 0.1-0.3-0.1-0.3-0.2-0.2-1.2-1.2-1.5-1.9-0.2-0.3 2.3-1.5 0.4-0.2 0.8-0.2 0.3-0.2 0.2-0.3-0.1-0.3-0.3-0.6-0.1-0.5 0-0.3 0-0.3-0.4-0.3-0.4-0.6 0-0.8 0.1-0.9 0.1-0.8 0-0.1 0.5-1 0.4-0.9 0.5-0.9 0.9-0.7 2.2-0.7 0.4-0.4 0-0.6 0-0.5 0.5-0.4-0.4-0.5-0.2-0.8 0-0.1 0-0.8 0.2-0.7 0.6-0.6 0.9-0.4 0.9-0.3 0.7-0.3 0.4-0.3 0.2-0.3 0.2-0.4-0.1-0.5 0.1-0.5 0.5-0.8 0.2-0.5-0.1-0.2-0.4-0.4-0.2-0.2 0-0.2 0-0.5 0-0.2-0.3-0.8-0.8-1.1-0.4-1.2-0.2-0.6-0.4-0.4-0.4-0.4-0.4-0.4-0.1-2-0.9-0.3-1.2-0.1-1-0.3-2.4-2.6-1.1-0.4-0.6-0.2-0.4-0.3-0.2-0.4 0-0.7-0.3-0.3-0.6-0.3-0.7-0.2-0.5 0-1.6-1.7-1.2-2.1-0.4-0.4-0.4-0.4 0.2-0.4 0.7-1.6 0.1-0.6 0.1-0.3 0.1-0.2 0.8-0.7 0.1-0.1 0.1-0.2 0-0.3 0-0.7 0.1-0.3 0.1-0.2 0.6-0.5 0.4-0.6 2.1-0.8 1.5-0.3 0.2 0 0.7 0.3 0.2 0 0.3 0 0.3-0.1 0.5-0.2 0.3-0.1 0.3-0.1 0.2-0.2 0.1-0.4 0.1-0.3-0.1-0.2-0.1-0.2 0-0.1-0.1-0.2 0.1-0.1 0.1-0.4 0.3-0.4 0.7-0.7 0.1-0.1 0.5-0.2 1.6-0.3 1-1.2 0.1-0.2 0.2-0.1 0.4-0.2 0.8-0.3 0.5-0.3 0.4-0.4 2-2.6 0.2-0.1 0.3-0.2 0.4-0.1 1.7-0.1 0.4-0.1 0.1 0 0.1-0.2 0.2-0.3 0.4-0.9 0.2-0.4 0.4-0.4 0.8-0.6 0.2-0.5 0.2-1-0.2-0.6-0.1-0.3-0.1-0.1-0.1-0.2-0.7-0.5-0.1-0.1-0.1-0.1-0.1-0.2 0-0.2-0.1-0.2 0.1-0.3 0.1-0.4 0.4-0.9 0.3-0.6 0.2-0.1 0.1-0.1 0.1-0.2 0-0.3-0.1-1.2 0.1-0.3 0-0.2 0.2-0.3 0.3-0.4 0.3-0.5 0.4-1.4 0.2-0.2 0.1-0.2 0.1-0.1 0-0.2 0-0.3-0.1-0.2-0.3-0.3-0.1-0.4 0-0.5 0.1-1.3 0-0.2 0-0.2-0.1-0.2-0.1-0.2-0.4-0.5 0-0.2-0.1-0.1 0-0.2 0-0.2 0.1-0.3 0.1-0.2 0.2-0.2 0.3-0.2 0.1-0.1 1.7-0.9 0.1-0.1 0.1-0.3 0-0.4-0.1-0.8-0.1-0.4-0.2-0.3-0.1-0.1-1-0.3-0.2-0.1 0-0.2 0-0.2 0.1-0.5 0-0.2 0-0.2 0.1-0.3 1.4-0.7 0.8 0.3 0.3-0.1 0.2-0.3 0.3-0.4 0.3-0.6 0.1-0.6 0.1-0.2 0.2-0.3 0.2-0.2 0.2-0.1 0.3-0.1 0.5 0 1.2-0.4 0.2 0 0.2 0 0.1 0.1 0.3 0.2 1.6 0.3 0.2 0 0.2-0.1 0.5-0.4 0.5-0.2 2.3 0.6 0.6-0.1 0.1-0.3 0.1-0.1 0.1-0.1 0.1-0.1 1.6-0.7 0.3-0.1 0.9-0.7 0.5-0.4 0.5-0.1 0.3-0.1 0.3-0.2 0.2 0 0.2-0.1 0.7 0.1 0.2-0.1 0.3-0.4 0.3-0.2 0.2-0.1 0.2 0 0.6 0.1 0.1 0.1 0.1 0.1 0.1 0.2 0 0.4 0 0.2 0.1 0.1 0.5 0.3 1.7-0.3 2.2 0.3 0.6 0 0.4-0.5 0.3-0.2 0.4-0.2 0.8-0.2 0.6-0.1 0.3 0 1.1 0.3 0.3 0.2 0.4 0.3 0.2 0 1.1 0.6 0.7 0.4 0.4 0.2 0.3-0.1 0.3-0.2 0.3-0.2 1.2-0.3 0.4 0.3 0.4 0.5 0.7 0.6 0.8 0.1 2.4-0.7 0.4-0.1 0.9-0.2 1.4 0 1-0.9 1.7-2.2 1.1 0.4 2.3 0.8 3 1 2 0.4 3.3 0.1 4.3 0 2.8 0.1 2.7 0 0-0.4-0.1-0.4-0.1-0.4-0.2-0.3-0.2-0.5-0.1-2.5 0-0.6-0.1-2.1 0.6-3 0.4-2.8 0.5-2.9 0-1 1.9 0 0.5 0.1 0.8 0.7 0.4 0.2 0.9 0.2 1.5-0.2 0.9 0.1 2.1 0.3 1.7 0.3 3.5-0.1 3.8-0.1 4.2-0.1 4.6-0.2-0.4 1.4-0.5 4.3-0.5 2.2-0.1 0.7-0.1 0.7-1.1 1.5-0.1 0.3-0.1 0.9-0.1 0.3-0.2 0.5-0.2 0.9-3.1 8.8-2 9.9-0.1 0.7 0 0.4-0.3 0.8-0.1 0.3 0 0.4 0.2 0.7 0 0.3-1.4 8.4-0.2 0.6-2.5 3.9-0.2 0.6-0.1 0.8-0.3 0.7-0.5 0.5-0.7 0.2 0.1 0.3 0.1 0.1 0.2-0.1 0.2-0.1 0.3 1.2-0.4 1.2-0.5 1.3-0.2 1.1-0.4 0.5-2.5 2.7-0.4 0.3-1 0.5-0.4 0.2-0.3 0.4-0.5 1-0.4 0.5-3.3 2.8-0.8-0.7-1.1 0.2-0.7 0.7 0.6 0.9 0.3-0.2 0.4-0.4 0.4-0.2 0.5-0.1-0.5 1.1-1.2 1-3.7 1.9-1 0.3-1.2-0.1-1.3-0.2 0 0.2 0.1 0.2 0.1 0.2 0.2 0.1 0 0.2-0.9 0.5-5.8 6.7-1.4 1.3-0.5 0.2-0.1 0.1-0.1 0.2-0.1 0.6-0.1 0.1-0.4 0.3-1.2 1.6-0.4 0.4-1 0.6-0.4 0.4-0.1 0.3-0.2 0.7-0.4 0.3-0.2 0.2-0.2 0.3-0.3 0.6-3.9 5.4-3.9 7.8-0.3 1.4 0.3 1.3-1.2 0-0.2 0.3-0.2 0.9 0.5-0.3 1-0.3 0.4-0.4 0 0.2-0.1 0.3-0.1 0.2-0.3 0.5-0.7 0.9-3.1 2.8-0.9 1.1-1.4 2.5-1.7 3.9-4.3 7.7-0.6 1.4-0.1 0.5-0.2 0.5-1.4 1.5-5.1 9.4-0.8 1.3-0.5 0.5-0.4 0.2-0.4 0.3-0.9 2-2.8 3.7z" id="ZAKZN" name="KwaZulu-Natal">
  </path>
  <path d="M447.9 327l-1.1-0.8-1-0.9-1.1-0.7-1.4 0.1-0.7-0.1-0.3-0.5-0.2-0.7-0.4-0.4-1.2-0.7-1-0.8-1.6-1.9-2.6-2.4-0.2-0.2 0-0.4-0.1-0.8-0.1-0.2-1.3-0.6-0.1-0.1-0.1-0.2-0.4-0.2 0-0.1-0.1-0.3-0.5-0.8-0.3-0.1-0.3 0-0.2-0.1-0.1-0.1-0.3-0.2-2.9-6.2-0.7-1.1-0.9-0.2-0.4-0.1-0.5-0.1-0.5-0.1-0.5-0.2-0.3-0.3-0.3-0.3-0.1-0.6-0.1-0.7-0.2-0.6-0.3-0.2-1.2-0.3-0.9-0.5-1.4-1.7-0.2-0.1-0.3-0.1-0.7 0.1-0.1-0.2-0.2-0.6-0.1-0.1-1-0.1-0.4-0.2-0.5-0.5-1.4-1.7-0.2-0.6-0.3-1.2-0.2-0.4 0.3-0.5 2-4.3 7.1-15 3.1-6.9 3.4-7.3 0-0.3-0.1-0.2-0.3-0.2-0.4-0.6-0.2-0.9 0.1-2.2 0.6-1.8 0.5-0.8 0.3-0.7 0.6-2.4 0.1-0.7 0-0.4-0.3-0.3-0.2-0.4-0.1-0.4 0.1-0.4 0.7-0.5 0.8-0.7 0.6-1 0.3-0.6 0.9-2.5 0.1-0.5 0-0.6 0-0.5 0.3-0.4 0.3 0 0.3 0.1 0.3 0 0.4-0.4 0.4-0.6 0.6-1.1 0-0.2-0.1-0.2 0-0.2 0.8-1.5 0.1-0.2 0.3-0.1 0.4-0.1 0.7 0 0.1-0.1 0.3-0.5 0.2-0.1 0.4-0.2 0.5-0.6 0.4-0.6 0.2-0.4-0.2-0.5 0-0.3 0.3-0.2 0.1-0.1 0.5-0.7 0.3-0.2 0.3-0.1 0.3 0 0.4 0 0.4-0.1 0.2-0.1 2.2-2 0.4-0.3 1.9-0.5 0.2-0.2 0.1-0.2 0.2-0.1 0.2 0.1 0.3 0.1 0.1 0.1 0.3-0.1 0.6-0.3 0.1-0.1 0.2-0.1 0.3-0.4 0.2-0.2 0.4 0 0.3 0.1 0.6 0.4 0.3 0.1 0.2 0.1 0.2-0.1 0.2-0.1 0.3-0.3 0.1-0.2 0.8-0.7 3.1-1.7 0.7-0.1 0.2 0.2 0.4 0.4 0.4 0.5 0.3 0.2 0.2 0.1 0.2 0 0.7 0 0.4 0 2 0.4 0.3 0.1 0.2 0.1 0 0.1 0.1 0.8 0.2 0.5 0 0.5 0.1 0.3 0.1 0.3 0.2 0.1 0.2 0.1 0.3 0 0.2 0 0.2-0.1 0.2-0.1 0.1-0.1 0.1-0.1 0-0.2 0-0.2 0-0.2-0.4-0.5 0-0.2-0.1-0.2 0.1-0.2 0-0.1 0.7-1.4 0.1 0 0.2-0.3 0.4-0.6 2.6-2.5 0.2-0.1 0.5-0.1 0.2 0 0.2-0.3 0.1-0.2-0.1-0.2 0-0.4 0.2-0.8 0.5-0.7 0.7-0.5 0.8-0.1 0.2 0.1 0.3 0.2 0.2 0.1 0.1-0.1 0.1 0 0.2-0.7 0.3-0.2 0.4-0.1 0.9 0 0.5 0.2 3 0 0.1-0.1-0.1-0.3-0.2-0.1-0.3-0.1-0.3-0.1-0.8-0.2-0.2-0.5 0.2-0.6 0.4-0.6 0.2-0.2 0.2 0.1 0.1-0.1 0-1.9-0.5-0.7-1.1-0.9-0.6-0.9 0.6-0.8 1.7-0.5 0.5-0.4 0.8-1 0.3 0 0.7 0.3 0.5-0.4 0-0.4-0.1-0.5 0-0.5 0.2-0.4 0.8-0.9 0.5-0.3 0.4-0.2 0.4 0.1 0.4 0.2 0.2 0.1 0 0.1 0.3 0.1 0.2 0 0.1-0.3 0-0.3 0.1-0.2 0.1-0.2 0.1-0.2 0.9-0.8 0.5-0.4 0.7-0.2 0.3-0.3 0.1 0 0.5 0.3 0.2 0.2 0.2-0.3 0.4-0.4 0.6-0.3 0.2 0 0.9 0.9 0.7 0.5-0.1-2.2 0.1-0.5 0.5-0.3 0.3 0.3 0.7 1.1 0.9 0.5 1.4 0.2 2.9-0.1 0.5-0.1 0.2-0.1 0.3 0.1 0 0.3-0.1 0.3-0.1 0.4 0.3 0.2 0.7-0.2 1.1-0.9 1.3-1.5 0.7-0.6 0.8-0.2 0.4 0.2 1 0.9 0.4 0.2 0.4-0.1 1.8-0.4 0.3-0.2 0.9-1.4 0.1-0.4 0-0.6 0.2-0.7 0.4-0.4 0.2-0.1 0.4-0.1 0.6 0-0.1-0.7 0.3-0.2 0.6 0 0.3-0.1 0.1-0.2 0.4 0.4 0.4 0.6 0.1 0.2 0.4 0 2.1-0.2 0.2 0.1 0.2 0.3 0.2 0.2 0.3 0.1 0.3-0.2 0-0.2 0-0.3 0.1-0.2 0.5-0.3 0.7-0.2 1.4-0.2 0.6-0.2 0.5-0.5 0.4-0.5 0.4-0.5 0.7-0.4 0.3 0 0.3 0.1 0.6 0.5 0.2 0.4-0.2 0.1-0.2 0.4 0.3 0.8 1.2 2.2 0.3 0.5 0.9 0.4 0.6 0.3 0.5 0.5 0.4 0.4 0.2 0.2 0.2 0.2 0.6-0.6 0.4 0 0.1 0.7 0.1 0.2 0.2 0.2 0.1 0.1 0.3 0.3 0.8-0.2 0.6-0.2 0.3 0 0.2 0.1 0.2 0.1 0.1 0.1 0.5 0.4 1 0.5 0.6 0.1 0.6 0 0.7 0 0.3 0.1 0.2 0.2 0.1 0.6 0.1 0.1 0.1 0.2 0.1 0.2 0.3 0.3 0.2 0 0.2 0 0.1-0.1 0.3-0.4 0.2-0.1 0.2 0 0.4-0.1 0.2 0.1 0.2 0.1 0.2 0.5 0.4 0.3 0.1 0.4 0.9 0.3 0.1 0.3-0.3 0.4-0.2 0.8 0.4-0.1 1.3-1.3 0.4-0.2 0.4 0 0.7 0 0.5-0.1-0.1-0.3-0.5-0.5-0.3-0.2-0.2 0.1-0.1 0 0.1-0.4 0.9-0.4 1.3 0.5 2.3 1.5 0.4 0.2 0.2 0 0.2 0.1 0.3 0.3 0.4 0.2 0.3-0.1 0.3-0.1 0.3-0.1 0.2 0.1 0.2 0.2 0.2 0.1 0.3 0 0.2-0.1 0.4-0.5 0.2-0.3 0.3-0.1 0.3-0.1 0.2-0.1 0.3-0.2 0.3-0.2 0.3 0 0.6 0 1.4 0.9 0.2 0.1 0.3 0 0.1 0.2 0 0.4 0.1 0.3 0 0.1 0 0.4 0 0.1 0.1 0.2 0.2 0.2 0.1 0.1 0.1 0.2 0.2 0.3 0.2 0.7 0.3 0.5 0.1 0.2 0.3 0.3 0.2 0.1 0.1 0 0.2-0.1 0.2-0.2 0.2-0.1 0.3-0.1 0.7 0 0.6 0 0.4 0.1 0.2 0.1 0.1 0.1 0.3 0.4 0.2 0.2 0.4 0.2 0.6 0.2 0.3 0.2 0.2 0.1 0.1 0.2 0.2 0.1 0.7 0.2 0.2 0.1 0.1 0.1 0.1 0.1 0 0.1-0.1 0.1 0 0.2 0 0.2 0.1 0.2 0.2 0.1 0.1 0.1 0.3 0 0.1-0.1 0.6-0.2 0.2-0.1 0.4 0.1 0.2 0.1 1 0.6 0.5 0.6 0.1 0.5 0.2 0.6 0.1 0.2 0.1 0.2 0.2 0.2 0.1 0.1 0 0.2 0 0.2 0 0.2 0.9 1 0.2 0.1 0.4 0.3 0.2 0.2 0 0.1 0 0.2-0.1 0.1-0.1 0.2 0.1 0.2 0.1 0.2 0.1 0.1 0.1 0.1 2 2.5 0.3 0.3 0.2 0 0.2 0 0.1-0.1 0.2-0.1 0.2-0.2 0.2-0.1 0.1 0 0.2-0.1 0.4 0 0.1 0 0.1-0.1 0.1-0.2-0.1-0.3 0-0.2 0.1-0.1 0.1-0.2 0.1-0.1 0.1-0.1 0.2-0.1 0.3-0.1 0.3 0 0.4 0 0.7 0.2-1.4 0.7-0.1 0.3 0 0.2 0 0.2-0.1 0.5 0 0.2 0 0.2 0.2 0.1 1 0.3 0.1 0.1 0.2 0.3 0.1 0.4 0.1 0.8 0 0.4-0.1 0.3-0.1 0.1-1.7 0.9-0.1 0.1-0.3 0.2-0.2 0.2-0.1 0.2-0.1 0.3 0 0.2 0 0.2 0.1 0.1 0 0.2 0.4 0.5 0.1 0.2 0.1 0.2 0 0.2 0 0.2-0.1 1.3 0 0.5 0.1 0.4 0.3 0.3 0.1 0.2 0 0.3 0 0.2-0.1 0.1-0.1 0.2-0.2 0.2-0.4 1.4-0.3 0.5-0.3 0.4-0.2 0.3 0 0.2-0.1 0.3 0.1 1.2 0 0.3-0.1 0.2-0.1 0.1-0.2 0.1-0.3 0.6-0.4 0.9-0.1 0.4-0.1 0.3 0.1 0.2 0 0.2 0.1 0.2 0.1 0.1 0.1 0.1 0.7 0.5 0.1 0.2 0.1 0.1 0.1 0.3 0.2 0.6-0.2 1-0.2 0.5-0.8 0.6-0.4 0.4-0.2 0.4-0.4 0.9-0.2 0.3-0.1 0.2-0.1 0-0.4 0.1-1.7 0.1-0.4 0.1-0.3 0.2-0.2 0.1-2 2.6-0.4 0.4-0.5 0.3-0.8 0.3-0.4 0.2-0.2 0.1-0.1 0.2-1 1.2-1.6 0.3-0.5 0.2-0.1 0.1-0.7 0.7-0.3 0.4-0.1 0.4-0.1 0.1 0.1 0.2 0 0.1 0.1 0.2 0.1 0.2-0.1 0.3-0.1 0.4-0.2 0.2-0.3 0.1-0.3 0.1-0.5 0.2-0.3 0.1-0.3 0-0.2 0-0.7-0.3-0.2 0-1.5 0.3-2.1 0.8-0.4 0.6-0.6 0.5-0.1 0.2-0.1 0.3 0 0.7 0 0.3-0.1 0.2-0.1 0.1-0.8 0.7-0.1 0.2-0.1 0.3-0.1 0.6-0.7 1.6-0.2 0.4-0.4-0.3-0.5-0.2-0.9-0.1-0.3-0.2-0.8-1.7-0.5-0.3-1.3-0.1-0.3-0.4-0.2-1.4-0.2-0.7-0.3-0.6-0.4-0.4-0.5-0.4-0.5 0-1.7 1.2-0.6 0.1-4.1 0.3-0.6 0.2-0.6 0.6-0.8 1.4-0.6 0.5-0.5 0.3-0.7 0-0.7 0-0.6-0.3-0.4 0-1.6 0.2-0.3-0.1-0.3 0.4-0.4 0.5-0.8 1.2-0.1 0.2-1.3 1.4-1.1 1.5-0.1 0.3 0 0.3-0.1 0.2-0.2 0-0.8 0-0.4-0.1-0.2-0.4-0.4-0.3-0.6-0.1-0.4 0.3-0.2 0.4-0.2 0.6-0.3 0.5-0.8 0.3-3.4-0.2 0.3 0.6-0.4 0.2-0.4 0.2-0.3 0.3 0 0.4 0 0.3-0.1 0.2 0 0.1-0.1 0.1 0 0.2 0 0.2-0.1 0-0.2-0.1-0.1 0.1-0.6 0.8-0.3 0.4-0.4 0.2-0.5 0.1 0.2 0.3 0.3 0.4 0.3 0.3-0.2 0.1-0.3 0.1-0.1 0.1-0.2-0.3-0.2 0.3 0.1 0.6 0 0.2-0.7 1.2-1.7 2.1-0.2 0.1-0.3 0.2-0.3 0.1-0.2 0.3 0 0.4 0.2 0.8 0.1 0.4-0.3 0.2-0.3 0.1-1.2 0.4-0.5 0.3-0.1 0.3 0 0.8-0.1 0.3-0.3 0.4-0.3 0.1-0.2 0.1-0.3 0.2-0.1 0.3 0.1 0.2 0.2 0.2 0.1 0.2 0 0.5-0.2 0.2-0.2 0.1-1.2 1.4-0.3 0.5-0.1 0.6-0.2 0.2-0.7-0.1-0.2 0.2 0 0.4-0.2 0.3-0.2 0.3 0 0.1-0.2 0.1-0.9 0.6-0.7 0.3-0.8 0.1-0.5 0.3-0.3 0.1-0.9 0.1-0.8 0.4-0.2 0.1-1 1-0.1 0.1-0.2-0.1-0.1-0.2-0.1-0.2-0.3 0-0.2 0.2-0.2 0.5-0.2 0.3-0.3-0.4-0.3 0-0.2 0.3 0 0.5-0.4 0.9 0.3 0.1 0.4 0.3 0.4 0.3 0.4 0.3 0.8 1.3 0.3 0.5 2.4 5.9 0.9 2 0.5 0.6 1.4 1.2 0.5 0.7 0.4 1.7 0.2 0.4 0.3 0.6 0.3 0.1 0.4-0.1 0.6 0 0.5 0.2 0.3 0.2-0.1 0.3-0.4 0.5-0.6 1.6 0 1 0.7 1.8-0.1 0.6 0.3 0 0.1 0-0.1 0-0.2 0.1-0.2 0-0.4 0.2 0.4 0.7 0.2 0.7 0.4-0.2 0.2 0 0.3 0.1 0.2 0.3-0.5 0.7-0.6 0-0.7-0.1-0.6 0.3 0 0.5 0.5 0.5 0.4 0.3-0.6 0.4-0.2 0-0.8-0.4-0.2 0-0.2 0.3 0.1 0.3 0.3 0.2 0.3 0.1 0.2 0.2-0.2 0.3-0.4 0.6-0.3 0.1-0.3 0-0.7 0 0-0.1-0.2-0.1-0.1-0.2-0.1-0.1-0.2 0-0.1 0.2-0.1 0.1-0.5 0-0.3 0.1-0.4 0.4-1.2-0.1-0.4 0.1 0 0.3 0.1 0.3 0 0.2-0.6 0.5-0.5-0.1-0.6-0.2-0.6-0.2-1.4 0.3-0.4 0.2 0.2 0.4 0.7 0.6 0.2 0.6-0.3 0.2-1.2-0.1-0.6 0.2-0.5 0.4-0.3 0.6 0.2 0.7-0.3 0.3-0.4 0.1-0.8 0-0.5 0.1-0.4 0.6-0.3 0.1-0.5-0.3-0.4-0.4-0.5-0.4-0.8-0.1-0.2 0.1-0.6 0.5-0.3 0.1-0.2 0-0.1 0-0.1 0-0.3 0-0.2 0.1-0.3 0.3-0.2 0.1-0.3-0.1-0.2-0.1-0.2-0.1-0.4 0-0.6 0.3-0.3 0.1 0.3-0.4 0-0.2-0.6-0.2-0.6-0.1-1.4 0-0.5-0.1-1.2-0.7-0.4-0.3-0.1-0.3-0.1-0.9-0.4-0.6-0.3-0.3-0.2-0.1-3.9 0.8-0.9-0.1-0.4-0.5-0.2-0.7-0.5-0.3-0.6-0.1-0.5-0.3-0.4-0.4-0.2-0.4-0.4-0.4-0.8-0.1-0.2 0.3 0.1 0.6-0.2 0.5-0.8-0.1-1.1-0.3-0.3-0.1-1.7 0.6-0.5 0.2-0.5 0.3-0.3 0.3-0.1 0.2-0.6 0.3-0.9-0.8-0.2-0.1-0.2 0-0.4 0.2-0.1 0.2-0.1 0.1-0.1 0.2 0 0.2 0.1 0.4 0 0.2-0.3 0.5-0.7 0.6-1.9 1.4-0.9 0.5-0.6 0.3-0.8-0.1-0.4-0.1-0.5-0.4-0.2-0.1-0.8-0.1-0.1-0.1-0.1-0.1-0.1-0.2-0.1-0.2-0.1-0.8 0-0.2-0.2-0.2-0.9-0.1-1.7 0.2-0.5 0-1.1 0.2z" id="ZAFS" name="Free State">
  </path>
  <path d="M408.7 367.8l0.2-1.1 0.8-0.3 1.8 0 2.7-1.1 4.9-0.5 0.4-5.3 0.4-1.9 0.6-0.8 0.4-1.8 0-0.7 4.1-0.2 2-0.3 1.3-0.7 1.2-0.3 0.7-0.8 1.2-0.6 1.6-1.2 0.5-0.2 2.4-0.5 4.5-2.2 4 0.9 0.9-0.6 0.2-1.7 1.1-1.2 0.6-1.1 0.2-0.8 0.4-0.7 0.4-0.7-0.2-1.2 0.8-1.3 0.2-0.8-0.2-1.4-0.3-0.9 0.1-0.6 0.7-0.9 0.2-0.8-0.6-0.9-0.6-0.7-0.4-4.9 1.1-0.2 0.5 0 1.7-0.2 0.9 0.1 0.2 0.2 0 0.2 0.1 0.8 0.1 0.2 0.1 0.2 0.1 0.1 0.1 0.1 0.8 0.1 0.2 0.1 0.5 0.4 0.4 0.1 0.8 0.1 0.6-0.3 0.9-0.5 1.9-1.4 0.7-0.6 0.3-0.5 0-0.2-0.1-0.4 0-0.2 0.1-0.2 0.1-0.1 0.1-0.2 0.4-0.2 0.2 0 0.2 0.1 0.9 0.8 0.6-0.3 0.1-0.2 0.3-0.3 0.5-0.3 0.5-0.2 1.7-0.6 0.3 0.1 1.1 0.3 0.8 0.1 0.2-0.5-0.1-0.6 0.2-0.3 0.8 0.1 0.4 0.4 0.2 0.4 0.4 0.4 0.5 0.3 0.6 0.1 0.5 0.3 0.2 0.7 0.4 0.5 0.9 0.1 3.9-0.8 0.2 0.1 0.3 0.3 0.4 0.6 0.1 0.9 0.1 0.3 0.4 0.3 1.2 0.7 0.5 0.1 1.4 0 0.6 0.1 0.6 0.2 0 0.2-0.3 0.4 0.3-0.1 0.6-0.3 0.4 0 0.2 0.1 0.2 0.1 0.3 0.1 0.2-0.1 0.3-0.3 0.2-0.1 0.3 0 0.1 0 0.1 0 0.2 0 0.3-0.1 0.6-0.5 0.2-0.1 0.8 0.1 0.5 0.4 0.4 0.4 0.5 0.3 0.3-0.1 0.4-0.6 0.5-0.1 0.8 0 0.4-0.1 0.3-0.3-0.2-0.7 0.3-0.6 0.5-0.4 0.6-0.2 1.2 0.1 0.3-0.2-0.2-0.6-0.7-0.6-0.2-0.4 0.4-0.2 1.4-0.3 0.6 0.2 0.6 0.2 0.5 0.1 0.6-0.5 0-0.2-0.1-0.3 0-0.3 0.4-0.1 1.2 0.1 0.4-0.4 0.3-0.1 0.5 0 0.1-0.1 0.1-0.2 0.2 0 0.1 0.1 0.1 0.2 0.2 0.1 0 0.1 0.7 0 0.3 0 0.3-0.1 0.4-0.6 0.2-0.3-0.2-0.2-0.3-0.1-0.3-0.2-0.1-0.3 0.2-0.3 0.2 0 0.8 0.4 0.2 0 0.6-0.4-0.4-0.3-0.5-0.5 0-0.5 0.6-0.3 0.7 0.1 0.6 0 0.5-0.7-0.2-0.3-0.3-0.1-0.2 0-0.4 0.2-0.2-0.7-0.4-0.7 0.4-0.2 0.2 0 0.2-0.1 0.1 0 0.6 0.2 0.3 0 0.2 0 0.6-0.3 0.5 0 0.2 0.3 0.2 0.8 0.3 0.5 0.5 0.4 1.1 0.5 0.1 0.4 0.1 0.3 0.8 0.8 0.7 1 0.1 0.3 0 0.3 0 0.3 0.2 0.3 1.8 1.4 1.6 1.9 0.9 0.5 1.1 0.4 1.2 0.1 0.3 0 0.6-0.3 0.2-0.1 0.4 0.2 0.2 0.2 0.3 0.2 0.2 0.2 0.6 0.3 0.7 0.2 3.5 0.3 0.7 0.3 0-0.6-0.1-0.6 0-0.5 0.2-0.7 0.1-0.4 0.3-0.1 0.2-0.2 0.3-0.2 0.2-0.3 0.1-0.2 0.5-1.6 0.1-0.3-0.1-0.3-0.4-0.6 0-0.3 0.2-0.4 2.5-2 0.4-0.5 0.2-0.7-0.1-0.8-0.3-0.3-0.5-0.2-0.3-0.5 0.1-0.6 0.4-0.5 0.7-0.4 0.5-0.2 0.9-0.2 0.3-0.1 0.2-0.2 0.3-0.5 0.3-0.2 0.5-0.5 0.5-1 0.2-0.4 0.6-0.6 0.7-0.1 1.5 0.2 0.7-0.2 1.3-0.8 0.5-0.1 0.5 0 1.4 0.6 1 0 2.7-1 1.9-0.4 2-0.8 3.4-2.3 1.2-0.7 0.2 0.3 1.5 1.9 1.2 1.2 0.2 0.2 0.1 0.3-0.1 0.3 0 0.3-0.1 0.2-0.1 0.1 0.1 1.1-0.5 0.8 0.3 0.7 0.3 0.7 0.3 1 0.8 0.8 0.5 0.6 1.6 0.4 0.5 0.2-0.3-0.9 0.7-0.2 1.1 1.6 0 1.1 0 0.8-0.6 0.2 0.1 0.6-1.3 0.4-0.4 0.4-0.6 0.6-0.2 0.9-0.6 1.7-0.7 0-0.2 0.7 0.6 0.8-1.4 0.9 0.7 1 1.4 0.9 1-0.7 1.2 0.4 1 0.6 0.7 0.3 0.2 0.1 0.2 0 0.2-0.1 0.1-0.1 0.1-0.1 0.3-0.3 0.1-0.1 0.2 0 1.3 0 0.2 0 0.2-0.1 0.1 0 0.6-0.4 0.1-0.1 0.2-0.1 0.2 0 0.2 0 0.1 0.1 2.1 1.5 1 0.3 0.7 0.6 0.3 0.1 0.2 0 0.2 0 1-0.2 0.2 0 0.3 0.1 0.3 0.2 0.5 0.1 0.7 0.3 0.4 0.2 0.4 0.2 0.1 0 0.1-0.1 0.2-0.1 0.2-0.1 0.6 0 0.2 0.1 0.1 0.2 0.1 0.2 0.4 0.4 1.1 0.6 0.7 0.6 0.5 0.3 0.3 0.1 0.3 0 0.2-0.1 0.1 0 0.3-0.1 0.1 0.1 0 0.2 0 0.2 0.1 0.2 0.1 0.2 0.3 0.2 0.1 0.2 0.1 0.2 0.1 0.2 0.1 0.2 0.2 0.1 0.2 0 0.2 0 0.1-0.1 0.1 0 0.2 0.1 0.2 0.3 0.2 0.1 0.2 0.1 0.7 0 0.2 0.1 0.1 0.1 0.1 0.2 0 0.1 0.1 0.2 0 0.2 0 0.2 0.2 0.3 0.3 0 0.7 0.6 0.4 0.4 0.1 0.3 0 0.3 0 0.2 0 0.2 0 0.3 0.1 0.4 0.1 0.3 0.1 0.3 0 0.7 0.1 0.2 0.1 0.2 0.1 0.1 0.4 0.1 0.2 0.1 0 0.1 0.1 0.2 0 0.2 0.1 0.5 0 0.2 0.1 0.1 0.1 0.1 0.4 0.3 0.1 0.1-2.1 2.9-0.9 0.6-0.9 2.1-1.6 1.9-4.3 4.1-0.6 0.3-1.8 0.5-0.7 0.3-0.6 0.5-0.2 0.6-1.8 2.3-0.7 0.3-0.3 0.2-0.2 0.6-0.2 0.3-0.2 0.2-0.2 0.1-0.6 0.1-0.5 0.5-1 1-0.5 0.3-1.1 0.4-0.8 0.6-0.3 0.1-0.2 0-0.4 0.1-0.1 0-0.3-0.1-0.2 0.1-0.2 0.2 0.1 0.2 0.1 0.1 0 0.2-0.6 1.3-0.8 0.5-0.2 0.2-0.1 0.9-0.3 0.4-1 0.7-1 1.1-0.4 0.7-0.2 0.5-0.1 0.4-0.5 0.9-0.4 0.2 0 0.1-0.1 0.1-0.1 0.5 0 0.1-2 0.9-0.3 0.4-0.1 0.6-0.3 0.6-0.8 1.3-3.7 4-3 4.2-1.6 1-0.3 0.3-4 3.8-0.6 1-0.3 0.2-0.5 0.2-0.2 0.2-1.1 1.2-0.6 0.7-0.2 0.7-0.2 0.4-3.3 2.6-0.7 0.4-1 0.8-0.5 0.3-0.1 0.5-0.7 0.6-1.4 0.8-1.4 1-0.9 0.5-1.6 0.5-0.8 0.7-0.6 1-0.2 1-0.3 0.8-0.6 0.7-3.1 2.6-0.9 0.3-0.2 0.3-0.4 0.5-0.4 0.3-0.1 0.1 0 0.2 0 0.2-0.1 0.2-1.4 0.6-0.6 0.7-0.3 0.1-0.6 0.1-1.5 0.6-0.5 0.3-2.7 2.8-0.9 0.8-2.1 0.9-0.4 0.2-0.1 0.1-0.7 1-0.2 0.2-0.3 0-0.2 0-0.3-0.2-0.2 0.9-0.7 0.8-1.7 1.3-0.7 0.4-0.1 0-0.1 0-0.1-0.1-0.1-0.1-0.1 0.1-0.1 0.4-3.2 2.2-0.3 0.4-2.2 1.1-0.5 0.3-0.2 0.3-0.1 0.2 0 0.3-0.2 0.3-0.2 0.2-0.3 0.1-0.6 0.1-2.6 1.4-0.6 0.1-0.7 0.1-0.6 0.2-1.7 1.5-0.6 0.1-1.4 0.2-1 0.6-2.9 1.2-0.3 0.1-0.3 0.1-0.2 0.7-0.1 0.1-0.7 0.1-2.8 1.5-1.2 0.3-1.2 0.1-2.5-0.4-0.8 0-0.6 0.3-0.5 0.1-0.7-0.3-1.1-0.7-4-0.8-4.1-0.2-2.6 0.4-2.4 0.8-2.2 1.1-0.9 0.7-0.8 1-0.6 1.2-0.5 2-0.1 0.8 0.2 0.4 0.6 0.3 0.1 0.3 0.1 0.2 0.9 0.6 0.5 1 0.3 0.3 0 0.3-0.1 0.1-0.1 0.1-0.9-0.3-0.7 0.2-0.6 0.4-0.8 0.2-0.9-0.1-1.6-0.5-0.8-0.2-1.5 0.2-0.7 0-0.8-0.5-1.1-0.2-1-0.7-1.1-0.4-2.5-0.7-2.7-0.1-2.7 0.4-1.7 0.5-0.7 0.4-0.5 0.5 0.4 1.5-0.3 0.7-0.5 0.6-0.3 0.3-1.4 1.3-0.2 0.5 0.1 0.5 0.3 0.2 0.3 0.2 0.1 0.2-0.1 0.3-0.5 0.4-0.2 0.3-0.2 0-0.4-0.5-0.6-0.2-2.1-0.1-1.6-0.4-0.7-0.1-1.9 0.3-0.5 0-2.6-0.7-1.3-0.7-1-0.9-0.6-0.3-3.6-0.4-0.5-0.3-0.4-0.3-1.9-0.8-5.4-0.5-0.6-0.1-1.3-0.5-3.1-0.4-5.3-1.2 0.1 0 0-1.1 0-0.5 1.4-2.2-3.6-1.8-0.6-1-1.1-0.4-0.7-0.1-0.8 0.3-2.7-0.3 1.1-1.2 0.4-0.5 0.6-0.8 5.4-2.4 0.4-0.8-1.5-2-0.5-2.5-1.6-1.2-2.2-1-5.2-1.2-6.9-0.3-3.7 0.5-4.6-0.1-0.4-1.4 0.3-1.2 5-8.3 0.5-1.4-0.4-1.5 0.9-1.4 0.2-1.1 1.4-1.9 0.6-0.4 1.1-0.3 0.4-0.8 0-1.3-0.1-0.8 0-0.2 0.1 0 0.1 0.2 0.1 0.1 0.1 0.1 0.1 0.2 0.2 0.5 0.3 0.3 0.3 0.5 0.3-0.1 0.6-0.2 1.5-0.6 2-0.2 1.9 0.1 1.3-1.4-1.2-1.1-0.5-1.2-1-1.2 0.1-1.7-0.2-1.2-0.4-1.5-0.7-1.3 0-1.5 0.1-1.4 1.4-1.1 1.1-1.3 2.2 0.2 1.4-0.7 4.6-0.6 1-0.6 1.1-2.4 1.5-1 1-0.5 2.6 0.9 1.2 0.2 4.3-1.8 0.6-1.1 1.2-0.7 0.3-0.9-0.1-0.5 0-0.8 0.4-0.5 0.1-0.6 0-0.5 0.2-0.4 0.6-0.3 0.5-0.4 0.7-1.1-0.2-0.9-0.7-0.9-0.7-0.5 0.1-1 0.3-0.5 0.2-0.7 0.3-0.3-0.3-0.9z" id="ZAEC" name="Eastern Cape">
  </path>
  <path d="M637.5 104.7l-0.1 0.1-0.3 0.1-0.2 0-0.5 0-0.4 0-0.1 0-0.3-0.2-0.2 0-0.2 0.1-1.3 1.1-0.1 0.1 0 0.1-0.2 1 0 0.1-0.1 0.2-0.1 0-0.2 0.1-0.3 0.1-0.3-0.1-0.5-0.1-0.3-0.2-0.1-0.2 0-0.2-0.1-0.2-0.1-0.1-0.1-0.1-0.1-0.1-0.2 0-0.2 0-0.3 0.2-0.1 0.1-0.2 0.2-0.3 0.5-0.1 0.1-0.2 0.1-0.1 0-0.3-0.1-0.1-0.1-0.2-0.3-0.1 0-0.2 0-0.5 0.3-0.2 0.1-0.4 0-0.2-0.1-0.4-0.3-0.9-0.2-0.1-0.1-0.4-0.1-0.1 0-0.2 0-0.3 0.3-0.4 0.5-0.3 0.3-0.1 0-0.2 0.1-0.3-0.1-0.2 0-0.2-0.1-0.3 0.1-0.3 0.2-0.2 0.2-0.3 0.3-0.2 0.1-0.2 0-1.1-0.2-0.5 0.1-0.8 0.8-0.4-1.1-0.9-1.1-0.8 0.1-0.4 0.9-1 0.1-1.5 0.4-0.1 0.5 1.1 0.1 0 0.9-0.5 0.9-1.3 1.2 0.2 4.2 2.4 0 1.7-0.3 1.4 1.8-2.4 0.4 0.1 1.9 1.5-0.1 1.3 2.4-1.2 1.6-5 0.4-2.3 0.4-0.2-1.7-2.7 0.2-1.1-0.8-2.2-1.5-0.8-0.2-0.1 0.5-0.2 1.3 0.2 2.3-0.8 0.2-1 0.9 0.8 1.2 0.6 1.6-1.2 1-1.3 0.1-0.1 0.4 0.8 0.9-0.1 1.4-1.1 1.3-2.8 1.7-1 1.2-1.2-1.8-0.9-1.4-1.6 0.2-0.5 0.7-5-0.7-0.2 1.8 0 2.6 0.3 1-1.1 0.4-0.1 2.5-0.6 0.4-1.2-0.5-1.5-1.1-1.6 0.7 0.8 1.8-0.1 3.2 0 2.8-1.9 0-1.6 0.4-0.8 0.9-2-0.2-0.6 1-3-0.8-1.4 0.9-2.8 0.4-2-0.3-1.7 0.3-1.5-0.2-0.3-1-2.2 0-0.6 0.7-1.1 0.4-0.6-1.2-1.4 0.8 0.8-2.1-0.2-0.9-1.9 0.4-0.3-0.9-1.6-0.7 0.1-1.7 0.1-2.4 1.3 0.2 1.2-1.2-1.6-1.4-1.5-0.4-1.6 0.5-0.9-2.3-0.8 0-0.4-1.5 1.1-0.6-0.6-1.1-2.5 1.2-1.6-0.2-0.6 0-0.8 0.2-0.6 0.3-1 0.5-1.9 1.2-0.1 0.4 0.6 1.2-1.8 1-1.2 0.4-0.8 0.2-0.7 0.2-0.5 0.4-0.4 0.5-1.1 0.7-1.1 0.4-0.4 0.3-0.1 0.4 0.1 0.4 0.3 0.5 0.7 0.2 1.2-0.1 1-0.3 0.6-0.3 0.6-0.4 0.3-0.2 2.6-0.8 0.3 0.9 0.2 0.2 0.6 0.8 0.5 0.4 0.1 0.5 0 0.1 0 0.1-0.2 0.2-0.4 0.2-0.9 0.3-1-0.1-1.5 0.1-0.8 0.3-0.5 0.6-1.5 0.8-1.7 0-0.4-0.4-2 0.2-1.9-3-0.5-0.3-0.6-0.3-1 0.2-0.6-0.1-0.4-0.3-0.2-0.8-0.4-0.4-0.7-0.5-0.1-0.6 0.2-0.5 0.7-0.2 0.4 0 0.6 0.3 0.6 0.4 0.4 0.1 0.6 0 0.4-0.3 0.2-0.6 0.1-0.9-0.4-0.7-0.9-0.5-2.4-1.1-1-0.3-1.5-0.1-1.4-0.4-0.6 0.1-0.4 0.2-0.2 0.1 0 0.1-0.1 0.1-0.1 0-0.3 0-4.5-0.5-0.5 0.1-0.4 0.2-0.2 0.1-0.3 0.3-1.2-1.2-0.7 0.1-0.7 0-0.6 0.3-0.3 0.2-0.1 0.2 0 0.1 0 0.2 0 0.5-0.2 0.6-1 1.8-0.4 0.2-0.2 0.1-0.2 0-0.2-0.1-0.1-0.1-0.1-0.1-0.1-0.2-0.2-0.8-0.3-0.3-1.3 0.2-2.3-0.1-2.3-1.7-3.1-0.5-0.4-0.3-0.2-0.4-0.5-1-0.9-1-1.1-0.7-0.7-1.2-0.4-3.3-0.2-0.6-0.4-0.2-0.4 0.1-0.3 0.3-0.3 0.8-1.3 0.9-3.4 1.5-1.8 1-0.5 0.1-0.7-0.1-0.6-0.1-0.8-0.4-0.9-0.5-0.7-0.2-5.1-0.5-0.3-0.1-0.2-0.8-0.8-1.4-0.2-0.9 0-2.4 0-0.3 1.9-2 0.2-0.4 0.9-2.3 0.7-1 0.8-0.6 0.7-0.5 0.9-0.6 0.1 0 0.3-0.2 0.1-0.2 0.2-0.2 0.1 0 0.9-1 0.1-0.1 0.1-0.1 0.2-0.3 0.1 0 0-0.1 0.2-0.4 0.7-0.3 0.4-0.2 0.1 0 0.4-0.1 1.7-0.6 0.1 0 0.4-0.3 0.1 0 0-0.1 0.2-0.2 0.3-0.2 0.3-0.5 0.4-2.3 0.1-0.2 0.1-0.4 0-0.5 0-0.9 0.2-0.7 1.9-7.7 0-0.3 0-0.2 0.1-0.6-0.2-0.7 0.8-1.4 0-0.1 0-0.1 0-0.1-0.1 0 0-0.1 0-0.1 0.1 0 0-0.1 0-0.1 0-0.1 0.1 0 0-0.1 0-0.1 0.1 0 0-0.1-0.1 0 0-0.1 0-0.1 0.1 0 0-0.1 0-0.1 0.1 0 0-0.1 0-0.1 0.2-0.4 0.1 0 0.1 0 0-0.1 0.1 0 0.1 0 0-0.1 0.1 0 0.1 0 0-0.1 0-0.1-0.1-0.1 0-0.1 0-0.1 0-0.1 0.1 0 0-0.1 0-0.1 0-0.1 0-0.1-0.1 0 0.2-0.4 0.3-0.2 0.1 0.1 0.1 0 0.1 0 0 0.1 0 0.1 0 0.1-0.1 0 0 0.1 0 0.1 0.1 0 0 0.1 0.1 0 0.1 0 0-0.1 0.1 0.1 0 0.1 0 0.1 0 0.1-0.1 0 0 0.1 0 0.1 0 0.1 0.1 0 0 0.1 0.1 0 0.1 0 0.1 0 0.1 0 0-0.1 0.1 0 0.1-0.1 0.1 0 0.1-0.1 0-0.1 0.1 0 0.1 0 0.1 0 0-0.1 0-0.1 0.1 0 0-0.1 0.1 0 0-0.1-0.1 0 0-0.1 0.1 0 0.1 0 0-0.1-0.1 0 0-0.1 0-0.1 0.1 0 0-0.1-0.1 0 0-0.1 0-0.1-0.1 0 0-0.1-0.1-0.1-0.1 0 0-0.1 0-0.1-0.1 0 0 0.1-0.1-0.1 0-0.4 0.1 0 0.1 0 0-0.1 0.1 0 0 0.1 0 0.1 0.1 0 0.1 0 0.1-0.1 0.1-0.1-0.1 0-0.1 0 0-0.1 0-0.1 0-0.1 0.1 0 0.1 0 0.1 0 0.1 0 0.1 0 0 0.1 0.1 0 0-0.1 0.1 0 0.1 0 0-0.1 0-0.1 0.1-0.1 0-0.1-0.1 0 0-0.1 0-0.1 0.1 0 0-0.1 0-0.1-0.1 0 0-0.1 0.1 0 0-0.1-0.1 0 0.1 0 0 0.1 0.1 0 0-0.1 0.1 0 0-0.1 0.1-0.1 0 0.1 0.1 0 0 0.1 0.1 0 0.1 0 0.1 0 0 0.1-0.1 0 0 0.1 0.1 0 0-0.1 0.1 0.1 0.1 0 0-0.1 0.1 0 0 0.1 0.1 0 0.1-0.1 0-0.1 0.1 0 0-0.1 0-0.1-0.1 0 0-0.1 0-0.1 0-0.1 0-0.1-0.1 0 0 0.1-0.1 0-0.1 0 0-0.1-0.1 0 0-0.1 0-0.1-0.1 0 0-0.1 0-0.1 0-0.1 0.1 0 0-0.1 0.1 0 0-0.1-0.1 0-0.1 0 0-0.1 0.1 0 0-0.1 0.4 0.2 0.1 0.2 0.1 0 0.1 0 0 0.1 0.1 0 0-0.1 0.1-0.1 0-0.1 0-0.1 0.1 0 0-0.1 0.1 0 0.1 0.1 0.1 0 0 0.1 0.1 0 0 0.1 0.1 0 0.1 0.1 0.1 0 0-0.1 0 0.1 0.1 0 0.1 0 0-0.1 0-0.1 0.1 0 0.1 0 0.1 0 0-0.1 0-0.1-0.1 0 0-0.1-0.1 0-0.3-0.4 0-0.1 0-0.1 0.2-0.2 0.1 0 0.1-0.1 0.2-0.1 0.1 0 0.3-0.1 0 0.1-0.1 0 0 0.1 0 0.1 0 0.1 0.1 0 0.1 0 0.1 0 0-0.1 0-0.1 0-0.1 0.1-0.1 0-0.1 0.1 0 0.1 0 0-0.1 0.1 0 0.1 0 0.1 0 0-0.1 0.1 0 0-0.1 0.1 0 0 0.1 0.1 0 0 0.1 0.1 0 0.1-0.1 0.1 0 0-0.1 0.1 0 0.1 0 0.1 0 0-0.1 0-0.1 0.1 0 0-0.1 0-0.1 0.1 0 0.1 0 0.1 0 0.1 0 0 0.1 0.1 0 0-0.1 0-0.1 0-0.1 0-0.1 0.1 0 0.1 0 0.1 0-0.1 0 0-0.1 0-0.1 0 0.1 0.1 0 0.1 0 0-0.1-0.1 0 0-0.1-0.1 0 0-0.1 0.1 0 0-0.1 0.6-1.1 0.1 0 0-0.1 0.1 0 0.1 0 0.1 0 0.1 0 0.1 0.4 0 0.1-0.1 0 0 0.1 0 0.1-0.1 0 0 0.1 0 0.1 0.1 0 0.1 0 0.1 0 0.1 0 0.1 0 0.1 0 0.1 0 0.1 0 0-0.1 0.1 0 0-0.1 0.1 0-0.1 0 0-0.1-0.1-0.1 0.2-0.3 0-0.2 0.4-0.1 0.4-0.2 0 0.1 0 0.1 0 0.1 0 0.1-0.1 0.1 0 0.1-0.1 0 0 0.1 0 0.1 0 0.1 0.1 0 0 0.1 0 0.1 0.1 0 0.1 0.1 0.1 0 0.1 0 0.1 0 0.1 0 0.1 0 0-0.1 0-0.1 0-0.1 0.1 0 0-0.1 0-0.1 0-0.1 0.1 0 0.2-0.4 0.3-0.3 0.1 0 0-0.1 0.1 0 0.1 0 0 0.1 0.1 0 0.1 0 0-0.1 0.1 0.1 0.1 0 0.1 0 0.1 0 0.1 0 0.1 0 0.1 0 0-0.1 0.1 0 0 0.1 0.1 0 0.1 0 0 0.1 0.1 0 0-0.1 0.1 0 0.1 0 0.1 0 0.1 0 0.1 0 0.1 0 0.1 0-0.1-0.1 0.1 0 0-0.1 0-0.1 0.1 0 0.1 0 0-0.1 0-0.1 0-0.1 0.3-0.2 0.1-0.1 0.1 0 0-0.1 0-0.1 0.1 0 0-0.1 0.1 0 0.1 0 0-0.1 0-0.1 0.1 0 0-0.1 0-0.1 0-0.1 0-0.1 0.1-0.1 0-0.1-0.1 0 0.1-0.1-0.1-0.2-0.1-0.3 0.1 0 0-0.1 0-0.1 0.1-0.1 0.1-0.1-0.1-0.1 0.1 0 0-0.2 0-0.1 0.1 0 0-0.1 0.1-0.5 0.1-0.1 0.1 0 0-0.1 0.1 0 0.1 0 0-0.1 0.1 0 0-0.1 0.1-0.1 0-0.1 0-0.1 0.2-0.8 0 0.1 0.1 0 0.1 0 0.1 0 0.1 0 0.1 0 0 0.1 0.1 0 0.1 0 0 0.1 0.1 0 0.1 0 0.3 0.1 0.3-0.2 1-0.8 0.1 0 0 0.1 0.1 0 0.1 0 0 0.1 0.1 0 0 0.1 0 0.1 0 0.1 0.1 0 0 0.1 0 0.1 0.1 0 0 0.1 0 0.1 0 0.1 0.1 0 0.1 0 0 0.1 0.1-0.1 0.1 0 0 0.1 0.1 0 0.1 0 0 0.1 0.1 0 0-0.1 0.1 0 0.1 0 0-0.1 0.1 0 0-0.1 0.1-0.1 0.1 0 0.2-0.3 0.4-1.1 0.1 0 0.1 0 0-0.1 0.1 0 0-0.1 0.1-0.1 0-0.1 0.1-0.1-0.1-0.1-0.1-0.2-0.1 0 0-0.2-0.2-0.2 0-0.3 0-0.1 0.1 0 0 0.1 0.1 0 0 0.1 0 0.1 0 0.1 0.1 0 0.1 0 0.1 0 0.1 0 0-0.1 0.1-0.1 0.1 0 0.1 0 0.1 0 0.1 0 0-0.1 0-0.1 0.1 0 0.1 0 0.1-0.1 0-0.1 0.1 0-0.2-0.6 0.1 0 0 0.1 0.1 0 0.1 0 0.1 0 0.1 0 0.1 0 0.1 0 0-0.1 0.1 0 0.1 0 0.1 0 0-0.1 0.1 0 0-0.1 0.1 0 0.1 0 0.1 0 0-0.1 0.1 0 0.1 0 0-0.1 0.1 0 0.1 0 0.1 0 0-0.1 0.1 0 0-0.1 0.1 0 0.1 0 0-0.1 0.1 0 0-0.1 0.1 0 0.1-0.1 0.1 0 0.1 0 0.1 0 0-0.1 0.1 0 0-0.1 0.1 0 0-0.1 0.1 0 0-0.1 0.1-0.1 0.1-0.1 0-0.1 0.1 0 0.1 0 0-0.1 0.1-0.1 0-0.1 0.1 0 0-0.1 0-0.1 0-0.1 0.1-0.1 0-0.1-0.1-0.9 0-0.1 0-0.1 0-0.1 0-0.1 0-0.1 0-0.1 0-0.1-0.1-0.1 0-0.1 0-0.3 0.2-0.2 0.1 0.1 0.1 0 0.1 0 0.1 0 0.1-0.1 0-0.1 0.1 0 0.1-0.1 0.1 0 0.1-0.1 0.1 0 0-0.1 0.3-0.1 0.6-0.3 0.4-0.2 0.4-0.5 0.1 0 0-0.1 0.1-0.1 0-0.1 0.1-0.1 0.1-0.3 0.1-0.7-0.2-0.7 0-0.3 0.6-0.3 0.7-0.2 0.4-0.2 0.1-0.2 0.2-0.4 0-0.1 0.1 0 0-0.1 0-0.1 0.1 0 0-0.1 0.1 0 0-0.1 0.1 0 0.1 0 0.1 0 0-0.1 0.1 0 0.1 0 0-0.1 0.1 0 0.1 0 0-0.1 0.1 0 0-0.1 0-0.1 0.1 0 0-0.1 0.1 0 0-0.1 0.1 0 0-0.1 0.1 0 0-0.1 0-0.1 0-0.1 0-0.1 0-0.1 0-0.1 0-0.1-0.1 0 0-0.1 0-0.1 0-0.1-0.1 0 0.1-0.2 0-0.2 0.1 0 0-0.1 0.1 0 0-0.1 0.1-0.1 0.1-0.1 0-0.1 0.1 0 0-0.1 0.1 0 0-0.1 0.1-0.1 0-0.1 0.1 0 0.1-0.1 0.1 0 0-0.1 0.1 0 0-0.1 0.1 0 0-0.1 0.1-0.1 0.1-0.1 0.1 0 0-0.1 0.1 0 0.1 0 0.1 0 0.6-0.1 0.3-0.2 0.3-0.4 0.1 0 0-0.1 0.1 0 0-0.1 0.1 0 0-0.1 0.4-0.5 0.2-0.2 0.1 0 0.1-0.1 0.1 0 0 0.1 0.1-0.1 0.1 0 0.1-0.1 0.1 0 0-0.1 0.1 0 0-0.1 0.1 0 0.1 0 0-0.1 0.1 0 0-0.1 0.1 0 0-0.1 0.1 0 0-0.1 0.1 0 1.1-0.4 1.2 0 0.1 0 0.1 0 0.1 0 0.1-0.1 0.1 0 0.5 0 0.1 0 0 0.1 0.1 0 0.1 0 0.1 0 0.1-0.1 0.9 0.3 0.1 0 0 0.1 0.1 0 0 0.1 0.1 0.1 0.1 0 0.1 0 0.1-0.1 0.1 0 0.1 0 0-0.1 0.1 0 0.1 0 0.1 0 0-0.1 0.1 0 0.1 0 0-0.1 0.1 0 0.1-0.1 0.1-0.1 0-0.1 0.1 0 0.1 0 0-0.1 0.1 0 0.4-0.1 0.1 0 0.1 0 0.1 0 0.1 0 0.1 0 0.1 0 0.1 0 0.1 0 0.1 0 0.1 0 0 0.1 0.1 0 0.1 0 0-0.1 0.1 0 0.1 0 0.1 0 0.1 0 0.1-0.1 0.1 0 0.1 0 0.1 0 0.1 0 0-0.1 0.1 0 0.3-0.1 2.1-1.2 1.3-0.4 0.7-0.1 0.6-0.2 0.1 0 0-0.1 0.1 0 0.1 0 0.1 0 0-0.1 0.1-0.1 0-0.1 0-0.1-0.1 0 0.2-0.4 0.1-0.2 0.1 0 0-0.1 0.1 0 0.1 0 0-0.1 0.1 0 0.1-0.1 0.1 0 0.2 0 0.7 0.1 0.1 0 0.1 0 0.1 0 0 0.1 0.1 0 0 0.1 0.1 0 0 0.1 0.1 0 0.1 0 0.1 0 0-0.1 0.1 0 0-0.1 0.1 0 0-0.1 0-0.1 0.1 0 0-0.1 0.1 0 0-0.1 0.1 0 0-0.1 0.1 0 0-0.1 0.1 0 0-0.1 0.1 0 0-0.1 0-0.1 0-0.1 0-0.1 0.1 0 0-0.1 0.1-0.1 0-0.1 0-0.1 0-0.1 0-0.1 0.1 0 0-0.1 0-0.1 0.1 0 0-0.1 0.1 0 0-0.1 0.1-0.1 0-0.1 0.1 0 0-0.1 0-0.1 0.1 0 0-0.1 0-0.1 0-0.1 0-0.1-0.1 0 0-0.1 0-0.1 0-0.1-0.1-0.1 0-0.1-0.1-0.2 0-0.1 0.1 0-0.1-0.1 0-0.1 0-0.1 0-0.1 0-0.1 0-0.1 0-0.1 0-0.1 0.1 0 0-0.1 0-0.1 0-0.1 0.1 0 0.1-0.1 0.1-0.1 0.1-0.1-0.1 0 0-0.1 0-0.1 0.1 0 0-0.1 0.1 0 0-0.1 0.1 0 0.1 0 0.1 0 0-0.1 0.1 0 0.1-0.1 0-0.1 0.1 0 0-0.1 0-0.1 0-0.1 0-0.1 0.4-0.2 0-0.2 0.7-0.8 0.2-0.1 0.8-0.1 0.1 0 0 0.1 0.1 0 0.1 0 0.1 0 0.1-0.1 0.1 0 1.4-0.1 0.1 0 0.1 0 0.1 0 0.1 0 0.4 0 0.6-0.2 0.4-0.5 0.6-0.4 0.4 0 0.1 0 0 0.1 0.1 0 0.1 0.1 0.1 0 0.1 0 0 0.1 0.1 0 0 0.1 0.1 0 0.1 0 0-0.1 0.1 0 0.1 0 0 0.1 0.1 0 0.1 0 0.1 0 0-0.1 0-0.1 0.1 0 0.2 0 0.1 0 0.3 0.1 0.7 0.1 0 0.1 0 0.1 0.1 0 0 0.1 0.1 0 0 0.1 0.1 0 0-0.1 0.1 0 0-0.1 0.1 0 0-0.1 0.1-0.1 0.1 0 0 0.1 0.1 0 0.1 0.1 0.1 0 0.1 0 0.1 0 0-0.1 0.1 0 0.1 0 0.1 0-0.1 0 0-0.1-0.1 0-0.1 0-0.1 0 0.4 0 0.7-0.4 1.1-0.6 0.6-0.1 1.5 0.4 0.7 0 0.3-0.3 0.3-0.5 0.5-0.1 1 0.1 1.1-0.6 0.6 0 0.6 0.3 0.3-0.1 2-0.1 0.6 0.2 1.8 1.1 1 0.2 0.7 0.4 1.1 0.1 0.4 0.2 0.8 0.5 0.3 0.1 0.6 0.1 0.4 0.2 0.5 0.6 0.1 0.1 0 0.1 0.9 0.1 0.4 0.2 0.9 0.7 0.7 0.3 0.5 0.1 1.3-0.2 0.8 0 0.5 0.2 0.5 0.3 0.4 0.3 0.9 0.7 1 0.3 1.1-0.1 1.2-0.2 0.6-0.2 1.1-0.5 0.6-0.2 0.6 0 1.9 0.3 0.8-0.1 0.3 0.1 0.5 0.3 0.2 0.1 0.4-0.1 0.8-0.6 0.6-0.2 3.3-0.3 1-0.3 0.8 0.2 1.8 0.2 3.2 0.7 1.1 0.5 0.5 0.1 0.3-0.1 0.2 0 1-0.5 0.4-0.1 0.3 0.2 0.6 0.8 0.2 0.1 0.2 0.1 0.5 0.3 0.2 0.1 0.3 0 0.5-0.2 0.3 0 0.3 0.2 0.6 1-0.2 0.6 1.3 4.1 1.5 4.8 1.5 4.8 1.3 3.8 2 6.4 0.2 1-0.7 7.3 0.2 1.4 0.6 1.1 2.8 3.1 0.6 1.2 1.2 4.1 1.2 2.8 0.4 0.7 0.5 0.5 2 1.4 0.3 0.4 0.2 0.6 0 0.5z" id="ZALP" name="Limpopo">
  </path>
  <path d="M434.4 240.3l-0.3 0.1-0.3 0-0.2 0.1-0.7 0.6-0.4 0.2-0.3 0-0.2 0-3.2-6.3 0.5-0.1 5.5-6.7-0.4-0.4-0.3-0.2-0.4-0.1-0.5 0-4.7 0-0.8-0.2-0.2-0.4 0.1-1 0.3-0.9-1 0-0.5 0.8-1.5 0.3-0.2 0.2-0.2 0.1-0.3 0.6 0 0.3 0 0.3 0.2 0.7 0.1 0.1 0.1 0.1 0.3 0.2 0.1 0.1 0.1 0.2-0.6 0.7-0.1 1.2 0.5 0.4 0 0.6-0.1 0.3-0.2 0.5-0.1 0.2-0.2 0.2-0.3 0.1-0.3 0.1-0.2 0.2-0.2 0.7-0.5 0.6-0.2 0.9 0.1 0.2 0.1 0.8-0.1 0.3 0 0.3-0.2 0.7-1.2 1.1-0.3 0.3-0.1 0.4-0.1 0.3-0.3 0.4-0.8 0.9-2.4-2.1 0-0.5 0.2-0.5 0.2-0.4-0.1-0.6-0.8-1.1-0.5-0.3-0.7-0.2-0.3-0.4-0.2-0.7 0.3-0.7 0.3-0.7 1-0.9 0.2-0.6 0.6-1-0.9-0.7 0.8-2-1-0.6-8.7 2-0.7-1.6 0.7-2.3-2.1-1.4-0.2-1.9-0.1-0.6 0-0.6 0.1-0.6 1.4-3.9-2.1-0.7-0.7-0.8-2.8-1.8 2-5.3 1.4-1.2 0.4-1.6-1-3.5-1.9-1.5-1.6-0.1-0.8 0.8-10.4-5 2.6-4-3.7-2.9-5.5-1.6 0.4-4.5-1.9-2.5 2.4-4.2-2.4-0.7 0.2-2 3.7 0.6 0.6-2.1-8.1-0.9-1.3 3.7-1.9-0.2-0.2 2.2-2.1-0.2-1.9 8.1-1 1.6-3.4-1.2 0.1-9.3-2-0.5 0-0.1-0.1 0 0-0.1-0.1 0 0-0.1 0-0.1-0.1 0 0-0.1 0.2-0.3 0.1 0 0.1 0 0-0.1 0.1 0 0.1 0 0.1-0.1 0.1 0 0-0.1 0.1 0 0.1-0.1 0.1 0 0.1 0 0-0.1 0.1 0 0-0.1 0-0.1 0-0.1 0-0.1 0-0.1-0.1-0.1 0-0.1 0.1 0 0-0.1 0-0.1 0-0.1 0-0.1 0-0.1-0.1 0 0-0.1 0-0.1 0-0.1-0.1 0 0-0.1 0-0.1 0-0.1 0-0.1 0.2-0.2 0.1 0 0.1 0 0.1 0.1 0.1 0 0.1 0 0.1 0.1 0.1 0 0.1 0 0.1 0 0.1 0 0 0.1 0.1 0 0.1 0 0.1-0.1 0.1 0 0.1 0 0-0.1 0.1 0 0-0.1 0-0.1 0-0.1 0-0.1 0-0.1 0-0.1 0-0.1 0-0.1 0-0.1 0-0.1 0.1-0.1 0-0.1 0-0.1 0-0.1 0-0.1 0-0.1-0.1 0 0-0.1 0-0.1 0-0.6 0-0.1 0.1 0 0-0.1 0.1 0 0-0.1 0.1 0 0-0.1 0.1 0 0-0.1 0.1 0 0-0.1 0.1 0 0.1 0 0-0.1 0-0.1 0-0.1-0.1 0 0-0.1-0.1 0-0.1 0-0.1 0-0.1 0 0-0.1-0.1 0-0.1 0-0.1 0 0-0.1-0.1 0-0.2-0.4 0-0.1 0.1-0.1 0.1 0 0.1 0 0.1-0.1 0.1 0 0.1 0 0.1-0.1 0.1 0 0-0.1 0-0.1 0.1 0-0.1-0.1 0-0.1-0.1 0 0-0.1 0-0.1 0-0.1 0.1-0.1 0.2-0.1 0-0.1 0.1 0 0.1 0 0.1 0 0-0.1 0.1 0 0.1-0.1 0.1 0 0-0.1 0.1 0 0.1 0 0-0.1 0.1 0 0-0.1 0.1-0.1 0-0.1 0-0.1 0.1 0 0-0.1 0-0.1-0.1 0 0-0.1 0-0.1-0.1 0-0.1-0.1-0.1 0-0.1 0-0.1 0 0-0.1-0.1 0 0-0.1-0.3-0.3-0.1-0.1-0.1-0.1 0-0.1 0.1 0 0.1 0 0.1 0.1 0.1 0 0.1 0 0-0.1 0-0.1 0.1 0 0-0.1 0-0.1 0-0.1 0-0.1 0-0.1 0-0.1 0-0.1 0-0.1 0-0.1 0-0.1 0.1-0.1 0-0.1 0-0.1 0-0.1 0-0.1 0-0.1 0.1 0 0-0.1 0-0.1 0.1 0 0.1 0 0.1 0 0.1 0 0.1-0.1 0.1 0 0.1 0 0.1 0 0-0.1 0.1 0 0-0.1 0.1 0 0-0.1 0.1-0.1 0-0.1 0.1 0 0-0.1 0-0.1 0.1 0 0-0.1 0-0.1 0.1 0 0-0.1 0.1-0.1 0-0.1 0-0.1 0.1 0 0-0.1-0.1 0 0-0.1 0-0.1 0-0.1 0.1 0 0-0.1 0-0.1 0.1 0 0-0.1 0.1-0.1 0-0.1 0-0.1 0-0.1-0.1 0-0.1 0-0.1 0-0.1 0-0.1 0 0-0.1 0-0.3-0.1-0.3 0-0.2 0.1 0 0.1 0 0-0.1 0.1 0 0.1 0 0.1-0.1 0.1 0 0.1 0 0.1 0 0.1 0 0.1 0 0.1 0 0.1 0 0-0.1 0.1 0 0-0.1 0-0.1-0.1-0.1-0.1-0.1-0.1-0.1-0.1 0 0-0.1-0.1 0 0-0.1-0.1 0 0-0.1-0.1 0-0.1-0.1 0-0.1-0.1 0-0.1-0.1-0.1-0.2 0-0.1 0.1 0 0.1 0 0.1-0.1 0.1-0.1 0-0.1 0-0.1 0.1 0 0-0.1 0-0.1 0.1-0.1 0-0.1 0-0.1 0.1-0.1 0-0.1 0.1 0 0.1-0.1 0.1 0 0-0.1 0.1 0 0-0.1 0-0.1 0-0.1-0.1 0 0-0.1 0-0.1 0.1 0 0-0.1 0-0.1 0.1 0 0-0.1 0.1 0 0-0.1 0-0.1-0.1 0 0-0.1-0.1-0.1-0.1 0 0-0.1-0.1 0 0-0.1 0-0.1 0-0.1 0.1 0 0-0.1 0.1 0 0.1-0.1 0.1 0 0.1 0 0-0.1 0 0.1 0.1 0 0.1 0 0.1 0 0.1 0 0.1 0.1 0.1 0 0.1 0 0 0.1 0.1 0 0.1 0 0 0.1 0.1-0.1 0.1 0 0-0.1 0-0.1-0.1 0-0.1 0 0-0.1-0.1 0-0.1 0 0-0.1 0-0.1-0.1 0 0-0.1 0.1 0 0-0.1 0.1-0.1 0-0.1 0.1 0 0-0.1 0.1 0 0-0.1 0.1 0 0-0.1 0-0.1 0-0.1 0.1 0 0-0.1 0-0.1 0-0.1 0.1 0 0-0.1 0-0.1 0-0.1 0-0.1 0.1 0 0-0.1 0-0.1 0.1 0 0-0.1 0.1 0 0-0.1 0.1 0 0.1 0 0-0.1 0.1 0 0.1-0.1 0.1 0 0.1-0.1 0.1-0.1 0.1 0 0-0.1 0.1 0 0-0.1 0.1 0 0.1 0 0-0.1 0.1 0 0-0.1 0.1 0 0.1-0.1 0.1 0 0-0.1 0.1 0 0-0.1 0.1-0.1 0-0.1 0-0.1 0-0.1 0-0.1 0-0.1 0-0.1 0-0.1 0-0.1-0.1 0 0-0.1 0-0.1 0.1 0 0-0.1 0.1 0 0-0.1 0.1 0 0.1 0 0.1 0 0.1 0 0.1 0 0.1 0.1 0.1 0 0.1 0 0-0.1 0.1 0 0.1-0.1 0-0.1 0-0.1 0-0.1 0-0.1 0-0.1-0.1-0.1 0-0.1 0-0.1 0.4-0.2 0.1 0.1 0 0.1 0.1 0 0 0.1 0.1 0 0-0.1 0.1 0 0-0.1 0.1 0 0-0.1 0.1 0 0-0.1 0.1 0 0.3 0 0.1 0.2 0 0.1-0.1 0 0 0.1 0 0.1-0.1 0 0.1 0.1 0 0.1 0.1 0 0 0.1 0.1 0 0 0.1 0.1 0 0.1 0 0.1 0.1 0.1 0 0.1 0 0.1 0 0-0.1 0.1 0 0-0.1 0.1-0.1 0-0.1-0.1-0.1 0.2-0.1 0.1 0 0-0.1 0.1 0 0.4-0.2 0.1 0 0 0.1 0.1 0 0.1 0.1 0 0.1 0.1 0 0 0.1 0.1 0 0.1 0 0.1 0 0-0.1 0.1 0 0-0.1 0.1-0.1 0-0.1 0.1 0 0-0.1 0.1 0 0.1 0 0 0.1 0.1 0 0.1 0 0.1 0 0.1 0 0-0.1 0.1 0 0-0.1 0-0.1 0-0.1 0.1-0.1 0-0.1 0.1 0 0.1 0 0-0.1 0.1 0 0-0.1 0.1 0 0-0.1 0.1 0 0.1 0 0.1 0 0.1 0 0.1 0 0.1 0 0-0.1 0.1 0 0.1 0 0.1 0 0.1 0 0 0.1 0.1 0 0.1 0 0 0.1 0.1 0 0.1 0 0.1 0 0.1 0 0-0.1 0.1 0 0.1-0.1 0 0.1 0.1 0 0.1 0 0 0.1 0.1 0 0.1 0 0.1-0.1 0.1 0 0.1 0 0-0.1 0.1 0 0.1 0 0.1 0.1 0.1 0 0 0.1 0 0.1 0.1 0 0 0.1 0 0.1 0 0.1 0.1 0 0.1 0 0 0.1 0-0.1 0.1 0 0.1 0 0.1 0 0-0.1 0-0.1 0.1 0 0-0.1 0.1 0 0-0.1 0.1 0.1 0.1 0.1 0 0.1 0.1 0 0 0.1 0.1 0 0.1 0 0-0.1 0.1 0 0.1 0 0-0.1 0.1 0 0.1 0 0.1 0 0.1 0 0.1-0.1 0.3 0.2 0 0.1 0.1 0.1 0 0.1 0 0.1 0.1 0 0 0.1 0.1 0 0.1 0 0.1 0 0.1 0 0.1 0 0.1 0 0.1 0 0.1 0 0.1 0.1 0.1 0 0.1 0 0 0.1 0.1 0 0 0.1 0.1 0.1 0.1 0 0-0.1 0.1 0 0-0.1 0.1 0 0-0.1 0.1 0 0-0.1 0-0.1 0.1 0 0-0.1 0.1 0 0-0.1 0-0.1 0.1-0.1 0-0.1 0.1 0 0-0.1 0-0.1 0.1-0.1 0.5 0.2 0.1 0.1 0 0.1-0.1 0 0 0.1-0.1 0 0 0.1 0 0.1 0.1 0 0 0.1 0.1 0 0.1 0 0-0.1 0.1 0 0.1 0 0.3 0.4 0.4 0.4 0 0.1 0.1 0.1 0 0.1 0 0.1-0.1 0.1 0 0.1 0 0.1 0 0.1-0.1 0 0.1 0 0 0.1 0 0.1 0.1 0 0-0.1 0.1 0 0.1 0 0-0.1 0.1 0 0.1-0.1 0.1 0 0-0.1 0.1 0 0.1 0 0.1 0 0 0.1 0.1 0 0 0.1 0 0.1 0.1 0 0 0.1 0.1 0 0.1 0 0.1 0 0.1 0 0.1 0 0.1 0 0.2 0.1 0 0.1 0 0.1-0.1 0 0 0.1-0.1 0.1 0 0.1 0.1 0 0.1 0 0.1 0 0.1 0 0.1 0 0.1 0 0.1 0.1 0.1 0 0.1 0 0 0.1 0 0.1 0 0.1 0 0.1 0 0.1 0 0.1 0 0.1 0.1 0 0.1 0 0.1 0 0.1 0 0-0.1 0.1 0 0-0.1 0-0.1 0.4 0.3-0.1 0 0 0.1 0 0.1 0 0.1 0.1 0 0.1 0 0.1 0 0 0.1 0.1 0 0.1 0 0.1 0 0 0.1 0.1 0.1 0 0.1-0.1 0 0 0.1 0 0.1 0.1 0 0 0.1 0 0.1 0 0.1 0.1 0 0.1 0 0.1 0 0.1 0 0.1 0 0.1-0.1 0-0.1 0.1 0 0.2 0.2 0.1 0.1-0.1 0 0 0.1 0 0.1 0.1 0 0 0.1 0.1 0 0.1 0.1 0.1 0 0.2 0.2 0.5 0.2 0 0.1 0.1 0 0-0.1 0.1 0 1 0.3 0.3 0.3 0 0.1 0 0.1 0.1 0 0.2 0.5-0.1 0 0 0.1 0.1 0 0.1 0 0.1 0.2 0.2 0.1 0.6 0.2 0.3 0.2 0.1 0.1-0.1 0 0 0.1-0.1 0.1 0 0.1 0 0.1 0.1 0 0 0.1 0 0.1 0.1 0 0 0.1 0.1 0 0.1 0.1 0.1 0 0.1-0.1 0.1-0.1 0.3 0.5 0 0.1 0 0.1 0.1 0.1 0.1 0 0 0.1 0.1 0 1 0.6 0 0.1 0.1 0.1 0.1 0 0 0.1 0.1 0 0.4 0.5-0.1 0 0 0.1 0 0.1 0 0.1 0 0.1 0.1 0 0.1 0 0.1 0 0.1 0.1 0.1 0 0.1 0 0 0.1 0 0.1 0.1 0 0.1 0.1 0.1 0 0-0.1 0.1 0 0.1 0 0 0.1 0-0.1 0.1 0 0 0.1 0.1 0 0.1 0 0-0.1 0.1 0 0-0.1 0-0.1 0-0.1-0.1 0 0-0.1 0.2-0.1 0 0.1 0.1 0 0.1 0 0-0.1 0.4-0.1 0.1 0 0 0.1 0.1 0 0.1 0 0.1 0 0.1 0 0.2 0.1 0.2 0.2 0 0.1-0.1 0 0 0.1 0 0.1 0 0.1 0 0.1 0 0.1 0 0.1 0.1 0 0 0.1 0.6-0.1 0.6-0.1 0.1 0 0 0.1 0.1 0 0.1 0 0.1 0 0.1 0 0.1 0 0-0.1 0-0.1 0-0.1 0.4-0.1 0 0.1 0.1 0 0.1 0 0-0.1 0.1 0 0-0.1 0.6-0.2 0.1 0 0 0.1 0-0.1 0.1 0 0.1 0 0.1 0 0-0.1 0.1 0 0.1 0 0.1 0 0.1 0 0.1 0 0.5 0 0 0.1 0.1 0 0.1 0 0.1 0 0 0.1 0-0.1 0.1 0 0.1 0 0-0.1 0.1 0 0.1 0 0.1 0 0.8 0.4 0 0.1 0.1 0 0 0.1 0.1 0 0.3 0.1 0 0.1-0.1 0 0 0.1 0 0.1 0.1 0 0 0.1 0.1 0 0 0.1 0.1 0 0 0.1 0 0.1 0.1 0 0 0.1 0.1 0 0.1 0 0.1 0 0.1 0 0 0.1 0 0.1-0.1 0 0 0.1 0 0.1-0.1 0 0.1 0 0 0.1 0.1 0 0.1 0 0.1 0.1 0.1 0 0 0.1-0.1 0.1 0 0.1 0 0.1 0 0.1 0.1 0 0 0.1 0.1 0 0.1-0.1 0.1 0 0-0.1 0.1 0 0-0.1 0.2 0.3 0 0.1-0.1 0 0 0.1 0 0.1 0 0.1 0.1 0 0 0.1 0.1 0 0 0.1 0.1 0 0-0.1 0.1 0 0-0.1 0.1 0.1 1.3 0.9 0.4 0.1 0 0.1 0.1 0 0.1 0 0.1 0 0 0.1 0.1 0 0.1 0 0 0.1 0.1 0 0.1 0 0.1 0 0.1 0 0-0.1 0.1-0.1 0.1 0.1 0.1-0.1 0.1 0.1 0 0.1 0.1 0 0-0.1 0.1 0 0-0.1 0-0.1 0.4-0.1 0.2 0 0.1 0 0-0.1 0.1 0 0-0.1 0.1 0 0-0.1 0-0.1-0.1 0 0-0.1 0-0.1 0.1 0 0.1 0 0 0.1 0 0.1 0.1 0 0.1 0 0-0.1 0-0.1 0.1 0 0.1 0.1 0 0.1 0.1 0 0 0.1 0.1 0 0.1 0 0.1 0 0-0.1 0-0.1 0.1 0 0 0.1 0.1 0 0 0.1 0 0.1 0 0.1 0.1 0 0.1 0 0.1 0 0.1 0 0.1 0 0 0.1 0.1 0 0.1 0 0 0.1 0.1 0 0.1 0 0.1 0.1 0.1 0 0.1 0 0 0.1 0.1 0 0.1 0 0 0.1 0.1 0 0.1 0 0 0.1 0.1 0 0.1 0 0.1 0 0 0.1 0.1 0 0.1 0 0 0.1 0.1 0 0.1 0 0.1 0 0.1 0 0.1-0.1 0.1 0 0.1 0 0 0.1 0.1 0 0.1 0 0 0.1 0.1 0 0.1 0 0 0.1 0 0.1 0.1 0 0 0.1 0.1 0 0 0.1 0.1 0 0 0.1 0.1 0 0.1 0 0 0.1 0.1 0 0.1 0 0 0.1 0-0.1 0 0.1 0.1 0 0 0.1 0.1 0 0.1 0 0 0.1 0.1 0 0.1 0 0.1 0 0.1 0 0 0.1 0.1 0 0.1 0 0.1 0 0.1 0 0 0.1 0.1 0 0.1 0 0 0.1 0.1 0 0.1 0 0 0.1 0.1 0 0.1 0 0.1 0.1 0.1 0 0.1 0 0.1 0 0.1 0 0.1 0 0 0.1 0.2 0 1.5-0.2 1 0.2 0.8 0.3 0.9-0.1 1.8-0.5 0.1-0.1 0.2 0 0.3-0.2 1.6-1.2 0.1-0.1 0.1-0.1 1.3-0.6 1.1-0.2 1.2 0.2 0.3 0.1 0.2 0.1 0.1 0 0.7 0.3 0.2 0 0.1 0 0.2 0.1 0.1 0 0.1 0 0.1 0 0.5 0.1 0.5-0.1 0.3 0 5.4-0.6 1.5-0.7 0.6-0.3 0.6-0.5 0.3-0.2 0-0.1 2.9-2.2 0.7-2 1.2-3 0.1-0.2 0.3-0.8 0.9-4.2 0.2-0.4 0.3-0.6 1.6-3.8 0.2-0.3 0.1-0.4 0.1-0.2 0.1-0.3 0.2-0.5 0.1-0.3 0.1-0.3 0.3-1 0.2-0.3 0.1-0.2 0.2-0.5 0-0.2 0.1-0.3 0.2-0.6 0.1-0.1 0-0.2 0-0.4 0.6-1.4 0.2-0.4 0.1-0.2 0.3-1 0-1 0-0.3-0.3-2.4 0.1-0.6 0-0.2 0.1-0.2 0.3 0 0.9-0.4 0.8 0.1 0.8 0 0.4-0.2 1-0.8 4.5-1.4 0.1 0 3.3-1 1.3-0.2 0.6 0 0.6 0.1 0.5 0.1 0.7 0.1 0 0.3 0 2.4 0.2 0.9 0.8 1.4 0.2 0.8 0.3 0.1 5.1 0.5 0.7 0.2 0.9 0.5 0.8 0.4 0.6 0.1 0.7 0.1 0.5-0.1 1.8-1 3.4-1.5 1.3-0.9 0.3-0.8 0.3-0.3 0.4-0.1 0.4 0.2 0.2 0.6 0.4 3.3 0.7 1.2 1.1 0.7 0.9 1 0.5 1 0.2 0.4 0.4 0.3 3.1 0.5 2.3 1.7 2.3 0.1 1.3-0.2 0.3 0.3 0.2 0.8 0.1 0.2 0.1 0.1 0.1 0.1 0.2 0.1 0.2 0 0.2-0.1 0.4-0.2 1-1.8 0.2-0.6 0-0.5 0-0.2 0-0.1 0.1-0.2 0.3-0.2 0.6-0.3 0.7 0 0.7-0.1 1.2 1.2 0.3-0.3 0.2-0.1 0.4-0.2 0.5-0.1 4.5 0.5 0.3 0 0.1 0 0.1-0.1 0-0.1 0.2-0.1 0.4-0.2 0.6-0.1 1.4 0.4 1.5 0.1 1 0.3 2.4 1.1 0.9 0.5 0.4 0.7-0.1 0.9-0.2 0.6-0.4 0.3-0.6 0-0.4-0.1-0.6-0.4-0.6-0.3-0.4 0-0.7 0.2-0.2 0.5 0.1 0.6 0.7 0.5 0.4 0.4 0.2 0.8 0.4 0.3 0.6 0.1 1-0.2 0.6 0.3 0.5 0.3 1.9 3-0.3 0.8-1.5 0.4-0.8-1-1 0.2-0.1 1.2-0.6 0.3-1.4-0.1-1.6 0.9-1.3-1.3-1.1 0.1-0.6 1.6 0.6 0.8 0.7-0.3 1.2 1.5-0.7 0.4-0.2 1.1 1.5 0.6-0.2 0.7-1.9-0.3-0.5 1.5 0.2 0.2 0.3 1-0.8 0.6 0 2 0.2 0.4 0.1 0.4-0.1 0.3-0.2 0.2-0.2 0.1-0.1 0 0 0.2 0 0.4 0.1 0.6-0.2 0.6-0.5 0.8-1 0.3-0.5 0.4-2 0.5-2.3 0.4-0.6-0.5-1.1 0.1-0.6-0.6-0.3-1.5-1 0.4-2.4 0.9-2 1.4-0.4 4-1.1 3.1-0.4 0.8-0.9 0.1-0.7 0.8-1.5-0.2 1 4.7-3.1 2.4-0.9 0.7 0.9 1.7 0.1 1 0.2 1.4-0.6 0.3-1.6 0.4 0.4 0.8 0.2 0.2 0.3 0.6 1.3-0.1 0.4 2.3 2.7-0.8 0.1-1 0.5-0.2 0.9 0.2-0.1 0.8 0.9 1.1 1-0.6 1.5 0.6 1.6 0 0.5 0.2 0.2 1.6 0.9 0-0.7 1.3-0.3 0.2 0.1 0.7-0.6 0-0.4 0.1-0.2 0.1-0.4 0.4-0.2 0.7 0 0.6-0.1 0.4-0.9 1.4-0.3 0.2-1.8 0.4-0.4 0.1-0.4-0.2-1-0.9-0.4-0.2-0.8 0.2-0.7 0.6-1.3 1.5-1.1 0.9-0.7 0.2-0.3-0.2 0.1-0.4 0.1-0.3 0-0.3-0.3-0.1-0.2 0.1-0.5 0.1-2.9 0.1-1.4-0.2-0.9-0.5-0.7-1.1-0.3-0.3-0.5 0.3-0.1 0.5 0.1 2.2-0.7-0.5-0.9-0.9-0.2 0-0.6 0.3-0.4 0.4-0.2 0.3-0.2-0.2-0.5-0.3-0.1 0-0.3 0.3-0.7 0.2-0.5 0.4-0.9 0.8-0.1 0.2-0.1 0.2-0.1 0.2 0 0.3-0.1 0.3-0.2 0-0.3-0.1 0-0.1-0.2-0.1-0.4-0.2-0.4-0.1-0.4 0.2-0.5 0.3-0.8 0.9-0.2 0.4 0 0.5 0.1 0.5 0 0.4-0.5 0.4-0.7-0.3-0.3 0-0.8 1-0.5 0.4-1.7 0.5-0.6 0.8 0.6 0.9 1.1 0.9 0.5 0.7 0 1.9-0.1 0.1-0.2-0.1-0.2 0.2-0.4 0.6-0.2 0.6 0.2 0.5 0.8 0.2 0.3 0.1 0.3 0.1 0.2 0.1 0.1 0.3-0.1 0.1-3 0-0.5-0.2-0.9 0-0.4 0.1-0.3 0.2-0.2 0.7-0.1 0-0.1 0.1-0.2-0.1-0.3-0.2-0.2-0.1-0.8 0.1-0.7 0.5-0.5 0.7-0.2 0.8 0 0.4 0.1 0.2-0.1 0.2-0.2 0.3-0.2 0-0.5 0.1-0.2 0.1-2.6 2.5-0.4 0.6-0.2 0.3-0.1 0-0.7 1.4 0 0.1-0.1 0.2 0.1 0.2 0 0.2 0.4 0.5 0 0.2 0 0.2 0 0.2-0.1 0.1-0.1 0.1-0.2 0.1-0.2 0.1-0.2 0-0.3 0-0.2-0.1-0.2-0.1-0.1-0.3-0.1-0.3 0-0.5-0.2-0.5-0.1-0.8 0-0.1-0.2-0.1-0.3-0.1-2-0.4-0.4 0-0.7 0-0.2 0-0.2-0.1-0.3-0.2-0.4-0.5-0.4-0.4-0.2-0.2-0.7 0.1-3.1 1.7-0.8 0.7-0.1 0.2-0.3 0.3-0.2 0.1-0.2 0.1-0.2-0.1-0.3-0.1-0.6-0.4-0.3-0.1-0.4 0-0.2 0.2-0.3 0.4-0.2 0.1-0.1 0.1-0.6 0.3-0.3 0.1-0.1-0.1-0.3-0.1-0.2-0.1-0.2 0.1-0.1 0.2-0.2 0.2-1.9 0.5-0.4 0.3-2.2 2-0.2 0.1-0.4 0.1-0.4 0-0.3 0-0.3 0.1-0.3 0.2-0.5 0.7-0.1 0.1-0.3 0.2 0 0.3 0.2 0.5-0.2 0.4-0.4 0.6-0.5 0.6-0.4 0.2-0.2 0.1-0.3 0.5-0.1 0.1-0.7 0-0.4 0.1-0.3 0.1-0.1 0.2-0.8 1.5 0 0.2 0.1 0.2 0 0.2-0.6 1.1-0.4 0.6-0.4 0.4-0.3 0-0.3-0.1-0.3 0-0.3 0.4z" id="ZANW" name="North West">
  </path>
  <path d="M619.3 212.3l-1.7 2.2-1 0.9-1.4 0-0.9 0.2-0.4 0.1-2.4 0.7-0.8-0.1-0.7-0.6-0.4-0.5-0.4-0.3-1.2 0.3-0.3 0.2-0.3 0.2-0.3 0.1-0.4-0.2-0.7-0.4-1.1-0.6-0.2 0-0.4-0.3-0.3-0.2-1.1-0.3-0.3 0-0.6 0.1-0.8 0.2-0.4 0.2-0.3 0.2-0.4 0.5-0.6 0-2.2-0.3-1.7 0.3-0.5-0.3-0.1-0.1 0-0.2 0-0.4-0.1-0.2-0.1-0.1-0.1-0.1-0.6-0.1-0.2 0-0.2 0.1-0.3 0.2-0.3 0.4-0.2 0.1-0.7-0.1-0.2 0.1-0.2 0-0.3 0.2-0.3 0.1-0.5 0.1-0.5 0.4-0.9 0.7-0.3 0.1-1.6 0.7-0.1 0.1-0.1 0.1-0.1 0.1-0.1 0.3-0.6 0.1-2.3-0.6-0.5 0.2-0.5 0.4-0.2 0.1-0.2 0-1.6-0.3-0.3-0.2-0.1-0.1-0.2 0-0.2 0-1.2 0.4-0.5 0-0.3 0.1-0.2 0.1-0.2 0.2-0.2 0.3-0.1 0.2-0.1 0.6-0.3 0.6-0.3 0.4-0.2 0.3-0.3 0.1-0.8-0.3-0.7-0.2-0.4 0-0.3 0-0.3 0.1-0.2 0.1-0.1 0.1-0.1 0.1-0.1 0.2-0.1 0.1 0 0.2 0.1 0.3-0.1 0.2-0.1 0.1-0.1 0-0.4 0-0.2 0.1-0.1 0-0.2 0.1-0.2 0.2-0.2 0.1-0.1 0.1-0.2 0-0.2 0-0.3-0.3-2-2.5-0.1-0.1-0.1-0.1-0.1-0.2-0.1-0.2 0.1-0.2 0.1-0.1 0-0.2 0-0.1-0.2-0.2-0.4-0.3-0.2-0.1-0.9-1 0-0.2 0-0.2 0-0.2-0.1-0.1-0.2-0.2-0.1-0.2-0.1-0.2-0.2-0.6-0.1-0.5-0.5-0.6-1-0.6-0.2-0.1-0.4-0.1-0.2 0.1-0.6 0.2-0.1 0.1-0.3 0-0.1-0.1-0.2-0.1-0.1-0.2 0-0.2 0-0.2 0.1-0.1 0-0.1-0.1-0.1-0.1-0.1-0.2-0.1-0.7-0.2-0.2-0.1-0.1-0.2-0.2-0.1-0.3-0.2-0.6-0.2-0.4-0.2-0.2-0.2-0.3-0.4-0.1-0.1-0.2-0.1-0.4-0.1-0.6 0-0.7 0-0.3 0.1-0.2 0.1-0.2 0.2-0.2 0.1-0.1 0-0.2-0.1-0.3-0.3-0.1-0.2-0.3-0.5-0.2-0.7-0.2-0.3-0.1-0.2-0.1-0.1-0.2-0.2-0.1-0.2 0-0.1 0-0.4 0-0.1-0.1-0.3 0-0.4-0.1-0.2-0.3 0-0.2-0.1-1.4-0.9-0.6 0-0.3 0-0.3 0.2-0.3 0.2-0.2 0.1-0.3 0.1-0.3 0.1-0.2 0.3-0.4 0.5-0.2 0.1-0.3 0-0.2-0.1-0.2-0.2-0.2-0.1-0.3 0.1-0.3 0.1-0.3 0.1-0.4-0.2-0.3-0.3-0.2-0.1-0.2 0-0.4-0.2-2.3-1.5-1.3-0.5-0.9 0.4-0.1 0.4 0.1 0 0.2-0.1 0.3 0.2 0.5 0.5 0.1 0.3-0.5 0.1-0.7 0-0.4 0-0.4 0.2-1.3 1.3-0.4 0.1 0.2-0.8 0.3-0.4-0.1-0.3-0.9-0.3-0.1-0.4-0.4-0.3-0.2-0.5-0.2-0.1-0.2-0.1-0.4 0.1-0.2 0-0.2 0.1-0.3 0.4-0.1 0.1-0.2 0-0.2 0-0.3-0.3-0.1-0.2-0.1-0.2-0.1-0.1-0.1-0.6-0.2-0.2-0.3-0.1-0.7 0-0.6 0-0.6-0.1-1-0.5-0.5-0.4-0.1-0.1-0.2-0.1-0.2-0.1 1.4-0.8-0.1-0.5 0.2-0.8 0.5-0.5 0.4-0.6 0.8-0.5 1.3-0.8-0.5-1.4 0.4-1.9 1.5-0.2 0.4-0.7 0.3-0.3 0.5-0.1 0.2-0.1 0.2-0.1 0.4-0.9 0.2-0.7 0-2 1.7 1.1 1.3 0.1 0.4-1.1 2.6 0.4 1.1-0.1 0.9-3 2-0.9-0.6-1.7-0.8-0.4-0.3-0.9-2.6 1-1.5-0.8-1.2-0.8-0.2-1.4-2.7-0.9 0.2-1.4-0.3-1.1-1-0.6 0.2-1.6 1-0.7 1.4 0 0.5-1.8 1.1-1 2.2 0.7 1.3-0.1 0.7 0.7 2.8-0.2 0.5-1.1-0.2-2.5 1-0.8 0.8-0.1 0.4-0.9-0.4-0.7 0-0.7 0.5-1.1 0.2-1.4-0.1-0.8 0.4-0.9 1.7-1.5 0.6-2.2 0.8-1 0.1-0.7 0.2-0.2-0.4-0.1-0.5 0.4-0.9 0.1-0.9 0.7 0.1 1.1-1.7 0.9-0.8-1.5-0.6-0.4-0.7 0.6-0.2-0.8-0.4-1.1-1.5 1.4 0.4 1.2 0.6-0.1 0.6 1.9-0.1 0.4-0.8-0.4-0.5 0.5 0.6 0.8 0 0.7-2 0.4 0.1-2-1.1-0.5-0.6 1.7-1.2-0.6-0.7-2.4-0.5-2.1 0-1.8-0.2-1.6 0.6-1-0.4-2 3.2-1.7 0.7-1.6 0.7-0.1-0.5-1.8-0.5-1.9-1.2 0.1-2.5 1.1-0.6 0.2-2.6 0.8-0.3 0.2-0.6 0.4-0.6 0.3-1 0.3-1.2 0.1-0.7-0.2-0.3-0.5-0.1-0.4 0.1-0.4 0.4-0.3 1.1-0.4 1.1-0.7 0.4-0.5 0.5-0.4 0.7-0.2 0.8-0.2 1.2-0.4 1.8-1-0.6-1.2 0.1-0.4 1.9-1.2 1-0.5 0.6-0.3 0.8-0.2 0.6 0 1.6 0.2 2.5-1.2 0.6 1.1-1.1 0.6 0.4 1.5 0.8 0 0.9 2.3 1.6-0.5 1.5 0.4 1.6 1.4-1.2 1.2-1.3-0.2-0.1 2.4-0.1 1.7 1.6 0.7 0.3 0.9 1.9-0.4 0.2 0.9-0.8 2.1 1.4-0.8 0.6 1.2 1.1-0.4 0.6-0.7 2.2 0 0.3 1 1.5 0.2 1.7-0.3 2 0.3 2.8-0.4 1.4-0.9 3 0.8 0.6-1 2 0.2 0.8-0.9 1.6-0.4 1.9 0 0-2.8 0.1-3.2-0.8-1.8 1.6-0.7 1.5 1.1 1.2 0.5 0.6-0.4 0.1-2.5 1.1-0.4-0.3-1 0-2.6 0.2-1.8 5 0.7 0.5-0.7 1.6-0.2 0.9 1.4 1.2 1.8 1-1.2 2.8-1.7 1.1-1.3 0.1-1.4-0.8-0.9 0.1-0.4 1.3-0.1 1.2-1-0.6-1.6-0.8-1.2 1-0.9 0.8-0.2-0.2-2.3 0.2-1.3 0.1-0.5 0.8 0.2 2.2 1.5 1.1 0.8 2.7-0.2 0.2 1.7 2.3-0.4 5-0.4 1.2-1.6-1.3-2.4-1.5 0.1-0.1-1.9 2.4-0.4-1.4-1.8-1.7 0.3-2.4 0-0.2-4.2 1.3-1.2 0.5-0.9 0-0.9-1.1-0.1 0.1-0.5 1.5-0.4 1-0.1 0.4-0.9 0.8-0.1 0.9 1.1 0.4 1.1 0.8-0.8 0.5-0.1 1.1 0.2 0.2 0 0.2-0.1 0.3-0.3 0.2-0.2 0.3-0.2 0.3-0.1 0.2 0.1 0.2 0 0.3 0.1 0.2-0.1 0.1 0 0.3-0.3 0.4-0.5 0.3-0.3 0.2 0 0.1 0 0.4 0.1 0.1 0.1 0.9 0.2 0.4 0.3 0.2 0.1 0.4 0 0.2-0.1 0.5-0.3 0.2 0 0.1 0 0.2 0.3 0.1 0.1 0.3 0.1 0.1 0 0.2-0.1 0.1-0.1 0.3-0.5 0.2-0.2 0.1-0.1 0.3-0.2 0.2 0 0.2 0 0.1 0.1 0.1 0.1 0.1 0.1 0.1 0.2 0 0.2 0.1 0.2 0.3 0.2 0.5 0.1 0.3 0.1 0.3-0.1 0.2-0.1 0.1 0 0.1-0.2 0-0.1 0.2-1 0-0.1 0.1-0.1 1.3-1.1 0.2-0.1 0.2 0 0.3 0.2 0.1 0 0.4 0 0.5 0 0.2 0 0.3-0.1 0.1-0.1 0.2 5.1 0.2 1.4 1.7 3.7 1 2.3 0.8 2.5 0.1 2.5-0.2 2.2 0 4.6 0 5.5 0 3.9 0.1 5.2 0 7.1-0.5 1.6-0.1 0.9 0 1.1 0.1 1 0.3 0.7 0.1 0.6 0.3 2.1 0 0.7-0.1 0.5-0.2 0.2-0.3 0.1-0.4 0.4-0.2 0.4-1.3 3.3-0.1 0.9 0.1 1 1.1 3.8-1.7 0.9-0.8 0.2-0.9-0.3-2.6-1.7-0.4-0.3-2.8-1.8-3.1-2-3.2-2.1-0.7-0.2-0.9 0-1 0.3-0.8 0.4-3 2.7-2.7 2.3-0.4 0.7-0.4 1.8-1.6 3.8-2 3.6-2.2 2.7-2.7 3.5-0.7 2.5 0.1 3.6 0 4.5 0.3 2.3 0.2 0.8 0.5 0 0.5-0.1 0.5-0.3 0.5-0.4 0.3-0.4 0.2 0.4 0.5 1.5 0.4 0.6 0.8 1 0.3 0.4 0.2 0.7 0 0.8-0.3 1.3 0.1 0.9 0.7 1.1 3 2.8 1.4 2.1 0.5 0.5 0.4 0.3 2.6 0.9z" id="ZAMP" name="Mpumalanga">
  </path>
  <path d="M219.3 345.7l1.6 0.5 0.2-3.7 1.5-1.9 0.4-2.5 1.8-1.7 0.7-2.4 0.8-0.9 0.7-0.5 0.5-0.1 0.5 0.1 0.5 0.2 0.5 0.5 0.8 0.4 1.1 0.5 1.3-0.6 1.4-0.8 1.4-2.1 1.2-2.3 0.8-2.7 0.9-1.5 0.5-1.1 1.6 0.9 0.4-1 0.9-0.8 1.6-0.1 2.1 1.6 1.8 1 1.3 1 1 1.4 0.8 1.3 1.3 1.4 2.9 1 0 4.1-1 1.4 0.7 2-0.7 2.4 1 6.5 0.6 1.7 0.8 1 0.3 0.5 0 0.5-0.2 1.1 0.6 3.3 0 1.4 0.2 0.8 0.8 0.7 0.2 0.8 0.3 0.6 0.2 0.8-0.2 0.7 0 1.4-0.2 0.8 0.6 3-0.2 1.6-0.6 1.2-0.5 2.3 1.5 0.1 0.4 0.1 0.5 0.3 0.3 0.2 0.2 0.2 0.1 0.1 0.2 0.1 0.2 0 0.1-0.1 0.3-0.2 0.2 0 0.2 0 0.1 0 0.2 0.1 0.1 0.1 0.3 0 0.5-0.3 1-0.8 0.4-0.2 0.2 0.1-0.5 1.8 0 0.5 0.1 0.3 0.9 0.4 0.3 0.2 0.3 0.4 0.5 1.1 0.2 0.3 0.2 0.1 0.3 0 0.2 0 0.2 0.1 0.3 0.3 0.1 0.1 0.2 0 0.2-0.1 0.1-0.1 0.2 0 0.1-0.1 0.2 0 0.1 0.1 0.2 0 0.1 0.1 0.2 0.2 0.1 0.1 0.3 0.5 0.1 0.2 0.1 0.1 0.2 0.1 0.2 0 0.4 0 0.1 0.1 0.1 0.2-0.1 0.7 0 0.4 0.1 0.3 0 0.3-0.1 0.5 0 0.2 0.3 0.8 0.2 1.9-0.1 0.3-1.3 1.3-0.6 1.1 0.3 1.8 0.1 0.9 0.3 0.6 1.2 2.2 0 0.8-0.4 3.3 1.8 1.9 1.7-0.8 0.1-0.3-0.1-0.2-0.1-0.1-0.1-0.2-0.4-1 0.2-1.1 0.6-1.4 0.3-1.2 0.6-0.5 0.7 0.3 0.6-0.1 0.9-0.4 0.8-1.1 1.4-0.6 0.7-0.6 2 0 1.7-0.5 2.7-2.2 0.9-1.3 0.9-0.5 1.8-1.9 0.9-0.1 0.5 0.4 0.4 0.8 0.4 0.8 0 1.4-2.2 2.9-0.9 1-0.8 0.6-0.1 1.6 0.5 2.3 0.9 2.6 1.4 3.1 0.4 1.9 0.7 0.9 0.7 0.6 0.7 0.4 0.7 0.5 0.9 1.2 0.7 0.8 0.7 1.1 0.6 0.3 1.3 1.2 2-0.4 1.7-0.8 0.7 0.1 1.1 0.5 2.9-0.1 2.4-2 0.6-1.8 0.2-1.9 0.3-1.4 1.3-1.4 2.2-0.8 1.7-0.2 1.3-0.4 2.3-1 1.6-3.3 0.6-1.9 1.3-0.6 0.5-0.4 0.6-0.6 0.9-1.3 2.3-0.8 1.2-0.2 1.4-1.1 1.6-1 0.9-1.7 1.5-0.7 0.9-0.2 1.3 0.3 1.1-0.4 1.2 0.3 1 0.4 1.9 0.4 1.8-0.5 1.7-1.2 0.8-1.3 1.7-2.1 0.7-0.1 0.7-1.3-0.5-1.4-0.2-0.4-0.1-0.2 0-0.1 0.3-1.4 0-1.1 0-0.6 0.1-0.6 0.2-0.4 0.3-0.7 1.1-0.3 3.6-8.7 0.8-1.2 5.5 2.9 1.2 0.9 1.3 1.5 1.3 1.9 2.7 1 1.8 1 2.1 0.1 1.3 0.6 2.1 0.1 1.4 0.5 1.1 0.6 0.3 1.2 0.1 0.4 0.9 1.5 3.3-3 0.6-0.7 0.7-1.3 2-2.9 1.9-1 1.3-1.4 3.7 0.1 0.8-0.2 1.2-0.5 1.1-0.1 2.1 0.2 2.5 1.5 0.7 0.6 0.3 0.7 0 0.7 1.4 1.1 1.1-0.6 1-0.6 0.8-1.3 1-0.4 0.8 0.1 1.3 1.9 2.4 0.6 0.3 0.9-0.3 0.3-0.2 0.7-0.3 0.5-0.1 1 0.7 0.5 0.7 0.9 0.2 0.9-0.7 1.1-0.5 0.4-0.6 0.3-0.2 0.4 0 0.5-0.1 0.6-0.4 0.5 0 0.8 0.1 0.5-0.3 0.9-1.2 0.7-0.6 1.1-4.3 1.8-1.2-0.2-2.6-0.9-1 0.5-1.5 1-1.1 2.4-1 0.6-4.6 0.6-1.4 0.7-2.2-0.2-1.1 1.3-1.4 1.1-0.1 1.4 0 1.5 0.7 1.3 0.4 1.5 0.2 1.2-0.1 1.7 1 1.2 0.5 1.2 1.2 1.1-1.3 1.4-1.9-0.1-2 0.2-1.5 0.6-0.6 0.2-0.3 0.1-0.3-0.5-0.3-0.3-0.2-0.5-0.1-0.2-0.1-0.1-0.1-0.1-0.1-0.2-0.1 0 0 0.2 0.1 0.8 0 1.3-0.4 0.8-1.1 0.3-0.6 0.4-1.4 1.9-0.2 1.1-0.9 1.4 0.4 1.5-0.5 1.4-5 8.3-0.3 1.2 0.4 1.4 4.6 0.1 3.7-0.5 6.9 0.3 5.2 1.2 2.2 1 1.6 1.2 0.5 2.5 1.5 2-0.4 0.8-5.4 2.4-0.6 0.8-0.4 0.5-1.1 1.2 2.7 0.3 0.8-0.3 0.7 0.1 1.1 0.4 0.6 1 3.6 1.8-1.4 2.2 0 0.5 0 1.1-0.1 0-1.4 0.1-4.8 1.1-0.6 0.3-0.6 0.3-0.5 0.5-0.2 0.8 0.2 0.7 0.5 0.5 0.7 0.1 0 0.3-10.3-1-0.2-0.2-0.1-1.1-0.1-0.2-0.9-0.1-0.4-0.1-0.2-0.3 0.1 0.6 0.2 0.2 0.3 0.1 0.3 0.2 0.3 0.5 0 0.3-0.2 0.2-0.2-0.2-0.4-0.1-0.8-0.1-0.4 0.1-0.3 0.1-0.3 0.1-0.5 0-2.3-0.8-1-0.6-0.4-0.1-0.3-0.2-0.2-0.5-0.1-0.4 0-0.2 0.2-0.1 0.5 0-0.5-0.4-0.7-0.3-1.3-0.1 0.3 0.5 0.4 0.6 0.5 0.4 0.5 0.2-0.6 0.2-0.7-0.1-3.3-1.2-0.6-0.1-0.8 0-0.6 0.1-0.5 0.3-1.5 1.2-1.2 0.7-1.4 0.3-2.7-0.3-1.3 0-2.5 0.6-0.6 0.3-0.5 0.4-0.9 0.9-0.3 0.8 0.1 0.6 0.4 0.4 0.5 0.3-0.4 0.4-0.6 0.2-3.8 0.6-1.1 0.5-0.8 0.8-0.1 0.6 0.2 1.1-0.3 0.4-0.6 1.1-0.1 0.1-1.8 1.1-1.2 0.4-1.3 0.3-1.3 0-3.1-0.6-1.1-0.7-0.7-0.2-0.6 0.2-1.2 0.5-1.1 0.2-0.2 0.2-0.1 0.2-0.2 0.2-0.2 0.2-2 0.9-1.2 0.2-1.3-0.1-4.9-1.9-1.2-0.2-2.9-0.3-1.4 0.2-1.2 0.6 0.2 0-1.7 0.4-0.5 0.3 0.8 0.1 0.7 0.6 0.4 0.7-0.3 0.8-0.5 0.2-5.3-0.9-4.1 0.5-1.3 0.6-1 0.8-1.6 2.3-0.6 0.5-0.5 0.2-0.5 0.1-0.2 0.3-0.1 0.3-0.3 0.3-0.3 0.1-1 0.4-0.4 0.4-0.6 0.5-0.4 0.6-0.2 0.6-0.3-0.1-0.7 0.2-1.2 0.5-2.2 1.6-0.9 1.2 0.4 0.9 0 0.3-0.5 0.1-0.7 0.5-0.5 0.1-0.5-0.1-0.5-0.1-0.4-0.3-1.9-1.4-0.4-0.4-0.5-0.3-4.8 0.1-0.4 0.1-0.5 0.5-0.4 0.2-0.3-0.1-0.2-0.2-0.1-0.3-0.2-0.2-1.5-0.9-2.2-2.3-1.6-0.9-0.4-0.3-0.5-0.6-0.5-0.4-0.8-0.1-0.7 0.2-0.5 0.4-0.3-0.2-0.3 0-0.2 0-0.3 0.2 0.1-0.4 1.8-2.4 0.2-0.4-0.2-1-0.5-1.2-0.6-1-0.5-0.8-0.5-0.3-0.3-0.1-2.1 0.5-1.8-0.2-0.4-0.1-0.4-0.4-0.6-1-0.4-0.3 0-0.3 0.7-0.1 0.4-0.5 0.2-0.8 0.3-0.8-0.5 0.3-0.7 1.2-0.4 0.2-2.2-0.1-0.4 0-0.9 0.3-2.9 0.5-0.6 0.4-0.1 0.3-0.3 0.1-0.3-0.1-0.3-0.1-0.3-0.5 0.1-0.3 0.2-0.5-0.2-1.2 0-0.2 0.1-0.4 0.1-0.2 0.2-0.1 0.2-0.3 0.3-0.8-0.1-0.5-0.4-1.2 0-0.7 0.2-0.4 0.4-0.3 0.4-0.6-1.2-1.9-0.5-0.3-1.8-0.4-2.7-0.3-2.8 0.2-0.4 0.2-0.3 0.1-1 0.5-0.6 0.4-0.2 0.2-0.3 0.4-0.4 0.4-0.2 0.3 0 0.5 0.1 0.4 0.1 0.2 0.2 0.1 0.2 0.2 0.4 1.5 0.1 0.4 0 0.3-0.3 2.4 0.1 0.7 0.5 0.4-0.5 0.2-0.7-0.4-0.8-0.6-0.4-0.6-0.7-1.5-0.1-0.4 0-0.2 0.2-0.5 0-0.3-0.1-0.1-0.1-0.1-0.1-0.1-0.1-0.1-0.3-0.9-0.2-0.4-0.9-0.3-0.3-0.3 0-0.5 0-0.5 0.3-0.3 0.2-0.1 0.3-0.2 0.1-0.5 0-0.5 0-0.4 0.2-0.3 0.2-0.4-0.5 0.1-0.1 0-0.3 0.2-0.4-0.7 0-0.5 0.2-0.5 0.5-0.5 0.4-0.7 0.3-1.3 0.3-0.8 0.9-0.7 1.2 0 0.9-0.2 0.4-1.3-0.1-0.7-0.6-0.9-0.1-0.4-0.1-0.7-0.7-3.2-0.8-1.6-0.2-0.7-0.3-0.1-1.3-1.7-0.5-0.3-0.3-0.2-0.1-0.3 0-1.5 0-0.7-0.2-0.7-0.8-1.2-0.8-0.9-3.2-2.2 0.3-0.6-0.2-0.7-0.7-1.4-0.4-1-0.8-1 0-0.3-0.3-0.5-1.4-1.3-0.5-0.3-0.6-0.2-0.4-0.6-0.3-0.7-0.4-0.4 0.8-0.4 0.4-0.1 0.3 0.1 0.2 0.4 0.2 0.4 0.2 0.3 0.4 0.2-0.2 0.4 0.2 0.3 0.8 0.7 0.6 0.7 0.4 0.5 0.4 0.1 0.4-0.3-0.1-0.4-0.6-0.6-0.2-0.3-0.1-0.6 0-0.3-0.2 0-0.3-0.1-0.1-0.1-0.7-0.6-0.2-0.4-0.1-0.3 0-1.5 0-0.6-0.5-0.7-0.7-0.3-0.8-0.1-0.9 0.2 0.2 0.5 0.2 0.2-0.4 0.1-0.3 0.2-0.5 0.4-0.4-0.4-0.1-0.3-0.1-0.4 0-0.2-0.2-0.3-0.2-0.3-0.1-0.4 0.2-0.6-0.1-0.2-0.4-1.1-0.1-0.7-0.1-0.3 0.1-0.3 0.3-0.4 0.2-0.4-0.2-0.5-0.6-0.9-0.2-0.1-0.1-0.1 0-0.3 0.1-0.1 0.2 0.1 0.2 0 0.1-0.1 0.1-0.1 0.5-0.4 0.2-0.1 0.2-0.1 0-0.1 0.1-0.2 0.1-0.2 0-0.3 0-1.1 0-0.4 0.5-0.4 0.7-0.3 0.7-0.1 0.4 0-0.2 0.3 0.3 0.5 1.6 1.4 1.2 0.5 1.2-0.3 1-0.8 3.5-3.6 0.7-1.4 0.5-1.2 0.7-2.9 0.1-1.4-0.2-2.5-0.1-0.5-0.4-0.8 0.2-0.6 0.7-0.9 0.1-1.4-1.1-4.6-0.4-3.8-0.5-1.5-0.2-0.7 0.1-1.6 0-0.7-0.4-0.7-0.3-0.5-0.4-0.6-0.2-0.5 0-0.3 0-0.3 0-0.3-0.6-2.5-0.5-1.1-0.7-1.2-1.4-1.8-0.2-0.5-0.1-0.2-1.3-2-1.5-1.5-0.2-0.6-0.2-0.6-0.4-0.5-1-0.9-1.2-1.8-0.8-0.7-0.3-0.9-0.4-1.6-0.3-0.4-1.2-1-0.3-0.4-0.2-0.4-1.1-1.9z m590.5 602.9l1-0.3 1 0.1 2.7 0.9 1.4 1.6 0.8 0.3-0.3 1.2-0.6 1.1-0.8 0.7-0.9 0.3-0.3 0-0.5-0.2-3.3-0.2-0.4 0.1-1.1-0.1-0.5-0.3-0.4-0.4-0.2-0.4-0.1-0.6-0.1-0.6 0.6-0.5 0.6-1 0.3-0.2 0.2-0.2 0.6-1 0.3-0.3z m5.9-8.3l0.1-1 1.1-0.6 1.3-0.1 1 0.8-0.1 1.2-1.1 0.4-1.4-0.2-0.9-0.5z" id="ZAWC" name="Western Cape">
  </path>
  <path d="M530.6 201l-0.3 0-0.6 0.2-0.8 0.2-0.3-0.3-0.1-0.1-0.2-0.2-0.1-0.2-0.1-0.7-0.4 0-0.6 0.6-0.2-0.2-0.2-0.2-0.4-0.4-0.5-0.5-0.6-0.3-0.9-0.4-0.3-0.5-1.2-2.2-0.3-0.8 0.2-0.4 0.2-0.1-0.2-0.4-0.6-0.5-0.3-0.1-0.3 0-0.7 0.4-0.4 0.5-0.4 0.5-0.5 0.5-0.6 0.2-1.4 0.2-0.7 0.2-0.5 0.3-0.1 0.2 0 0.3 0 0.2-0.3 0.2-0.3-0.1-0.2-0.2-0.2-0.3-0.2-0.1-2.1 0.2-0.4 0-0.1-0.2-0.4-0.6-0.4-0.4-0.1 0.2-0.3 0.1-0.6 0 0.7-1.3-0.9 0-0.2-1.6-0.5-0.2-1.6 0-1.5-0.6-1 0.6-0.9-1.1 0.1-0.8-0.9-0.2-0.5 0.2-0.1 1-2.7 0.8-0.4-2.3-1.3 0.1-0.3-0.6-0.2-0.2-0.4-0.8 1.6-0.4 0.6-0.3-0.2-1.4-0.1-1-0.9-1.7 0.9-0.7 3.1-2.4-1-4.7 1.5 0.2 0.7-0.8 0.9-0.1 0.4-0.8 1.1-3.1 0.4-4 2-1.4 2.4-0.9 1-0.4 0.3 1.5 0.6 0.6 1.1-0.1 0.6 0.5 2.3-0.4 2-0.5 0.5-0.4 1-0.3 0.5-0.8 0.2-0.6-0.1-0.6 0-0.4 0-0.2 0.1 0 0.2-0.1 0.2-0.2 0.1-0.3-0.1-0.4-0.2-0.4 0-2 0.8-0.6-0.3-1-0.2-0.2 0.5-1.5 1.9 0.3 0.2-0.7-1.5-0.6 0.2-1.1 0.7-0.4-1.2-1.5-0.7 0.3-0.6-0.8 0.6-1.6 1.1-0.1 1.3 1.3 1.6-0.9 1.4 0.1 0.6-0.3 0.1-1.2 1-0.2 0.8 1 1.5-0.4 0.3-0.8 2-0.2 0.4 0.4 1.7 0 1.5-0.8 0.5-0.6 0.8-0.3 1.5-0.1 1 0.1 0.9-0.3 0.4-0.2 0.2-0.2 0-0.1 0-0.1-0.1-0.5-0.5-0.4-0.6-0.8-0.2-0.2-0.3-0.9 0.6-0.2 2.5-1.1 1.2-0.1 0.5 1.9 0.5 1.8-0.7 0.1-0.7 1.6-3.2 1.7 0.4 2-0.6 1 0.2 1.6 0 1.8 0.5 2.1 0.7 2.4 1.2 0.6 0.6-1.7 1.1 0.5-0.1 2 2-0.4 0-0.7-0.6-0.8 0.5-0.5 0.8 0.4 0.1-0.4-0.6-1.9-0.6 0.1-0.4-1.2 1.5-1.4 0.4 1.1 0.2 0.8 0.7-0.6 0.6 0.4 0.8 1.5 1.7-0.9-0.1-1.1 0.9-0.7 0.9-0.1 0.5-0.4 0.4 0.1-0.2 0.2-0.1 0.7-0.8 1-0.6 2.2-1.7 1.5-0.4 0.9 0.1 0.8-0.2 1.4-0.5 1.1 0 0.7 0.4 0.7-0.4 0.9-0.8 0.1-1 0.8 0.2 2.5-0.5 1.1-2.8 0.2-0.7-0.7-1.3 0.1-2.2-0.7-1.1 1-0.5 1.8-1.4 0-1 0.7-0.2 1.6 1 0.6 0.3 1.1-0.2 1.4 2.7 0.9 0.2 1.4 1.2 0.8 1.5 0.8 2.6-1 0.3 0.9 0.8 0.4 0.6 1.7-2 0.9-0.9 3-1.1 0.1-2.6-0.4-0.4 1.1-1.3-0.1-1.7-1.1 0 2-0.2 0.7-0.4 0.9-0.2 0.1-0.2 0.1-0.5 0.1-0.3 0.3-0.4 0.7-1.5 0.2-0.4 1.9 0.5 1.4-1.3 0.8-0.8 0.5-0.4 0.6-0.5 0.5-0.2 0.8 0.1 0.5-1.4 0.8z" id="ZAGP" name="Gauteng">
  </path>
 </g>
 <g id="points">
  <circle class="-45.72378783010935|17.545371945117278" cx="212.7" cy="901.1" id="0">
  </circle>
  <circle class="-35.788067451596895|28.29927818390467" cx="531.9" cy="510.6" id="1">
  </circle>
  <circle class="-23.368416978456324|36.902403174934584" cx="787.3" cy="85.4" id="2">
  </circle>
 </g>
 <g id="label_points">
  <circle class="Northern Cape" cx="347.3" cy="282.4" id="ZANC">
  </circle>
  <circle class="KwaZulu-Natal" cx="603.8" cy="253" id="ZAKZN">
  </circle>
  <circle class="Free State" cx="482.7" cy="258.1" id="ZAFS">
  </circle>
  <circle class="Eastern Cape" cx="476.8" cy="380.8" id="ZAEC">
  </circle>
  <circle class="Limpopo" cx="562.6" cy="94.2" id="ZALP">
  </circle>
  <circle class="North West" cx="448" cy="194.5" id="ZANW">
  </circle>
  <circle class="Mpumalanga" cx="577.9" cy="184.1" id="ZAMP">
  </circle>
  <circle class="Western Cape" cx="278.4" cy="430.9" id="ZAWC">
  </circle>
  <circle class="Gauteng" cx="524.9" cy="179.4" id="ZAGP">
  </circle>
 </g>
</svg>